SplineFontDB: 3.0
FontName: Midway-Regular
FullName: Midway
FamilyName: Midway
Weight: Book
Copyright: Copyright 2011 Canonical Ltd.\nCopyright 2015 Yuta Taniguchi\nLicensed under the Ubuntu Font Licence 1.0
Version: 0.1
ItalicAngle: 0
UnderlinePosition: -156
UnderlineWidth: 23
Ascent: 800
Descent: 200
InvalidEm: 0
sfntRevision: 0x0000199a
LayerCount: 2
Layer: 0 1 "Back" 1
Layer: 1 1 "Fore" 0
XUID: [1021 935 -1301570125 11509133]
StyleMap: 0x0000
FSType: 0
OS2Version: 3
OS2_WeightWidthSlopeOnly: 0
OS2_UseTypoMetrics: 0
CreationTime: 1304432203
ModificationTime: 1558200053
PfmFamily: 49
TTFWeight: 400
TTFWidth: 5
LineGap: 0
VLineGap: 0
Panose: 2 11 5 9 3 6 2 3 2 4
OS2TypoAscent: 0
OS2TypoAOffset: 1
OS2TypoDescent: 0
OS2TypoDOffset: 1
OS2TypoLinegap: 0
OS2WinAscent: 0
OS2WinAOffset: 1
OS2WinDescent: 0
OS2WinDOffset: 1
HheadAscent: 0
HheadAOffset: 1
HheadDescent: 0
HheadDOffset: 1
OS2SubXSize: 824
OS2SubYSize: 766
OS2SubXOff: 0
OS2SubYOff: 165
OS2SupXSize: 824
OS2SupYSize: 766
OS2SupXOff: 0
OS2SupYOff: 562
OS2StrikeYSize: 59
OS2StrikeYPos: 294
OS2CapHeight: 729
OS2XHeight: 547
OS2Vendor: 'DAMA'
OS2CodePages: 2000009f.56010000
OS2UnicodeRanges: e00002ff.5000205b.00000000.00000000
Lookup: 1 0 0 "'locl' Localized Forms in Latin lookup 0" { "'locl' Localized Forms in Latin lookup 0 subtable"  } ['locl' ('latn' <'AZE ' > ) ]
Lookup: 1 0 0 "'locl' Localized Forms in Latin lookup 1" { "'locl' Localized Forms in Latin lookup 1 subtable"  } ['locl' ('latn' <'TRK ' > ) ]
Lookup: 1 0 0 "'locl' Localized Forms in Latin lookup 2" { "'locl' Localized Forms in Latin lookup 2 subtable"  } ['locl' ('latn' <'CRT ' > ) ]
Lookup: 1 0 0 "'locl' Localized Forms in Cyrillic lookup 3" { "'locl' Localized Forms in Cyrillic lookup 3 subtable"  } ['locl' ('cyrl' <'BGR ' > ) ]
Lookup: 1 0 0 "'locl' Localized Forms in Cyrillic lookup 4" { "'locl' Localized Forms in Cyrillic lookup 4 subtable"  } ['locl' ('cyrl' <'MKD ' > ) ]

StartChar: SF030000.001
Encoding: 65536 -1 0
Width: 588
VWidth: 1177
Flags: W
LayerCount: 2
Fore
SplineSet
49 0 m 1
 49 883 l 1
 49 893 l 1
 59 893 l 1
 530 893 l 1
 540 893 l 1
 540 883 l 1
 540 0 l 1
 540 -10 l 1
 530 -10 l 1
 59 -10 l 1
 49 -10 l 1
 49 0 l 1
461 69 m 1
 461 814 l 1
 128 814 l 1
 128 69 l 1
 461 69 l 1
EndSplineSet
EndChar

StartChar: exclam
Encoding: 33 33 4
Width: 588
VWidth: 1177
Flags: W
LayerCount: 2
Fore
SplineSet
355 531 m 2
 355 519.969416522 355 519.969416522 354.937331567 509.439878443 c 0
 354.874663135 498.910340364 354.874663135 498.910340364 354.74925392 488.875616931 c 0
 354.623844706 478.840893498 354.623844706 478.840893498 354.435562083 469.302045992 c 0
 354.247279461 459.763198487 354.247279461 459.763198487 353.996144207 450.722329328 c 0
 352.987410077 414.40790068 352.987410077 414.40790068 349.958932065 381.09464254 c 0
 346.951511107 348.013012006 346.951511107 348.013012006 343.442511403 315.429268003 c 0
 339.938753878 282.894376707 339.938753878 282.894376707 335.935326727 247.864534088 c 2
 334.922237116 239 l 1
 326 239 l 1
 259 239 l 1
 250.077762884 239 l 1
 249.064673273 247.864534088 l 2
 245.053235334 282.964616055 245.053235334 282.964616055 242.04233321 315.580830758 c 0
 239.04168606 348.087841548 239.04168606 348.087841548 236.041067935 381.09464254 c 0
 235.285009407 389.411286346 235.285009407 389.411286346 234.62366025 397.945649329 c 0
 233.962311093 406.480012311 233.962311093 406.480012311 233.39584322 415.229377959 c 0
 232.829375347 423.978743608 232.829375347 423.978743608 232.357592652 432.942654287 c 0
 231.885809956 441.906564966 231.885809956 441.906564966 231.50843368 451.089387685 c 0
 230 487.794607232 230 487.794607232 230 531 c 2
 230 729 l 1
 230 739 l 1
 240 739 l 1
 345 739 l 1
 355 739 l 1
 355 729 l 1
 355 531 l 2
292 -24 m 0
 256.115713201 -24 256.115713201 -24 229.749865379 0.121945879687 c 0
 203 24.5952269714 203 24.5952269714 203 66 c 0
 203 71.7571222654 203 71.7571222654 203.538960747 77.234829935 c 0
 204.077921494 82.7125376047 204.077921494 82.7125376047 205.165031738 87.9219784824 c 0
 206.252141982 93.1314193601 206.252141982 93.1314193601 207.876763844 98.022172311 c 0
 209.501385706 102.912925262 209.501385706 102.912925262 211.68846544 107.504877796 c 0
 213.875545173 112.096830331 213.875545173 112.096830331 216.597636895 116.33023896 c 0
 219.319728617 120.56364759 219.319728617 120.56364759 222.618586584 124.467722179 c 0
 225.917444552 128.371796768 225.917444552 128.371796768 229.749865379 131.87805412 c 0
 238.442254124 139.8306651 238.442254124 139.8306651 248.354345716 145.205255639 c 0
 258.266437308 150.579846178 258.266437308 150.579846178 269.222006228 153.289923089 c 0
 280.177575148 156 280.177575148 156 292 156 c 0
 329.012573148 156 329.012573148 156 354.91222646 131.226418571 c 0
 381 106.272896055 381 106.272896055 381 66 c 0
 381 24.659076964 381 24.659076964 354.828838781 0.194730606751 c 0
 328.946103713 -24 328.946103713 -24 292 -24 c 0
EndSplineSet
EndChar

StartChar: quotedbl
Encoding: 34 34 5
Width: 588
VWidth: 1177
Flags: W
LayerCount: 2
Fore
SplineSet
253 800 m 1
 253 747 l 2
 253 694.549786581 253 694.549786581 246.959543577 627.601394564 c 0
 240.920552487 560.669243316 240.920552487 560.669243316 230.844275755 504.242093615 c 2
 229.372473324 496 l 1
 221 496 l 1
 172 496 l 1
 163.349314013 496 l 1
 162.104135607 504.560601543 l 2
 154.064450275 559.833438198 154.064450275 559.833438198 148.03985844 627.108047025 c 0
 142 694.553132941 142 694.553132941 142 748 c 2
 142 800 l 1
 142 810 l 1
 152 810 l 1
 243 810 l 1
 253 810 l 1
 253 800 l 1
447 800 m 1
 447 747 l 2
 447 694.549786581 447 694.549786581 440.959543577 627.601394564 c 0
 434.936212727 560.842810968 434.936212727 560.842810968 426.899494937 504.585786438 c 2
 425.672954017 496 l 1
 417 496 l 1
 367 496 l 1
 358.503363787 496 l 1
 357.131254171 504.385114319 l 2
 348.072377762 559.744914593 348.072377762 559.744914593 342.03985844 627.108047025 c 0
 336 694.553132941 336 694.553132941 336 748 c 2
 336 800 l 1
 336 810 l 1
 346 810 l 1
 437 810 l 1
 447 810 l 1
 447 800 l 1
EndSplineSet
EndChar

StartChar: numbersign
Encoding: 35 35 6
Width: 588
VWidth: 1177
Flags: W
LayerCount: 2
Fore
SplineSet
378 -10 m 1
 290 -10 l 1
 277.950737127 -10 l 1
 280.171278131 1.8428853505 l 1
 313.950737127 182 l 1
 204.256906561 182 l 1
 168.819334174 -1.89226752312 l 1
 167.256906561 -10 l 1
 159 -10 l 1
 71 -10 l 1
 58.9507371274 -10 l 1
 61.1712781307 1.8428853505 l 1
 94.9507371274 182 l 1
 32 182 l 1
 22 182 l 1
 22 192 l 1
 22 271 l 1
 22 281 l 1
 32 281 l 1
 113.74151254 281 l 1
 145.89124516 448 l 1
 32 448 l 1
 22 448 l 1
 22 458 l 1
 22 536 l 1
 22 546 l 1
 32 546 l 1
 165.734993238 546 l 1
 201.178848287 730.882811468 l 1
 202.734993238 739 l 1
 211 739 l 1
 299 739 l 1
 311.03776196 739 l 1
 308.830447406 727.166341417 l 1
 275.03776196 546 l 1
 384.692807988 546 l 1
 419.169552594 730.833658583 l 1
 420.692807988 739 l 1
 429 739 l 1
 517 739 l 1
 528.976575305 739 l 1
 526.839513789 727.215632214 l 1
 493.976575305 546 l 1
 557 546 l 1
 567 546 l 1
 567 536 l 1
 567 458 l 1
 567 448 l 1
 557 448 l 1
 474.25848746 448 l 1
 442.10875484 281 l 1
 557 281 l 1
 567 281 l 1
 567 271 l 1
 567 192 l 1
 567 182 l 1
 557 182 l 1
 423.256906561 182 l 1
 387.819334174 -1.89226752312 l 1
 386.256906561 -10 l 1
 378 -10 l 1
364.827524766 448 m 1
 255.25848746 448 l 1
 223.10875484 281 l 1
 331.784744017 281 l 1
 364.827524766 448 l 1
EndSplineSet
EndChar

StartChar: dollar
Encoding: 36 36 7
Width: 628
VWidth: 1177
Flags: W
LayerCount: 2
Fore
SplineSet
180.033203125 128.401367188 m 0,0,1
 224.588413169 115.182617188 224.588413169 115.182617188 294.261051927 115.182617188 c 0,2,3
 338.512721228 115.182617188 338.512721228 115.182617188 369.271185849 121.313476562 c 0,4,5
 384.224200211 124.293945312 384.224200211 124.293945312 395.642827312 128.561523438 c 128,-1,6
 407.061454413 132.830078125 407.061454413 132.830078125 414.823163195 138.149414062 c 0,7,8
 430.322285809 148.770507812 430.322285809 148.770507812 436.772067223 162.940429688 c 0,9,10
 443.529232585 177.78515625 443.529232585 177.78515625 443.529232585 195.418945312 c 0,11,12
 443.529232585 208.27734375 443.529232585 208.27734375 440.083574712 219.025390625 c 128,-1,13
 436.637916839 229.774414062 436.637916839 229.774414062 429.760333023 238.784179688 c 0,14,15
 415.299555501 257.729492188 415.299555501 257.729492188 391.149317627 271.83984375 c 0,16,17
 384.892839522 275.494140625 384.892839522 275.494140625 378.199052293 278.979492188 c 128,-1,18
 371.506321367 282.46484375 371.506321367 282.46484375 364.359380482 285.787109375 c 128,-1,19
 357.213495899 289.109375 357.213495899 289.109375 349.609176149 292.265625 c 128,-1,20
 342.004856399 295.421875 342.004856399 295.421875 333.96534013 298.403320312 c 0,21,22
 323.02099273 302.4609375 323.02099273 302.4609375 311.808344563 306.453125 c 128,-1,23
 300.596752699 310.446289062 300.596752699 310.446289062 289.057707144 314.393554688 c 128,-1,24
 277.519717891 318.341796875 277.519717891 318.341796875 265.635261506 322.250976562 c 128,-1,25
 253.928263897 326.22265625 253.928263897 326.22265625 242.398725061 330.393554688 c 128,-1,26
 230.869186226 334.565429688 230.869186226 334.565429688 219.483304494 338.94921875 c 128,-1,27
 208.09636646 343.333007812 208.09636646 343.333007812 196.786538488 347.953125 c 0,28,29
 163.571289062 362.204101562 163.571289062 362.204101562 138.01953125 383.125 c 0,30,31
 131.517578125 388.448242188 131.517578125 388.448242188 125.6328125 394.33984375 c 128,-1,32
 119.747070312 400.231445312 119.747070312 400.231445312 114.499023438 406.66796875 c 128,-1,33
 109.250976562 413.103515625 109.250976562 413.103515625 104.63671875 420.083007812 c 128,-1,34
 100.0234375 427.0625 100.0234375 427.0625 96.0546875 434.569335938 c 0,35,36
 79.9375 465.060546875 79.9375 465.060546875 79.9375 508.538085938 c 0,37,38
 79.9375 519.448242188 79.9375 519.448242188 80.89453125 529.83984375 c 128,-1,39
 81.8515625 540.23046875 81.8515625 540.23046875 83.7734375 550.11328125 c 128,-1,40
 85.6953125 559.99609375 85.6953125 559.99609375 88.57421875 569.329101562 c 128,-1,41
 91.453125 578.661132812 91.453125 578.661132812 95.30859375 587.462890625 c 128,-1,42
 99.1640625 596.264648438 99.1640625 596.264648438 103.975585938 604.485351562 c 128,-1,43
 108.786132812 612.705078125 108.786132812 612.705078125 114.5859375 620.372070312 c 128,-1,44
 120.384765625 628.038085938 120.384765625 628.038085938 127.139648438 635.092773438 c 0,45,46
 171.517578125 681.444335938 171.517578125 681.444335938 259.64814047 695.90625 c 1,47,-1
 259.64814047 806 l 1,48,-1
 259.64814047 816 l 1,49,-1
 270.4646753 816 l 1,50,-1
 364.568528324 816 l 1,51,-1
 375.385063154 816 l 1,52,-1
 375.385063154 806 l 1,53,-1
 375.385063154 699.840820312 l 1,54,55
 384.70270512 699.34375 384.70270512 699.34375 393.620008542 698.6328125 c 128,-1,56
 402.537311964 697.921875 402.537311964 697.921875 411.146175134 696.989257812 c 128,-1,57
 419.756094607 696.056640625 419.756094607 696.056640625 428.089262896 694.89453125 c 128,-1,58
 436.421374882 693.733398438 436.421374882 693.733398438 444.509481054 692.341796875 c 0,59,60
 452.322265625 690.950195312 452.322265625 690.950195312 459.658203125 689.314453125 c 0,61,62
 499.81640625 680.361328125 499.81640625 680.361328125 524.448242188 671.323242188 c 2,63,-1
 532.75390625 668.275390625 l 1,64,-1
 530.65234375 659.842773438 l 1,65,-1
 510.65234375 579.606445312 l 1,66,-1
 508.016601562 569.03125 l 1,67,-1
 497.549804688 572.717773438 l 2,68,69
 472.950195312 581.383789062 472.950195312 581.383789062 434.792556844 591.061523438 c 0,70,71
 421.889825111 594.173828125 421.889825111 594.173828125 406.475206675 596.271484375 c 128,-1,72
 391.06058824 598.368164062 391.06058824 598.368164062 372.928104168 599.442382812 c 128,-1,73
 354.795620096 600.516601562 354.795620096 600.516601562 334.282230799 600.516601562 c 0,74,75
 320.884093319 600.516601562 320.884093319 600.516601562 308.767250445 599.615234375 c 128,-1,76
 296.65040757 598.71484375 296.65040757 598.71484375 286.107455017 596.974609375 c 128,-1,77
 275.565558766 595.233398438 275.565558766 595.233398438 266.307069724 592.651367188 c 128,-1,78
 257.049636985 590.069335938 257.049636985 590.069335938 249.281590389 586.739257812 c 128,-1,79
 241.512487491 583.408203125 241.512487491 583.408203125 235.032073313 579.295898438 c 0,80,81
 224.364477097 572.526367188 224.364477097 572.526367188 217.39182608 563.950195312 c 128,-1,82
 210.419175063 555.374023438 210.419175063 555.374023438 206.910139056 544.504882812 c 128,-1,83
 203.402159352 533.634765625 203.402159352 533.634765625 203.402159352 520.279296875 c 0,84,85
 203.402159352 498.55078125 203.402159352 498.55078125 212.652197976 484.743164062 c 0,86,87
 222.203282735 470.487304688 222.203282735 470.487304688 240.714979308 459.469726562 c 0,88,89
 260.475225115 447.709960938 260.475225115 447.709960938 287.186995895 437.286132812 c 0,90,91
 300.840758514 431.958007812 300.840758514 431.958007812 315.915247632 426.6484375 c 128,-1,92
 330.989736749 421.338867188 330.989736749 421.338867188 347.724732972 415.966796875 c 0,93,94
 369.682087417 408.517578125 369.682087417 408.517578125 390.900030301 400.520507812 c 128,-1,95
 412.117973186 392.5234375 412.117973186 392.5234375 432.910226271 383.861328125 c 0,96,97
 473.337890625 366.188476562 473.337890625 366.188476562 502.366210938 342.349609375 c 0,98,99
 531.858398438 318.12890625 531.858398438 318.12890625 550.271484375 284.154296875 c 0,100,101
 568.9375 249.713867188 568.9375 249.713867188 568.9375 202.268554688 c 0,102,103
 568.9375 166.782226562 568.9375 166.782226562 556.696289062 136.188476562 c 128,-1,104
 544.455078125 105.59375 544.455078125 105.59375 520.192382812 80.5625 c 0,105,106
 474.086914062 32.99609375 474.086914062 32.99609375 375.385063154 19.544921875 c 1,107,-1
 375.385063154 -104 l 1,108,-1
 375.385063154 -114 l 1,109,-1
 364.568528324 -114 l 1,110,-1
 270.4646753 -114 l 1,111,-1
 259.64814047 -114 l 1,112,-1
 259.64814047 -104 l 1,113,-1
 259.64814047 15.69140625 l 1,114,115
 241.099473319 16.341796875 241.099473319 16.341796875 224.290535941 17.6337890625 c 128,-1,116
 207.482654865 18.9267578125 207.482654865 18.9267578125 192.218031346 20.884765625 c 0,117,118
 177.486328125 22.8427734375 177.486328125 22.8427734375 164.846679688 25.484375 c 128,-1,119
 152.208007812 28.1259765625 152.208007812 28.1259765625 141.025390625 31.4560546875 c 0,120,121
 117.446289062 38.478515625 117.446289062 38.478515625 100.0390625 45.2392578125 c 128,-1,122
 82.630859375 52.0009765625 82.630859375 52.0009765625 70.849609375 58.8125 c 2,123,-1
 64 62.7734375 l 1,124,-1
 66.404296875 70.1943359375 l 1,125,-1
 92.404296875 150.430664062 l 1,126,-1
 95.8525390625 161.0703125 l 1,127,-1
 106.181640625 156.333007812 l 2,128,129
 137.62109375 141.912109375 137.62109375 141.912109375 180.033203125 128.401367188 c 0,0,1
EndSplineSet
EndChar

StartChar: percent
Encoding: 37 37 8
Width: 628
VWidth: 1177
Flags: W
LayerCount: 2
Fore
SplineSet
127.60546875 -10 m 1,0,-1
 122 -10 l 1,1,-1
 39 -10 l 1,2,-1
 21.1376953125 -10 l 1,3,-1
 30.474609375 5.2275390625 l 1,4,-1
 497.474609375 734.227539062 l 1,5,-1
 500.401367188 739 l 1,6,-1
 506 739 l 1,7,-1
 588 739 l 1,8,-1
 605.840820312 739 l 1,9,-1
 596.530273438 723.78125 l 1,10,-1
 130.530273438 -5.21875 l 1,11,-1
 127.60546875 -10 l 1,0,-1
29.9951171875 477.044921875 m 128,-1,13
 21 511.849609375 21 511.849609375 21 556.973632812 c 0,14,15
 21 647.889648438 21 647.889648438 57.5 695.294921875 c 0,16,17
 95 744 95 744 161.162079511 744 c 0,18,19
 183.866181073 744 183.866181073 744 203.631361095 738.338867188 c 128,-1,20
 223.395504826 732.827148438 223.395504826 732.827148438 239.953363914 721.841796875 c 128,-1,21
 256.510186712 710.856445312 256.510186712 710.856445312 269.477297162 694.583984375 c 0,22,23
 288.782363938 670.357421875 288.782363938 670.357421875 298.191887065 635.936523438 c 128,-1,24
 307.602446483 601.515625 307.602446483 601.515625 307.602446483 556.899414062 c 0,25,26
 307.602446483 526.922851562 307.602446483 526.922851562 303.507024083 501.669921875 c 128,-1,27
 299.412637973 476.416015625 299.412637973 476.416015625 290.912978426 455.290039062 c 128,-1,28
 282.41435517 434.163085938 282.41435517 434.163085938 269.509422186 417.793945312 c 0,29,30
 250.060310947 393.125 250.060310947 393.125 222.681500263 380.5625 c 128,-1,31
 195.301653287 368 195.301653287 368 161.162079511 368 c 0,32,33
 127.837890625 368 127.837890625 368 101.928710938 380.551757812 c 128,-1,34
 76.0185546875 393.102539062 76.0185546875 393.102539062 57.4384765625 417.758789062 c 128,-1,12
 38.9912109375 442.239257812 38.9912109375 442.239257812 29.9951171875 477.044921875 c 128,-1,13
194.857084408 477.5546875 m 0,35,36
 208.914373089 508.276367188 208.914373089 508.276367188 208.914373089 557 c 128,-1,37
 208.914373089 605.723632812 208.914373089 605.723632812 194.857084408 636.4453125 c 0,38,39
 182.70657134 663 182.70657134 663 161.162079511 663 c 0,40,41
 150.412632 663 150.412632 663 141.870484518 656.780273438 c 0,42,43
 133.771484375 650.560546875 133.771484375 650.560546875 127.149414062 636.2265625 c 0,44,45
 120.165039062 621.109375 120.165039062 621.109375 116.583007812 601.270507812 c 128,-1,46
 113 581.431640625 113 581.431640625 113 557 c 0,47,48
 113 508.338867188 113 508.338867188 126.698242188 477.665039062 c 0,49,50
 138.606445312 451 138.606445312 451 161.162079511 451 c 0,51,52
 171.860748758 451 171.860748758 451 180.094081494 457.141601562 c 128,-1,53
 188.326377939 463.282226562 188.326377939 463.282226562 194.857084408 477.5546875 c 0,35,36
360.040848385 33.8115234375 m 0,54,55
 322.458715596 81.1796875 322.458715596 81.1796875 322.458715596 172.012695312 c 0,56,57
 322.458715596 217.12109375 322.458715596 217.12109375 331.720049097 251.76953125 c 128,-1,58
 340.981382597 286.41796875 340.981382597 286.41796875 360.009759652 310.661132812 c 0,59,60
 379.202906991 335.115234375 379.202906991 335.115234375 406.457362744 347.557617188 c 128,-1,61
 433.712854788 360 433.712854788 360 467.837920489 360 c 0,62,63
 534.032226562 360 534.032226562 360 571.53125 310.771484375 c 0,64,65
 590.001953125 286.522460938 590.001953125 286.522460938 599.000976562 251.833007812 c 128,-1,66
 608 217.143554688 608 217.143554688 608 172.012695312 c 0,67,68
 608 81.103515625 608 81.103515625 571.5 33.701171875 c 0,69,70
 534 -15 534 -15 467.837920489 -15 c 0,71,72
 398.769119123 -15 398.769119123 -15 360.040848385 33.8115234375 c 0,54,55
501.850585938 92.779296875 m 0,73,74
 516 123.412109375 516 123.412109375 516 172.022460938 c 128,-1,75
 516 220.659179688 516 220.659179688 501.829101562 251.790039062 c 0,76,77
 489.443359375 279 489.443359375 279 467.837920489 279 c 128,-1,78
 446.332807722 279 446.332807722 279 434.163641413 252.006835938 c 0,79,80
 420.085626911 220.78125 420.085626911 220.78125 420.085626911 172.022460938 c 128,-1,81
 420.085626911 123.2890625 420.085626911 123.2890625 434.142915592 92.560546875 c 0,82,83
 440.67258577 78.28515625 440.67258577 78.28515625 448.906954797 72.142578125 c 128,-1,84
 457.140287533 66 457.140287533 66 467.837920489 66 c 128,-1,85
 478.587368 66 478.587368 66 487.129515482 72.220703125 c 0,86,87
 495.228515625 78.4423828125 495.228515625 78.4423828125 501.850585938 92.779296875 c 0,73,74
EndSplineSet
EndChar

StartChar: ampersand
Encoding: 38 38 9
Width: 588
VWidth: 1177
Flags: W
LayerCount: 2
Fore
SplineSet
327.580081711 339.524401299 m 2
 337.662375221 327.425649087 337.662375221 327.425649087 348.018092839 315.59021002 c 0
 358.373810457 303.754770952 358.373810457 303.754770952 369.371541402 291.757246285 c 0
 377.001000794 283.434199676 377.001000794 283.434199676 385.488029133 273.750722201 c 0
 393.975057472 264.067244726 393.975057472 264.067244726 401.236140513 255.43670369 c 1
 404.424684248 268.359099165 404.424684248 268.359099165 407.19719469 281.077187516 c 0
 409.969705132 293.795275867 409.969705132 293.795275867 412.67993553 307.888473937 c 0
 420.060571782 346.267782448 420.060571782 346.267782448 423.020309171 392.637001542 c 2
 423.695106678 403.20882915 l 1
 434.210543753 401.926458776 l 1
 516.210543753 391.926458776 l 1
 525.952388949 390.738428874 l 1
 524.947432989 380.975999545 l 2
 517.874401316 312.266549007 517.874401316 312.266549007 504.201425001 257.57464375 c 0
 491.405605401 206.391365347 491.405605401 206.391365347 472.487705899 164.076123274 c 1
 497.941585634 127.914481631 497.941585634 127.914481631 521.027544148 90.2231207909 c 0
 545.871029094 49.6623290432 545.871029094 49.6623290432 566.138115486 4.06138466053 c 2
 572.38761978 -10 l 1
 557 -10 l 1
 455 -10 l 1
 448.751712461 -10 l 1
 446.012315544 -4.38423632021 l 2
 437.70665833 12.6423609678 437.70665833 12.6423609678 428.273727409 29.553901135 c 0
 418.840796487 46.4654413022 418.840796487 46.4654413022 408.912905755 62.2239980193 c 1
 372.530920621 21.3053942974 372.530920621 21.3053942974 329.533979584 2.34975362559 c 0
 305.36351698 -8.30604171606 305.36351698 -8.30604171606 280.193550602 -13.653020858 c 0
 255.023584223 -19 255.023584223 -19 229 -19 c 0
 182.036483464 -19 182.036483464 -19 144.718749166 -3.75754514591 c 0
 126.035712135 3.87355448626 126.035712135 3.87355448626 110.126754348 14.6121012403 c 0
 94.2177965608 25.3506479943 94.2177965608 25.3506479943 81.2221102821 39.141988535 c 0
 55.4112286688 66.5331282063 55.4112286688 66.5331282063 41.2058368674 102.309670521 c 0
 27 138.087333742 27 138.087333742 27 178 c 0
 27 235.379339939 27 235.379339939 56.5715864309 294.003713039 c 0
 84.2267352819 348.828832691 84.2267352819 348.828832691 143.208168673 396.813785536 c 1
 115.333290434 435.357780663 115.333290434 435.357780663 97.8707642089 474.418694587 c 0
 78 518.866456634 78 518.866456634 78 565 c 0
 78 613.079872408 78 613.079872408 93.8292994375 649.487261114 c 0
 109.721757425 686.039914486 109.721757425 686.039914486 135.904101096 709.016256891 c 0
 148.87662002 720.40030411 148.87662002 720.40030411 163.968337767 729.137643162 c 0
 179.060055514 737.874982213 179.060055514 737.874982213 196.164213496 743.92722273 c 0
 213.197149458 749.954261609 213.197149458 749.954261609 230.677229599 752.977130804 c 0
 248.157309739 756 248.157309739 756 266 756 c 0
 282.267804881 756 282.267804881 756 298.176038701 753.502012803 c 0
 314.084272521 751.004025607 314.084272521 751.004025607 329.565313661 746.018605579 c 0
 345.252409185 740.966829054 345.252409185 740.966829054 359.053013577 733.195590471 c 0
 372.853617969 725.424351887 372.853617969 725.424351887 384.633075143 714.983469392 c 0
 389.336548476 710.814481665 389.336548476 710.814481665 393.701924219 706.254480844 c 0
 398.067299961 701.694480023 398.067299961 701.694480023 402.073970731 696.769673404 c 0
 406.080641501 691.844866786 406.080641501 691.844866786 409.743981014 686.542649184 c 0
 413.407320528 681.240431582 413.407320528 681.240431582 416.712916414 675.584570278 c 0
 420.0185123 669.928708974 420.0185123 669.928708974 422.975543264 663.909038797 c 0
 427.999787029 653.681113989 427.999787029 653.681113989 431.346834439 642.548079734 c 0
 434.693881849 631.415045479 434.693881849 631.415045479 436.346940925 619.546602942 c 0
 438 607.678160406 438 607.678160406 438 595 c 0
 438 580.697804815 438 580.697804815 435.653403744 566.192503327 c 0
 433.306807487 551.687201839 433.306807487 551.687201839 428.646141088 537.084562869 c 0
 423.985474689 522.4819239 423.985474689 522.4819239 417.081105819 507.788899159 c 0
 410.176736949 493.095874418 410.176736949 493.095874418 401.008952783 478.246646543 c 0
 366.831028705 422.888037122 366.831028705 422.888037122 295.263363739 375.880709017 c 1
 327.580081711 339.524401299 l 2
202.230181966 321.441524152 m 1
 188.39463134 307.540309989 188.39463134 307.540309989 178.234044398 292.736785518 c 0
 168.073457456 277.933261048 168.073457456 277.933261048 160.661573349 260.99181166 c 0
 155.073485388 248.219039177 155.073485388 248.219039177 151.364961687 235.712456259 c 0
 147.656437986 223.205873341 147.656437986 223.205873341 145.828218993 211.064669315 c 0
 144 198.923465289 144 198.923465289 144 187 c 0
 144 144.450382138 144 144.450382138 165.372280535 117.166619753 c 0
 186.648364134 90.0056619674 186.648364134 90.0056619674 217.624296443 83.2717636392 c 0
 249.016036351 76.447472355 249.016036351 76.447472355 286.088593597 92.2033091846 c 0
 320.800524821 106.955879955 320.800524821 106.955879955 350.613925838 146.926668418 c 1
 341.001828481 159.820756788 341.001828481 159.820756788 331.702816581 171.723065789 c 0
 322.403804681 183.625374789 322.403804681 183.625374789 313.063847634 194.976240486 c 0
 303.723890588 206.327106182 303.723890588 206.327106182 294.356393795 217.129485825 c 0
 284.988897002 227.931865467 284.988897002 227.931865467 275.111630583 238.761157565 c 0
 237.299376273 280.217966507 237.299376273 280.217966507 202.230181966 321.441524152 c 1
329 584 m 0
 329 621.659076964 329 621.659076964 309.171161219 640.194730607 c 0
 289.053896287 659 289.053896287 659 264 659 c 0
 250.414677896 659 250.414677896 659 237.838812365 653.750650966 c 0
 225.262946834 648.501301932 225.262946834 648.501301932 213.212794326 637.587956265 c 0
 201.765962116 627.221013886 201.765962116 627.221013886 195.882981058 611.016778956 c 0
 190 594.812544026 190 594.812544026 190 572 c 0
 190 555.808458768 190 555.808458768 192.483194574 540.790938259 c 0
 194.966389148 525.77341775 194.966389148 525.77341775 199.921026317 511.853246655 c 0
 208.926976031 486.550816508 208.926976031 486.550816508 238.306444264 448.271916514 c 1
 287.177957594 479.936051459 287.177957594 479.936051459 307.330936969 514.984711243 c 0
 314.647240307 527.708717047 314.647240307 527.708717047 319.4913302 539.739998978 c 0
 324.335420093 551.77128091 324.335420093 551.77128091 326.667710046 562.75322684 c 0
 329 573.73517277 329 573.73517277 329 584 c 0
EndSplineSet
EndChar

StartChar: quotesingle
Encoding: 39 39 10
Width: 588
VWidth: 1177
Flags: W
LayerCount: 2
Fore
SplineSet
355 800 m 1
 355 747 l 2
 355 720.776231505 355 720.776231505 353.489990544 687.052686991 c 0
 351.980742479 653.346146866 351.980742479 653.346146866 348.965457582 617.169545201 c 0
 345.958775753 581.089363247 345.958775753 581.089363247 342.450371902 546.00496281 c 0
 340.681177413 528.313017916 340.681177413 528.313017916 338.529116034 512.61549609 c 0
 336.377054655 496.917974264 336.377054655 496.917974264 333.83282005 483.179107398 c 2
 332.318170532 475 l 1
 324 475 l 1
 264 475 l 1
 255.681829468 475 l 1
 254.16717995 483.179107398 l 2
 249.09116623 510.589581485 249.09116623 510.589581485 245.549628098 546.00496281 c 0
 242.041183667 581.08940712 242.041183667 581.08940712 239.034542418 617.169545201 c 0
 236.019269532 653.352819825 236.019269532 653.352819825 234.509717651 687.559252249 c 0
 233.755225764 704.66106834 233.755225764 704.66106834 233.377612882 719.76532128 c 0
 233 734.86957422 233 734.86957422 233 748 c 2
 233 800 l 1
 233 810 l 1
 243 810 l 1
 345 810 l 1
 355 810 l 1
 355 800 l 1
EndSplineSet
EndChar

StartChar: parenleft
Encoding: 40 40 11
Width: 588
VWidth: 1177
Flags: W
LayerCount: 2
Fore
SplineSet
455.425794623 745 m 1
 401.551943109 702.872568819 401.551943109 702.872568819 361.456409753 655.773018344 c 0
 321.360876397 608.673467868 321.360876397 608.673467868 293.370853257 554.883945138 c 0
 237 446.553870618 237 446.553870618 237 318 c 0
 237 253.129472822 237 253.129472822 250.248072095 195.230491073 c 0
 263.463934248 137.472278701 263.463934248 137.472278701 290.877545314 84.6031716446 c 0
 304.605589585 58.1276576948 304.605589585 58.1276576948 322.035125196 32.4743294469 c 0
 339.464660807 6.82100119897 339.464660807 6.82100119897 360.613810383 -18.0169535357 c 0
 403.118054912 -67.9347290879 403.118054912 -67.9347290879 461.539536501 -118.434653851 c 2
 468.582028113 -124.522231346 l 1
 463.013523601 -131.981926069 l 1
 410.013523601 -202.981926069 l 1
 404.053659884 -210.965894445 l 1
 396.047724494 -205.035571933 l 2
 259.144698524 -103.625923067 259.144698524 -103.625923067 191.076024606 30.9874992345 c 0
 123 165.615458342 123 165.615458342 123 316 c 0
 123 464.376537133 123 464.376537133 191.069198197 599.498975345 c 0
 259.161190407 734.666661374 259.161190407 734.666661374 396.125413874 834.092542113 c 2
 404.258567258 839.996609014 l 1
 410.121847525 831.834003152 l 1
 461.121847525 760.834003152 l 1
 472.495568099 745 l 1
 455.425794623 745 l 1
EndSplineSet
Substitution2: "'case' Case-Sensitive Forms lookup 17 subtable" Parenleft
EndChar

StartChar: parenright
Encoding: 41 41 12
Width: 588
VWidth: 1177
Flags: W
LayerCount: 2
Fore
SplineSet
131.574325677 -116 m 1
 238.04995404 -32.755215633 238.04995404 -32.755215633 294.662120837 74.1788772042 c 0
 352 182.483760069 352 182.483760069 352 311 c 0
 352 332.648325291 352 332.648325291 350.52466205 353.517127547 c 0
 349.0493241 374.385929802 349.0493241 374.385929802 346.106533846 394.437085084 c 0
 343.163743592 414.488240367 343.163743592 414.488240367 338.751927905 433.769508927 c 0
 332.146458395 462.637857154 332.146458395 462.637857154 321.876443521 490.269084366 c 0
 311.606428647 517.900311577 311.606428647 517.900311577 297.656152472 544.332413804 c 0
 283.672592193 570.827580649 283.672592193 570.827580649 266.109232078 596.497104784 c 0
 248.545871964 622.166628919 248.545871964 622.166628919 227.386189617 647.016953536 c 0
 184.881945088 696.934729088 184.881945088 696.934729088 126.460463499 747.434653851 c 2
 119.417971887 753.522231346 l 1
 124.986476399 760.981926069 l 1
 177.986476399 831.981926069 l 1
 183.946340116 839.965894445 l 1
 191.952275506 834.035571933 l 2
 260.30932924 783.400717316 260.30932924 783.400717316 311.591981904 724.374800529 c 0
 362.874634569 665.348883742 362.874634569 665.348883742 396.923975394 598.012500766 c 0
 465 463.384541658 465 463.384541658 465 313 c 0
 465 238.777416615 465 238.777416615 447.205460485 167.090843142 c 0
 429.42784279 95.4724404255 429.42784279 95.4724404255 395.403122425 28.9464946376 c 0
 378.377942351 -4.34154401537 378.377942351 -4.34154401537 357.165395438 -35.7157957503 c 0
 335.952848526 -67.0900474851 335.952848526 -67.0900474851 310.574099616 -96.5293962207 c 0
 259.826891719 -155.396157381 259.826891719 -155.396157381 191.903186023 -205.071703338 c 2
 183.837005574 -210.970850233 l 1
 177.932339063 -202.908709419 l 1
 125.932339063 -131.908709419 l 1
 114.280889911 -116 l 1
 131.574325677 -116 l 1
EndSplineSet
Substitution2: "'case' Case-Sensitive Forms lookup 17 subtable" Parenright
EndChar

StartChar: asterisk
Encoding: 42 42 13
Width: 588
VWidth: 1177
Flags: W
LayerCount: 2
Fore
SplineSet
360.888765178 483.646864671 m 1
 385.528750682 460.990035896 385.528750682 460.990035896 410.909812441 436.728726861 c 0
 422.315947406 425.825803732 422.315947406 425.825803732 432.921348225 414.02660044 c 0
 443.526749044 402.227397148 443.526749044 402.227397148 452.828685705 390.164703009 c 0
 462.130622366 378.102008869 462.130622366 378.102008869 470.119175355 365.8588414 c 2
 473.808688094 361.246950476 l 1
 480.279194474 353.158817502 l 1
 471.96864313 346.976578087 l 1
 389.96864313 285.976578087 l 1
 381.97656259 280.031249881 l 1
 376 288 l 1
 369.930241989 296.093010682 l 2
 344.36401213 331.885732483 344.36401213 331.885732483 323.99155512 374.158580781 c 0
 316.521693878 389.658542857 316.521693878 389.658542857 309.413545396 404.938131652 c 0
 302.305396914 420.217720448 302.305396914 420.217720448 295.564903599 435.247082379 c 1
 281.057779189 405.385949471 281.057779189 405.385949471 266.00844488 374.158580781 c 0
 255.788666858 352.952541385 255.788666858 352.952541385 243.76448041 333.381262665 c 0
 231.740293961 313.809983946 231.740293961 313.809983946 217.917822556 295.891965457 c 2
 217.525382533 295.383246909 l 1
 217.071067812 294.928932188 l 1
 211.071067812 288.928932188 l 1
 205.05997958 282.917843956 l 1
 198.159560801 287.882779419 l 1
 116.159560801 346.882779419 l 1
 107.32196718 353.241535805 l 1
 114.407433976 361.507913735 l 1
 120.094030817 368.142276716 l 1
 146.758309028 405.911937096 146.758309028 405.911937096 180.095242533 437.733555441 c 0
 204.914495798 461.42466083 204.914495798 461.42466083 229.484404043 483.994692823 c 1
 211.992216838 486.408465713 211.992216838 486.408465713 195.304568384 488.752261567 c 0
 178.616919931 491.096057422 178.616919931 491.096057422 161.085786438 493.600505063 c 0
 114.693149536 500.228024621 114.693149536 500.228024621 71.6621004539 514.571707648 c 2
 63.4887655841 517.636708224 l 1
 54.4658425827 521.02030435 l 1
 57.5131670195 530.16227766 l 1
 89.5131670195 626.16227766 l 1
 92.7947342459 636.006979339 l 1
 102.511234416 632.363291776 l 1
 110.573487593 629.339946834 l 2
 152.017636065 613.166620601 152.017636065 613.166620601 194.386344006 592.486656011 c 0
 204.924274651 587.343142244 204.924274651 587.343142244 215.387397893 582.075255611 c 0
 225.850521136 576.807368978 225.850521136 576.807368978 235.914187105 571.584675129 c 0
 245.977853074 566.361981281 245.977853074 566.361981281 255.792360088 561.112393745 c 1
 249.104640774 594.035227898 249.104640774 594.035227898 243.147882452 628.286588252 c 0
 235 675.13691235 235 675.13691235 235 721 c 2
 235 729 l 1
 235 739 l 1
 245 739 l 1
 346 739 l 1
 356 739 l 1
 356 729 l 1
 356 721 l 2
 356 698.090138698 356 698.090138698 354.091667037 674.935691948 c 0
 352.183334075 651.781245198 352.183334075 651.781245198 348.369676745 628.390813574 c 0
 347.255941859 621.559906272 347.255941859 621.559906272 346.071709493 614.616242915 c 0
 344.887477128 607.672579557 344.887477128 607.672579557 343.680959824 600.888000382 c 0
 342.47444252 594.103421206 342.47444252 594.103421206 341.23288144 587.389258909 c 0
 339.99132036 580.675096612 339.99132036 580.675096612 338.748832889 574.215170213 c 0
 337.506345417 567.755243815 337.506345417 567.755243815 336.264267874 561.548907229 c 1
 366.031964776 577.942273779 366.031964776 577.942273779 396.704939585 592.530639846 c 0
 437.660558946 612.009531981 437.660558946 612.009531981 479.03279019 627.196734983 c 1
 486.527864045 630.94427191 l 1
 496.971034959 636.165857367 l 1
 500.525381006 625.04419393 l 1
 531.525381006 528.04419393 l 1
 534.665530164 518.218565919 l 1
 524.747211279 515.384760524 l 1
 517.852365383 513.414804553 l 2
 475.250928937 500.228645653 475.250928937 500.228645653 429.020571843 493.116283023 c 0
 395.004477391 487.883037723 395.004477391 487.883037723 360.888765178 483.646864671 c 1
EndSplineSet
EndChar

StartChar: plus
Encoding: 43 43 14
Width: 588
VWidth: 1177
Flags: W
LayerCount: 2
Fore
SplineSet
54 361 m 1
 242 361 l 1
 242 568 l 1
 242 578 l 1
 252 578 l 1
 337 578 l 1
 347 578 l 1
 347 568 l 1
 347 361 l 1
 536 361 l 1
 546 361 l 1
 546 351 l 1
 546 269 l 1
 546 259 l 1
 536 259 l 1
 347 259 l 1
 347 51 l 1
 347 41 l 1
 337 41 l 1
 252 41 l 1
 242 41 l 1
 242 51 l 1
 242 259 l 1
 54 259 l 1
 44 259 l 1
 44 269 l 1
 44 351 l 1
 44 361 l 1
 54 361 l 1
EndSplineSet
EndChar

StartChar: comma
Encoding: 44 44 15
Width: 588
VWidth: 1177
Flags: W
LayerCount: 2
Fore
SplineSet
173.683794727 -83.2719378531 m 2
 194.767297553 -78.2520562278 194.767297553 -78.2520562278 215.355927052 -73.7325565683 c 0
 221.789864644 -72.320228804 221.789864644 -72.320228804 227.892781355 -70.4422753166 c 0
 233.995698066 -68.5643218292 233.995698066 -68.5643218292 239.742970246 -66.2336218179 c 0
 245.490242427 -63.9029218065 245.490242427 -63.9029218065 250.926519874 -61.1071219768 c 0
 259.070588395 -56.9187438803 259.070588395 -56.9187438803 266.500819021 -51.6943616717 c 0
 273.931049646 -46.4699794631 273.931049646 -46.4699794631 280.685814721 -40.1810602557 c 0
 289.465030107 -32.0073079992 289.465030107 -32.0073079992 295.964749419 -18.8789367866 c 1
 279.87378371 -15.3722878879 279.87378371 -15.3722878879 267.383065664 -7.36928284588 c 0
 254.892347618 0.633722196145 254.892347618 0.633722196145 246.679497057 12.9529980377 c 0
 228 40.9722436227 228 40.9722436227 228 68 c 0
 228 119.373647119 228 119.373647119 257.711446916 146.842720683 c 0
 272.220566788 160.256812639 272.220566788 160.256812639 289.188799352 167.12840632 c 0
 306.157031917 174 306.157031917 174 325 174 c 0
 336.962825945 174 336.962825945 174 347.688675762 171.759280055 c 0
 358.414525579 169.518560109 358.414525579 169.518560109 367.774775112 165.073270242 c 0
 377.135024645 160.627980375 377.135024645 160.627980375 385.057523043 153.878747317 c 0
 392.98002144 147.129514259 392.98002144 147.129514259 399.198428217 138.225886374 c 0
 423 104.146363139 423 104.146363139 423 57 c 0
 423 39.0667172872 423 39.0667172872 419.463774522 20.3379209195 c 0
 415.927549043 1.60912455182 415.927549043 1.60912455182 408.908874119 -17.8871946827 c 0
 394.798277742 -57.083295728 394.798277742 -57.083295728 366.133862854 -90.9594224147 c 0
 356.561975111 -102.271653384 356.561975111 -102.271653384 345.422360573 -112.480199833 c 0
 334.282746035 -122.688746281 334.282746035 -122.688746281 321.659292024 -131.738057246 c 0
 309.035838012 -140.787368211 309.035838012 -140.787368211 294.892509743 -148.721430411 c 0
 286.298011379 -153.542734371 286.298011379 -153.542734371 277.046723831 -157.686365766 c 0
 267.795436283 -161.829997161 267.795436283 -161.829997161 257.946909992 -165.278453158 c 0
 248.0983837 -168.726909155 248.0983837 -168.726909155 237.60027357 -171.506324936 c 0
 227.10216344 -174.285740718 227.10216344 -174.285740718 216.021872796 -176.385774618 c 0
 204.941582151 -178.485808519 204.941582151 -178.485808519 193.218913015 -179.925434553 c 2
 184.081980698 -181.04751396 l 1
 182.209139266 -172.034464568 l 1
 166.209139266 -95.0344645682 l 1
 164.232570886 -85.5222292437 l 1
 173.683794727 -83.2719378531 l 2
EndSplineSet
EndChar

StartChar: hyphen
Encoding: 45 45 16
Width: 588
VWidth: 1177
Flags: W
LayerCount: 2
Fore
SplineSet
118 355 m 1
 471 355 l 1
 481 355 l 1
 481 345 l 1
 481 253 l 1
 481 243 l 1
 471 243 l 1
 118 243 l 1
 108 243 l 1
 108 253 l 1
 108 345 l 1
 108 355 l 1
 118 355 l 1
EndSplineSet
Substitution2: "'case' Case-Sensitive Forms lookup 17 subtable" Hyphen
EndChar

StartChar: period
Encoding: 46 46 17
Width: 588
VWidth: 1177
Flags: W
LayerCount: 2
Fore
SplineSet
392 75 m 0
 392 55.7695942816 392 55.7695942816 385.450081743 38.4881777262 c 0
 378.900163485 21.2067611708 378.900163485 21.2067611708 366.043047194 6.43475521977 c 0
 357.273722888 -3.64063866402 357.273722888 -3.64063866402 346.384946275 -10.4385402859 c 0
 335.496169661 -17.2364419077 335.496169661 -17.2364419077 322.867953337 -20.6182209539 c 0
 310.239737012 -24 310.239737012 -24 296 -24 c 0
 274.113065877 -24 274.113065877 -24 256.032622053 -16.374096866 c 0
 237.95217823 -8.74819373207 237.95217823 -8.74819373207 224.525906813 6.3563616117 c 0
 211.396591102 21.1268417867 211.396591102 21.1268417867 204.698295551 38.4301570649 c 0
 198 55.7334723431 198 55.7334723431 198 75 c 0
 198 115.801993223 198 115.801993223 224.525906813 145.643638388 c 0
 237.942200252 160.736968507 237.942200252 160.736968507 256.02887128 168.368484253 c 0
 274.115542309 176 274.115542309 176 296 176 c 0
 339.553538022 176 339.553538022 176 366.043047194 145.56524478 c 0
 392 115.742362833 392 115.742362833 392 75 c 0
EndSplineSet
EndChar

StartChar: slash
Encoding: 47 47 18
Width: 588
VWidth: 1177
Flags: W
LayerCount: 2
Fore
SplineSet
181 -204 m 1
 81 -204 l 1
 67.2547497577 -204 l 1
 71.4854742302 -190.922046236 l 1
 400.48547423 826.077953764 l 1
 402.724759591 833 l 1
 410 833 l 1
 508 833 l 1
 521.719548217 833 l 1
 517.519993381 819.938999178 l 1
 190.519993381 -197.061000822 l 1
 188.288869751 -204 l 1
 181 -204 l 1
EndSplineSet
Substitution2: "'case' Case-Sensitive Forms lookup 17 subtable" Slash
Substitution2: "'ss02' Style Set 2 lookup 14 subtable" fraction
Substitution2: "'frac' Diagonal Fractions lookup 12 subtable" fraction
EndChar

StartChar: zero
Encoding: 48 48 19
Width: 628
VWidth: 1177
Flags: W
LayerCount: 2
Fore
SplineSet
376.790940793 438.685546875 m 0,0,1
 399.01532567 412.463867188 399.01532567 412.463867188 399.01532567 378 c 0,2,3
 399.01532567 360.901367188 399.01532567 360.901367188 393.377746348 345.901367188 c 128,-1,4
 387.741218421 330.901367188 387.741218421 330.901367188 376.571199264 318.564453125 c 0,5,6
 368.992745001 310.192382812 368.992745001 310.192382812 359.71523662 304.486328125 c 128,-1,7
 350.437728239 298.78125 350.437728239 298.78125 339.737682591 295.890625 c 128,-1,8
 329.037636943 293 329.037636943 293 317.191570881 293 c 0,9,10
 298.394733297 293 298.394733297 293 282.753131735 299.45703125 c 128,-1,11
 267.110478778 305.915039062 267.110478778 305.915039062 255.658685794 318.564453125 c 0,12,13
 250.068419241 324.73828125 250.068419241 324.73828125 245.846017421 331.62109375 c 128,-1,14
 241.624666996 338.50390625 241.624666996 338.50390625 238.826905232 345.965820312 c 128,-1,15
 236.029143469 353.428710938 236.029143469 353.428710938 234.62132573 361.453125 c 128,-1,16
 233.214559387 369.478515625 233.214559387 369.478515625 233.214559387 378 c 0,17,18
 233.214559387 395.0625 233.214559387 395.0625 238.80482594 410.358398438 c 128,-1,19
 244.395092493 425.655273438 244.395092493 425.655273438 255.438944265 438.685546875 c 0,20,21
 266.844475874 452.142578125 266.844475874 452.142578125 282.556520893 459.071289062 c 128,-1,22
 298.268565912 466 298.268565912 466 317.191570881 466 c 0,23,24
 353.640277029 466 353.640277029 466 376.790940793 438.685546875 c 0,0,1
118.587890625 67 m 0,25,26
 54 167.55859375 54 167.55859375 54 354.658203125 c 128,-1,27
 54 541.74609375 54 541.74609375 118.576171875 642.797851562 c 0,28,29
 185.331933968 746 185.331933968 746 313.961685824 746 c 0,30,31
 443.668066032 746 443.668066032 746 510.423828125 642.79296875 c 0,32,33
 575 541.737304688 575 541.737304688 575 354.640625 c 128,-1,34
 575 167.551757812 575 167.551757812 510.931640625 67 c 0,35,36
 497.939453125 50.8955078125 497.939453125 50.8955078125 482.577148438 37.9345703125 c 128,-1,37
 467.21484375 24.9736328125 467.21484375 24.9736328125 449.160552862 15.2314453125 c 0,38,39
 430.170258621 5.48828125 430.170258621 5.48828125 408.792246618 -1.0439453125 c 128,-1,40
 387.414234614 -7.5751953125 387.414234614 -7.5751953125 363.671635536 -10.853515625 c 0,41,42
 339.927985063 -15 339.927985063 -15 313.961685824 -15 c 0,43,44
 185.347704891 -15 185.347704891 -15 118.587890625 67 c 0,25,26
448.631701239 256.758789062 m 0,45,46
 456 307.754882812 456 307.754882812 456 365.017578125 c 0,47,48
 456 376.48046875 456 376.48046875 455.72265625 387.693359375 c 128,-1,49
 455.4453125 398.905273438 455.4453125 398.905273438 454.883295169 409.856445312 c 128,-1,50
 454.287154274 420.807617188 454.287154274 420.807617188 453.39346863 431.508789062 c 128,-1,51
 452.499782986 442.208984375 452.499782986 442.208984375 451.309603987 452.6484375 c 128,-1,52
 450.118373593 463.087890625 450.118373593 463.087890625 448.631701239 473.276367188 c 0,53,54
 441.27824548 523.639648438 441.27824548 523.639648438 424.053243235 561.0625 c 0,55,56
 407.234079412 597.6015625 407.234079412 597.6015625 380.019774455 619.280273438 c 0,57,58
 354.010368026 640 354.010368026 640 313.961685824 640 c 0,59,60
 274.989631974 640 274.989631974 640 248.980225545 619.280273438 c 0,61,62
 235.436156759 608.491210938 235.436156759 608.491210938 224.423846833 593.971679688 c 128,-1,63
 213.411536907 579.452148438 213.411536907 579.452148438 204.946756765 561.0625 c 0,64,65
 199.234528406 548.651367188 199.234528406 548.651367188 194.602082585 534.797851562 c 128,-1,66
 189.968585369 520.943359375 189.968585369 520.943359375 186.398048372 505.53125 c 128,-1,67
 182.827511375 490.118164062 182.827511375 490.118164062 180.368298761 473.276367188 c 0,68,69
 176.648463691 447.795898438 176.648463691 447.795898438 174.786443367 420.73046875 c 128,-1,70
 173 393.6640625 173 393.6640625 173 365.017578125 c 0,71,72
 173 345.916015625 173 345.916015625 173.76953125 327.509765625 c 128,-1,73
 174.581421366 309.103515625 174.581421366 309.103515625 176.235265505 291.422851562 c 128,-1,74
 177.889109644 273.7421875 177.889109644 273.7421875 180.368298761 256.758789062 c 0,75,76
 187.72175452 206.395507812 187.72175452 206.395507812 204.946756765 168.97265625 c 0,77,78
 221.742789901 132.483398438 221.742789901 132.483398438 248.896113955 111.303710938 c 0,79,80
 274.925496887 91 274.925496887 91 313.961685824 91 c 128,-1,81
 353.053598689 91 353.053598689 91 379.640220905 111.360351562 c 0,82,83
 393.395620061 121.895507812 393.395620061 121.895507812 404.500452736 136.2578125 c 128,-1,84
 415.605285411 150.620117188 415.605285411 150.620117188 424.053243235 168.97265625 c 0,85,86
 441.27824548 206.395507812 441.27824548 206.395507812 448.631701239 256.758789062 c 0,45,46
EndSplineSet
Substitution2: "'ss02' Style Set 2 lookup 15 subtable" zerosuperior
Substitution2: "'sinf' Scientific Inferiors lookup 11 subtable" zero.sinf
Substitution2: "'subs' Subscript lookup 10 subtable" zero.sinf
Substitution2: "'sups' Superscript lookup 9 subtable" zero.sups
Substitution2: "'dnom' Denominators lookup 8 subtable" zeroinferior
Substitution2: "'numr' Numerators lookup 6 subtable" zerosuperior
EndChar

StartChar: one
Encoding: 49 49 20
Width: 628
VWidth: 1177
Flags: W
LayerCount: 2
Fore
SplineSet
88 573.4921875 m 1,0,-1
 97.482421875 577.28515625 l 2,1,2
 156.61328125 600.936523438 156.61328125 600.936523438 212.732647315 636.43359375 c 0,3,4
 273.301339195 671.688476562 273.301339195 671.688476562 325.931327898 725.65234375 c 2,5,-1
 329.197250091 729 l 1,6,-1
 334.105220235 729 l 1,7,-1
 408.544727321 729 l 1,8,-1
 419.491713657 729 l 1,9,-1
 419.491713657 719 l 1,10,-1
 419.491713657 82 l 1,11,-1
 549.196289062 82 l 1,12,-1
 559.196289062 82 l 1,13,-1
 559.196289062 74.173828125 l 1,14,-1
 559.196289062 10 l 1,15,-1
 559.196289062 0 l 1,16,-1
 549.196289062 0 l 1,17,-1
 137.196289062 0 l 1,18,-1
 127.196289062 0 l 1,19,-1
 127.196289062 10 l 1,20,-1
 127.196289062 74.173828125 l 1,21,-1
 127.196289062 82 l 1,22,-1
 137.196289062 82 l 1,23,-1
 292.506672157 82 l 1,24,-1
 292.506672157 562.620117188 l 1,25,26
 284.187390158 556.823242188 284.187390158 556.823242188 275.099467224 551.213867188 c 0,27,28
 254.336540601 538.3984375 254.336540601 538.3984375 229.706890386 526.637695312 c 0,29,30
 205.625976562 515.03125 205.625976562 515.03125 181.935546875 503.943359375 c 0,31,32
 157.84765625 492.66796875 157.84765625 492.66796875 135.228515625 485.470703125 c 2,33,-1
 126.55078125 482.709960938 l 1,34,-1
 122.9921875 491.090820312 l 1,35,-1
 91.9921875 564.090820312 l 1,36,-1
 88 573.4921875 l 1,0,-1
EndSplineSet
Substitution2: "'ss02' Style Set 2 lookup 15 subtable" onesuperior
Substitution2: "'sinf' Scientific Inferiors lookup 11 subtable" one.sinf
Substitution2: "'subs' Subscript lookup 10 subtable" one.sinf
Substitution2: "'sups' Superscript lookup 9 subtable" one.sups
Substitution2: "'dnom' Denominators lookup 8 subtable" oneinferior
Substitution2: "'numr' Numerators lookup 6 subtable" onesuperior
EndChar

StartChar: two
Encoding: 50 50 21
Width: 628
VWidth: 1177
Flags: W
LayerCount: 2
Fore
SplineSet
479.459960938 690.733398438 m 0,0,1
 537.555664062 635.279296875 537.555664062 635.279296875 537.555664062 533 c 0,2,3
 537.555664062 492.947265625 537.555664062 492.947265625 521.747070312 456.060546875 c 0,4,5
 506.345703125 420.125 506.345703125 420.125 481.764648438 384.7890625 c 0,6,7
 457.369140625 349.720703125 457.369140625 349.720703125 424.716611021 316.212890625 c 0,8,9
 408.132051071 299.651367188 408.132051071 299.651367188 391.06076804 283.517578125 c 128,-1,10
 373.989485009 267.3828125 373.989485009 267.3828125 356.642039534 251.873046875 c 0,11,12
 347.056769112 243.026367188 347.056769112 243.026367188 335.828279244 232.288085938 c 128,-1,13
 324.60084747 221.55078125 324.60084747 221.55078125 311.971441603 209.151367188 c 0,14,15
 286.752837428 184.389648438 286.752837428 184.389648438 264.224965417 159.142578125 c 0,16,17
 253.113923945 146.689453125 253.113923945 146.689453125 243.749795097 134.396484375 c 128,-1,18
 234.386724343 122.102539062 234.386724343 122.102539062 226.770566214 109.982421875 c 0,19,20
 216.994838935 94.4267578125 216.994838935 94.4267578125 213.85547506 82 c 1,21,-1
 556.555664062 82 l 1,22,-1
 566.555664062 82 l 1,23,-1
 566.555664062 74.173828125 l 1,24,-1
 566.555664062 10 l 1,25,-1
 566.555664062 0 l 1,26,-1
 556.555664062 0 l 1,27,-1
 94.5556640625 0 l 1,28,-1
 86.083984375 0 l 1,29,-1
 84.69140625 8.3564453125 l 2,30,31
 84.12109375 11.671875 84.12109375 11.671875 83.8388671875 15.1005859375 c 128,-1,32
 83.5556640625 18.529296875 83.5556640625 18.529296875 83.5556640625 22.0654296875 c 2,33,-1
 83.5556640625 34.1826171875 l 2,34,35
 83.5556640625 83.494140625 83.5556640625 83.494140625 100.733398438 126.381835938 c 0,36,37
 117.662109375 168.6484375 117.662109375 168.6484375 144.337890625 205.94140625 c 0,38,39
 170.784179688 242.916015625 170.784179688 242.916015625 205.232011771 276.421875 c 0,40,41
 240.589269349 309.512695312 240.589269349 309.512695312 275.347645919 339.637695312 c 0,42,43
 303.379721124 364.715820312 303.379721124 364.715820312 329.307248048 388.876953125 c 0,44,45
 332.147171418 391.5234375 332.147171418 391.5234375 334.908795858 394.165039062 c 128,-1,46
 337.670420298 396.805664062 337.670420298 396.805664062 340.348455339 399.436523438 c 128,-1,47
 343.027548474 402.068359375 343.027548474 402.068359375 345.626226491 404.693359375 c 128,-1,48
 348.225962601 407.317382812 348.225962601 407.317382812 350.742109313 409.932617188 c 128,-1,49
 353.259314118 412.547851562 353.259314118 412.547851562 355.6971619 415.15625 c 128,-1,50
 358.133951587 417.764648438 358.133951587 417.764648438 360.489268064 420.36328125 c 128,-1,51
 362.84458454 422.961914062 362.84458454 422.961914062 365.120543992 425.553710938 c 128,-1,52
 367.396503444 428.145507812 367.396503444 428.145507812 369.589931591 430.727539062 c 128,-1,53
 371.783359738 433.309570312 371.783359738 433.309570312 373.898488955 435.883789062 c 0,54,55
 392.678593239 458.752929688 392.678593239 458.752929688 404.653039134 483.438476562 c 0,56,57
 416.218002784 507.278320312 416.218002784 507.278320312 416.218002784 532.407226562 c 0,58,59
 416.218002784 539.749023438 416.218002784 539.749023438 415.578914216 546.516601562 c 128,-1,60
 414.939825648 553.283203125 414.939825648 553.283203125 413.681752292 559.381835938 c 128,-1,61
 412.422620843 565.479492188 412.422620843 565.479492188 410.584712164 570.943359375 c 128,-1,62
 408.745745391 576.407226562 408.745745391 576.407226562 406.316362359 581.296875 c 0,63,64
 403.002413032 587.96875 403.002413032 587.96875 398.953088614 593.794921875 c 128,-1,65
 394.903764195 599.62109375 394.903764195 599.62109375 390.167736995 604.57421875 c 128,-1,66
 385.432767889 609.526367188 385.432767889 609.526367188 379.93279707 613.723632812 c 0,67,68
 371.525184886 620.138671875 371.525184886 620.138671875 361.756864262 625.005859375 c 128,-1,69
 351.988543639 629.873046875 351.988543639 629.873046875 340.739949991 633.227539062 c 0,70,71
 336.215541522 634.577148438 336.215541522 634.577148438 331.550406597 635.65625 c 128,-1,72
 326.886329765 636.736328125 326.886329765 636.736328125 322.051899855 637.551757812 c 128,-1,73
 317.217469945 638.366210938 317.217469945 638.366210938 312.233848829 638.91015625 c 128,-1,74
 307.251285808 639.453125 307.251285808 639.453125 302.092021145 639.7265625 c 128,-1,75
 296.932756483 640 296.932756483 640 291.61689396 640 c 0,76,77
 275.639679768 640 275.639679768 640 261.35118305 637.998046875 c 128,-1,78
 247.062686331 635.99609375 247.062686331 635.99609375 234.42904809 632.032226562 c 0,79,80
 221.37640476 627.936523438 221.37640476 627.936523438 209.825196328 623.14453125 c 128,-1,81
 198.273987895 618.353515625 198.273987895 618.353515625 188.230562921 612.88671875 c 0,82,83
 178.66015625 607.298828125 178.66015625 607.298828125 170.438476562 601.736328125 c 128,-1,84
 162.215820312 596.173828125 162.215820312 596.173828125 155.26953125 590.665039062 c 0,85,86
 141.219726562 579.522460938 141.219726562 579.522460938 134.626953125 572.928710938 c 2,87,-1
 126.232421875 564.534179688 l 1,88,-1
 119.385742188 574.233398438 l 1,89,-1
 71.3857421875 642.233398438 l 1,90,-1
 67 648.446289062 l 1,91,-1
 71.8154296875 654.33203125 l 2,92,93
 81.4541015625 666.112304688 81.4541015625 666.112304688 101.234375 682.249023438 c 0,94,95
 111.194335938 690.374023438 111.194335938 690.374023438 123.010742188 697.905273438 c 128,-1,96
 134.828125 705.436523438 134.828125 705.436523438 148.516601562 712.41015625 c 0,97,98
 175.869140625 726.344726562 175.869140625 726.344726562 211.691673535 736.109375 c 0,99,100
 230.333167551 741.0625 230.333167551 741.0625 250.323730976 743.53125 c 128,-1,101
 270.314294402 746 270.314294402 746 291.61689396 746 c 0,102,103
 419.475873148 746 419.475873148 746 479.459960938 690.733398438 c 0,0,1
EndSplineSet
Substitution2: "'ss02' Style Set 2 lookup 15 subtable" twosuperior
Substitution2: "'sinf' Scientific Inferiors lookup 11 subtable" two.sinf
Substitution2: "'subs' Subscript lookup 10 subtable" two.sinf
Substitution2: "'sups' Superscript lookup 9 subtable" two.sups
Substitution2: "'dnom' Denominators lookup 8 subtable" twoinferior
Substitution2: "'numr' Numerators lookup 6 subtable" twosuperior
EndChar

StartChar: three
Encoding: 51 51 22
Width: 628
VWidth: 1177
Flags: W
LayerCount: 2
Fore
SplineSet
209.378654093 94.1591796875 m 0,0,1
 236.150881658 91 236.150881658 91 267.975633044 91 c 0,2,3
 292.562956791 91 292.562956791 91 313.570261036 93.17578125 c 128,-1,4
 334.577565282 95.3515625 334.577565282 95.3515625 351.501293834 99.5869140625 c 128,-1,5
 368.425022385 103.823242188 368.425022385 103.823242188 381.603352981 109.911132812 c 128,-1,6
 394.781683576 115.999023438 394.781683576 115.999023438 404.391655972 123.96875 c 0,7,8
 424.158621806 140.364257812 424.158621806 140.364257812 433.997579754 162.201171875 c 128,-1,9
 443.750976562 184.038085938 443.750976562 184.038085938 443.750976562 212.116210938 c 0,10,11
 443.750976562 247.903320312 443.750976562 247.903320312 427.471491495 272.0546875 c 0,12,13
 410.932585887 296.463867188 410.932585887 296.463867188 383.897448983 311.092773438 c 0,14,15
 356.244263111 326.056640625 356.244263111 326.056640625 319.610815114 332.453125 c 0,16,17
 282.113370701 339 282.113370701 339 240.836604547 339 c 2,18,-1
 213.69757605 339 l 1,19,-1
 202.841964652 339 l 1,20,-1
 202.841964652 349 l 1,21,-1
 202.841964652 428 l 1,22,-1
 202.841964652 438 l 1,23,-1
 213.69757605 438 l 1,24,-1
 250.606654806 438 l 2,25,26
 277.869717144 438 277.869717144 438 307.318743418 442.616210938 c 0,27,28
 335.802001919 447.080078125 335.802001919 447.080078125 359.094921221 459.080078125 c 0,29,30
 370.422285264 464.916015625 370.422285264 464.916015625 379.460853895 472.849609375 c 128,-1,31
 388.499422527 480.783203125 388.499422527 480.783203125 395.430475976 490.994140625 c 0,32,33
 409.098581227 511.1328125 409.098581227 511.1328125 409.098581227 543.763671875 c 0,34,35
 409.098581227 595.928710938 409.098581227 595.928710938 373.628083005 617.385742188 c 0,36,37
 336.244071251 640 336.244071251 640 285.344611282 640 c 0,38,39
 232.209361816 640 232.209361816 640 196.262870478 625.80859375 c 0,40,41
 161.397460938 611.112304688 161.397460938 611.112304688 138.05078125 596.51953125 c 2,42,-1
 128.724609375 590.69140625 l 1,43,-1
 123.806640625 600.528320312 l 1,44,-1
 86.806640625 674.528320312 l 1,45,-1
 83 682.141601562 l 1,46,-1
 89.908203125 687.115234375 l 2,47,48
 103.133789062 696.637695312 103.133789062 696.637695312 122.204101562 706.235351562 c 128,-1,49
 141.275390625 715.833007812 141.275390625 715.833007812 166.5859375 725.803710938 c 0,50,51
 220.321195193 746 220.321195193 746 289.686855841 746 c 0,52,53
 354.512029808 746 354.512029808 746 400.776652566 731.315429688 c 0,54,55
 424.047309384 723.9296875 424.047309384 723.9296875 443.344726562 713.51171875 c 0,56,57
 461.166992188 703.09375 461.166992188 703.09375 475.25390625 689.627929688 c 128,-1,58
 489.258789062 676.241210938 489.258789062 676.241210938 499.74609375 660.592773438 c 128,-1,59
 510.233398438 644.943359375 510.233398438 644.943359375 517.108398438 627.166992188 c 0,60,61
 530.750976562 591.89453125 530.750976562 591.89453125 530.750976562 550.174804688 c 0,62,63
 530.750976562 490.74609375 530.750976562 490.74609375 498.750976562 448.852539062 c 0,64,65
 486.607421875 433.079101562 486.607421875 433.079101562 471.505859375 420.006835938 c 128,-1,66
 456.405273438 406.935546875 456.405273438 406.935546875 438.82853885 397.030273438 c 1,67,68
 484.930664062 378.5078125 484.930664062 378.5078125 519.354492188 339.244140625 c 0,69,70
 562.750976562 289.747070312 562.750976562 289.747070312 562.750976562 209.186523438 c 0,71,72
 562.385742188 161.162109375 562.385742188 161.162109375 546.051757812 120.360351562 c 0,73,74
 529.196289062 78.79296875 529.196289062 78.79296875 494.971679688 48.5283203125 c 128,-1,75
 460.877929688 18.3779296875 460.877929688 18.3779296875 404.841146131 1.6572265625 c 0,76,77
 376.208410949 -6.6572265625 376.208410949 -6.6572265625 342.285685446 -10.7744140625 c 128,-1,78
 308.362959944 -15 308.362959944 -15 269.061194184 -15 c 0,79,80
 239.005780242 -15 239.005780242 -15 206.786664848 -10.90625 c 0,81,82
 198.767930022 -9.8876953125 198.767930022 -9.8876953125 191.055569385 -8.708984375 c 0,83,84
 183.7890625 -7.5302734375 183.7890625 -7.5302734375 176.952148438 -6.1884765625 c 128,-1,85
 170.114257812 -4.8466796875 170.114257812 -4.8466796875 163.545898438 -3.3408203125 c 128,-1,86
 156.9765625 -1.8349609375 156.9765625 -1.8349609375 150.686523438 -0.166015625 c 0,87,88
 125.884765625 6.4140625 125.884765625 6.4140625 106.088867188 13.0126953125 c 2,89,-1
 77.5888671875 22.5126953125 l 1,90,-1
 69 25.3759765625 l 1,91,-1
 70.9970703125 34.2060546875 l 1,92,-1
 89.9970703125 118.206054688 l 1,93,-1
 92.7509765625 130.380859375 l 1,94,-1
 104.032226562 125.037109375 l 2,95,96
 122.403320312 116.334960938 122.403320312 116.334960938 163.240234375 103.54296875 c 0,97,98
 183.111328125 97.318359375 183.111328125 97.318359375 209.378654093 94.1591796875 c 0,0,1
EndSplineSet
Substitution2: "'ss02' Style Set 2 lookup 15 subtable" threesuperior
Substitution2: "'sinf' Scientific Inferiors lookup 11 subtable" three.sinf
Substitution2: "'subs' Subscript lookup 10 subtable" three.sinf
Substitution2: "'sups' Superscript lookup 9 subtable" three.sups
Substitution2: "'dnom' Denominators lookup 8 subtable" threeinferior
Substitution2: "'numr' Numerators lookup 6 subtable" threesuperior
EndChar

StartChar: four
Encoding: 52 52 23
Width: 628
VWidth: 1177
Flags: W
LayerCount: 2
Fore
SplineSet
42 252.645507812 m 1,0,-1
 42.798828125 254.48828125 l 2,1,2
 63.0244140625 301.169921875 63.0244140625 301.169921875 98.30859375 362.063476562 c 128,-1,3
 133.48828125 422.774414062 133.48828125 422.774414062 178.247951601 486.909179688 c 0,4,5
 225.011215157 551.067382812 225.011215157 551.067382812 278.207221799 613.229492188 c 0,6,7
 304.869991289 644.38671875 304.869991289 644.38671875 331.955830112 672.596679688 c 128,-1,8
 359.041668935 700.806640625 359.041668935 700.806640625 386.5578894 726.071289062 c 2,9,-1
 389.690691692 729 l 1,10,-1
 394.12195122 729 l 1,11,-1
 493 729 l 1,12,-1
 503 729 l 1,13,-1
 503 719 l 1,14,-1
 503 276 l 1,15,-1
 579 276 l 1,16,-1
 589 276 l 1,17,-1
 589 266 l 1,18,-1
 589 186 l 1,19,-1
 589 176 l 1,20,-1
 579 176 l 1,21,-1
 503 176 l 1,22,-1
 503 10 l 1,23,-1
 503 0 l 1,24,-1
 493 0 l 1,25,-1
 394.12195122 0 l 1,26,-1
 383.425087108 0 l 1,27,-1
 383.425087108 10 l 1,28,-1
 383.425087108 176 l 1,29,-1
 52 176 l 1,30,-1
 42 176 l 1,31,-1
 42 185.821289062 l 1,32,-1
 42 250.642578125 l 1,33,-1
 42 252.645507812 l 1,0,-1
383.425087108 276 m 1,34,-1
 383.425087108 588.272460938 l 1,35,36
 378.451672066 583.05859375 378.451672066 583.05859375 373.48139087 577.701171875 c 128,-1,37
 368.511109674 572.34375 368.511109674 572.34375 363.533516169 566.833984375 c 128,-1,38
 358.555922664 561.32421875 358.555922664 561.32421875 353.566838387 555.65625 c 128,-1,39
 348.578798726 549.989257812 348.578798726 549.989257812 343.577179061 544.162109375 c 128,-1,40
 338.574514781 538.333984375 338.574514781 538.333984375 333.548868957 532.333984375 c 0,41,42
 299.036857578 491.135742188 299.036857578 491.135742188 266.622434397 445.931640625 c 128,-1,43
 234.222635834 400.747070312 234.222635834 400.747070312 206.082779834 354.088867188 c 0,44,45
 182.554901867 315.078125 182.554901867 315.078125 162.724963251 276 c 1,46,-1
 383.425087108 276 l 1,34,-1
EndSplineSet
Substitution2: "'ss02' Style Set 2 lookup 15 subtable" foursuperior
Substitution2: "'sinf' Scientific Inferiors lookup 11 subtable" four.sinf
Substitution2: "'subs' Subscript lookup 10 subtable" four.sinf
Substitution2: "'sups' Superscript lookup 9 subtable" four.sups
Substitution2: "'dnom' Denominators lookup 8 subtable" fourinferior
Substitution2: "'numr' Numerators lookup 6 subtable" foursuperior
EndChar

StartChar: five
Encoding: 53 53 24
Width: 628
VWidth: 1177
Flags: W
LayerCount: 2
Fore
SplineSet
246.316839707 482.340820312 m 128,-1,1
 245.521290694 473.741210938 245.521290694 473.741210938 245.012905095 467.537109375 c 1,2,3
 301.294807043 464.841796875 301.294807043 464.841796875 346.795318159 456.162109375 c 128,-1,4
 392.295829275 447.482421875 392.295829275 447.482421875 428.357172626 432.368164062 c 0,5,6
 462.624023438 417.254882812 462.624023438 417.254882812 487.126953125 395.473632812 c 0,7,8
 562.482421875 328.490234375 562.482421875 328.490234375 562.482421875 217 c 0,9,10
 562.482421875 207.071289062 562.482421875 207.071289062 561.83984375 197.416015625 c 128,-1,11
 561.197265625 187.760742188 561.197265625 187.760742188 559.907226562 178.360351562 c 128,-1,12
 558.6171875 168.959960938 558.6171875 168.959960938 556.682617188 159.84375 c 128,-1,13
 554.748046875 150.727539062 554.748046875 150.727539062 552.16015625 141.875 c 128,-1,14
 549.572265625 133.021484375 549.572265625 133.021484375 546.336914062 124.463867188 c 0,15,16
 529.985351562 81.212890625 529.985351562 81.212890625 495.704101562 50.095703125 c 0,17,18
 484.29296875 39.73828125 484.29296875 39.73828125 470.857421875 30.9208984375 c 128,-1,19
 457.421875 22.1044921875 457.421875 22.1044921875 442.109109437 14.8994140625 c 0,20,21
 425.466394261 7.693359375 425.466394261 7.693359375 406.688034142 2.00390625 c 0,22,23
 378.508794713 -6.53515625 378.508794713 -6.53515625 345.541371252 -10.767578125 c 128,-1,24
 312.573947792 -15 312.573947792 -15 274.761971185 -15 c 0,25,26
 259.127518662 -15 259.127518662 -15 243.494129707 -13.974609375 c 128,-1,27
 227.859677183 -12.94921875 227.859677183 -12.94921875 212.232669637 -10.8994140625 c 0,28,29
 196.836914062 -8.8662109375 196.836914062 -8.8662109375 183.47265625 -6.3212890625 c 128,-1,30
 170.108398438 -3.775390625 170.108398438 -3.775390625 157.604492188 -0.712890625 c 0,31,32
 132.669921875 5.3935546875 132.669921875 5.3935546875 113.24609375 12.0380859375 c 0,33,34
 93.611328125 18.755859375 93.611328125 18.755859375 85.0107421875 23.0556640625 c 2,35,-1
 78 26.5615234375 l 1,36,-1
 79.7294921875 34.2060546875 l 1,37,-1
 98.7294921875 118.206054688 l 1,38,-1
 101.483398438 130.380859375 l 1,39,-1
 112.763671875 125.037109375 l 2,40,41
 131.217773438 116.295898438 131.217773438 116.295898438 169.645507812 103.487304688 c 0,42,43
 207.916709886 91 207.916709886 91 271.494689679 91 c 0,44,45
 296.315180736 91 296.315180736 91 317.014345022 93.435546875 c 128,-1,46
 337.713509309 95.87109375 337.713509309 95.87109375 354.138193004 100.641601562 c 0,47,48
 365.130170339 103.834960938 365.130170339 103.834960938 374.640597173 107.771484375 c 128,-1,49
 384.151024008 111.708007812 384.151024008 111.708007812 391.987394497 116.254882812 c 128,-1,50
 399.824828555 120.802734375 399.824828555 120.802734375 406.234954089 126.041015625 c 0,51,52
 425.570623945 141.838867188 425.570623945 141.838867188 434.463117655 162.831054688 c 0,53,54
 439.032206638 173.614257812 439.032206638 173.614257812 441.301861174 184.553710938 c 128,-1,55
 443.482421875 195.494140625 443.482421875 195.494140625 443.482421875 206.68359375 c 0,56,57
 443.482421875 243.265625 443.482421875 243.265625 429.749383398 271.814453125 c 0,58,59
 416.403729639 299.37890625 416.403729639 299.37890625 382.304669615 318.021484375 c 0,60,61
 376.517795044 321.184570312 376.517795044 321.184570312 369.993867713 324.131835938 c 128,-1,62
 363.468876813 327.078125 363.468876813 327.078125 356.177053241 329.819335938 c 128,-1,63
 348.886293238 332.560546875 348.886293238 332.560546875 340.826573427 335.078125 c 128,-1,64
 332.767917184 337.596679688 332.767917184 337.596679688 323.978589588 339.883789062 c 128,-1,65
 315.188198425 342.171875 315.188198425 342.171875 305.596940407 344.231445312 c 128,-1,66
 296.004618822 346.291992188 296.004618822 346.291992188 285.713532929 348.09765625 c 0,67,68
 223.594768706 359 223.594768706 359 133.482421875 359 c 2,69,-1
 122.046875 359 l 1,70,-1
 123.572265625 370.028320312 l 2,71,72
 130.549804688 420.4609375 130.549804688 420.4609375 135.032226562 464.081054688 c 128,-1,73
 139.518554688 507.728515625 139.518554688 507.728515625 142.506835938 549.416015625 c 128,-1,74
 145.495117188 591.090820312 145.495117188 591.090820312 146.989257812 632.275390625 c 0,75,76
 148.495117188 673.78125 148.495117188 673.78125 151.502929688 719.63671875 c 2,77,-1
 152.100585938 729 l 1,78,-1
 161.482421875 729 l 1,79,-1
 532.482421875 729 l 1,80,-1
 542.482421875 729 l 1,81,-1
 542.482421875 719 l 1,82,-1
 542.482421875 654.826171875 l 1,83,-1
 542.482421875 647 l 1,84,-1
 532.482421875 647 l 1,85,-1
 259.959228994 647 l 1,86,87
 259.041369638 632.889648438 259.041369638 632.889648438 257.86506321 613.4453125 c 0,88,89
 256.221850343 586.286132812 256.221850343 586.286132812 253.486352935 556.655273438 c 128,-1,90
 250.760427642 527.120117188 250.760427642 527.120117188 248.03343878 500.078125 c 0,91,0
 247.111325151 490.939453125 247.111325151 490.939453125 246.316839707 482.340820312 c 128,-1,1
EndSplineSet
Substitution2: "'ss02' Style Set 2 lookup 15 subtable" fivesuperior
Substitution2: "'sinf' Scientific Inferiors lookup 11 subtable" five.sinf
Substitution2: "'subs' Subscript lookup 10 subtable" five.sinf
Substitution2: "'sups' Superscript lookup 9 subtable" five.sups
Substitution2: "'dnom' Denominators lookup 8 subtable" fiveinferior
Substitution2: "'numr' Numerators lookup 6 subtable" fivesuperior
EndChar

StartChar: six
Encoding: 54 54 25
Width: 628
VWidth: 1177
Flags: W
LayerCount: 2
Fore
SplineSet
125.96484375 67.8330078125 m 0,0,1
 64 149.306640625 64 149.306640625 64 293.745117188 c 0,2,3
 64 346.10546875 64 346.10546875 71.25 392.682617188 c 128,-1,4
 78.4990234375 439.258789062 78.4990234375 439.258789062 93.0546875 480.046875 c 0,5,6
 122.283203125 561.955078125 122.283203125 561.955078125 177.833007812 617.560546875 c 0,7,8
 237.410893654 673.1640625 237.410893654 673.1640625 322.400390625 702.174804688 c 0,9,10
 406.889209981 731.014648438 406.889209981 731.014648438 507.791992188 732.998046875 c 2,11,-1
 517.064453125 733.19140625 l 1,12,-1
 517.954101562 723.958984375 l 1,13,-1
 525.954101562 659.388671875 l 1,14,-1
 526.993164062 651 l 1,15,-1
 516.161132812 650.814453125 l 2,16,17
 485.681640625 650.293945312 485.681640625 650.293945312 457.983398438 646.788085938 c 0,18,19
 428.756357621 643.282226562 428.756357621 643.282226562 401.820113202 636.81640625 c 0,20,21
 348.547592474 624.02734375 348.547592474 624.02734375 306.351243622 595.96484375 c 0,22,23
 295.872927296 588.995117188 295.872927296 588.995117188 286.281887755 581.02734375 c 128,-1,24
 276.690848214 573.059570312 276.690848214 573.059570312 267.955397003 564.0625 c 128,-1,25
 259.221002073 555.06640625 259.221002073 555.06640625 251.348533163 545.034179688 c 128,-1,26
 243.476064254 535.001953125 243.476064254 535.001953125 236.454958546 523.923828125 c 0,27,28
 224.679528061 505.341796875 224.679528061 505.341796875 215.155034279 482.680664062 c 0,29,30
 205.631596779 460.651367188 205.631596779 460.651367188 198.457330198 434.969726562 c 1,31,32
 211.017578125 439.448242188 211.017578125 439.448242188 222.502531091 442.780273438 c 128,-1,33
 233.987484056 446.111328125 233.987484056 446.111328125 247.355787628 449.201171875 c 0,34,35
 285.42313058 458 285.42313058 458 326.775510204 458 c 0,36,37
 349.398955676 458 349.398955676 458 369.84117905 455.874023438 c 128,-1,38
 390.283402423 453.748046875 390.283402423 453.748046875 408.798967634 449.41796875 c 128,-1,39
 427.315589126 445.087890625 427.315589126 445.087890625 443.637256856 438.557617188 c 0,40,41
 489.206054688 419.014648438 489.206054688 419.014648438 516.711914062 386.379882812 c 0,42,43
 544.020507812 353.98046875 544.020507812 353.98046875 556.59765625 311.897460938 c 0,44,45
 562.797851562 291.150390625 562.797851562 291.150390625 565.899414062 269.640625 c 128,-1,46
 569 248.129882812 569 248.129882812 569 225.907226562 c 0,47,48
 569 219.116210938 569 219.116210938 568.624023438 212.282226562 c 128,-1,49
 568.248046875 205.44921875 568.248046875 205.44921875 567.498046875 198.5859375 c 128,-1,50
 566.747070312 191.723632812 566.747070312 191.723632812 565.624023438 184.826171875 c 128,-1,51
 564.500976562 177.928710938 564.500976562 177.928710938 563.004882812 170.999023438 c 128,-1,52
 561.508789062 164.0703125 561.508789062 164.0703125 559.643554688 157.11328125 c 128,-1,53
 557.779296875 150.157226562 557.779296875 150.157226562 555.54296875 143.166992188 c 0,54,55
 551.03515625 129.07421875 551.03515625 129.07421875 544.8984375 115.697265625 c 128,-1,56
 538.760742188 102.3203125 538.760742188 102.3203125 531.013671875 89.6923828125 c 128,-1,57
 523.266601562 77.064453125 523.266601562 77.064453125 513.91796875 65.1962890625 c 0,58,59
 485.53515625 29.1650390625 485.53515625 29.1650390625 440.361726722 7.109375 c 0,60,61
 392.090700733 -15 392.090700733 -15 325.693877551 -15 c 0,62,63
 189.368024554 -15 189.368024554 -15 125.96484375 67.8330078125 c 0,0,1
417.571388712 321.672851562 m 0,64,65
 385.652662628 357 385.652662628 357 315.959183673 357 c 0,66,67
 310.234135842 357 310.234135842 357 304.662248884 356.865234375 c 128,-1,68
 299.090361926 356.731445312 299.090361926 356.731445312 293.689592634 356.462890625 c 128,-1,69
 288.289879624 356.1953125 288.289879624 356.1953125 283.043327487 355.794921875 c 128,-1,70
 277.796775351 355.393554688 277.796775351 355.393554688 272.72134088 354.861328125 c 128,-1,71
 267.646962691 354.328125 267.646962691 354.328125 262.725745376 353.6640625 c 128,-1,72
 257.804528061 352.999023438 257.804528061 352.999023438 253.054428412 352.205078125 c 128,-1,73
 248.304328763 351.411132812 248.304328763 351.411132812 243.708446269 350.486328125 c 0,74,75
 214.149453922 344.534179688 214.149453922 344.534179688 183.528320312 333.0859375 c 0,76,77
 183.26171875 329.01171875 183.26171875 329.01171875 183.130859375 325.125 c 128,-1,78
 183 321.23828125 183 321.23828125 183 317.458984375 c 2,79,-1
 183 294.313476562 l 2,80,81
 183 283.3984375 183 283.3984375 183.399414062 272.81640625 c 128,-1,82
 183.798828125 262.233398438 183.798828125 262.233398438 184.646444515 251.997070312 c 128,-1,83
 185.509426818 241.760742188 185.509426818 241.760742188 186.800203284 231.869140625 c 128,-1,84
 188.092036033 221.977539062 188.092036033 221.977539062 189.812719228 212.419921875 c 0,85,86
 196.585598693 174.791015625 196.585598693 174.791015625 212.633689413 145.711914062 c 0,87,88
 228.11455676 117.66015625 228.11455676 117.66015625 254.897640306 101.739257812 c 0,89,90
 267.97652264 93.9658203125 267.97652264 93.9658203125 285.346022003 89.982421875 c 128,-1,91
 302.715521365 86 302.715521365 86 324.612244898 86 c 0,92,93
 330.533761161 86 330.533761161 86 336.098254145 67 c 0,94,95
 341.661690848 67 341.661690848 67 346.813177615 67 c 0,96,97
 351.963608099 67.76953125 351.963608099 67.76953125 356.749621333 68.904296875 c 128,-1,98
 361.535634566 70.0380859375 361.535634566 70.0380859375 365.95828683 71.544921875 c 128,-1,99
 370.381995376 73.0517578125 370.381995376 73.0517578125 374.42966757 74.8974609375 c 128,-1,100
 378.477339764 76.744140625 378.477339764 76.744140625 382.208127392 78.9521484375 c 0,101,102
 393.989895568 85.92578125 393.989895568 85.92578125 403.698182398 94.7607421875 c 128,-1,103
 413.406469228 103.595703125 413.406469228 103.595703125 421.163803412 114.397460938 c 128,-1,104
 428.966557717 125.26171875 428.966557717 125.26171875 434.500418527 137.447265625 c 128,-1,105
 440.035335619 149.633789062 440.035335619 149.633789062 443.330935108 163.252929688 c 0,106,107
 450 191.145507812 450 191.145507812 450 214.858398438 c 0,108,109
 450 285.690429688 450 285.690429688 417.571388712 321.672851562 c 0,64,65
EndSplineSet
Substitution2: "'ss02' Style Set 2 lookup 15 subtable" sixsuperior
Substitution2: "'sinf' Scientific Inferiors lookup 11 subtable" six.sinf
Substitution2: "'subs' Subscript lookup 10 subtable" six.sinf
Substitution2: "'sups' Superscript lookup 9 subtable" six.sups
Substitution2: "'dnom' Denominators lookup 8 subtable" sixinferior
Substitution2: "'numr' Numerators lookup 6 subtable" sixsuperior
EndChar

StartChar: seven
Encoding: 55 55 26
Width: 628
VWidth: 1177
Flags: W
LayerCount: 2
Fore
SplineSet
182.259765625 0 m 1,0,-1
 183.025390625 10.3798828125 l 2,1,2
 189.08984375 92.642578125 189.08984375 92.642578125 214.91068892 184.0859375 c 0,3,4
 241.054865057 275.243164062 241.054865057 275.243164062 278.098439114 360.565429688 c 128,-1,5
 315.173731276 445.95703125 315.173731276 445.95703125 360.45661157 519.200195312 c 0,6,7
 398.494019564 580.72265625 398.494019564 580.72265625 435.646492446 624 c 1,8,-1
 84 624 l 1,9,-1
 74 624 l 1,10,-1
 74 634 l 1,11,-1
 74 719 l 1,12,-1
 74 729 l 1,13,-1
 84 729 l 1,14,-1
 566 729 l 1,15,-1
 576 729 l 1,16,-1
 576 719 l 1,17,-1
 576 640.219726562 l 1,18,-1
 576 636.633789062 l 1,19,-1
 573.60546875 633.905273438 l 2,20,21
 556.461914062 614.373046875 556.461914062 614.373046875 537.548828125 587.802734375 c 128,-1,22
 518.634765625 561.233398438 518.634765625 561.233398438 498.0859375 527.762695312 c 128,-1,23
 477.526367188 494.275390625 477.526367188 494.275390625 458.051757812 456.514648438 c 0,24,25
 437.13724335 418.75390625 437.13724335 418.75390625 417.243648308 376.731445312 c 128,-1,26
 397.361683239 334.733398438 397.361683239 334.733398438 380.156726175 290.056640625 c 128,-1,27
 362.952826382 245.380859375 362.952826382 245.380859375 348.429106405 198.025390625 c 0,28,29
 319.483164385 103.640625 319.483164385 103.640625 311.980775439 9.287109375 c 2,30,-1
 311.262889011 0 l 1,31,-1
 301.181818182 0 l 1,32,-1
 193 0 l 1,33,-1
 182.259765625 0 l 1,0,-1
EndSplineSet
Substitution2: "'ss02' Style Set 2 lookup 15 subtable" sevensuperior
Substitution2: "'sinf' Scientific Inferiors lookup 11 subtable" seven.sinf
Substitution2: "'subs' Subscript lookup 10 subtable" seven.sinf
Substitution2: "'sups' Superscript lookup 9 subtable" seven.sups
Substitution2: "'dnom' Denominators lookup 8 subtable" seveninferior
Substitution2: "'numr' Numerators lookup 6 subtable" sevensuperior
EndChar

StartChar: eight
Encoding: 56 56 27
Width: 628
VWidth: 1177
Flags: W
LayerCount: 2
Fore
SplineSet
457.223632812 377.0703125 m 1,0,1
 569 317.18359375 569 317.18359375 569 194.494140625 c 0,2,3
 569 100.71484375 569 100.71484375 507.447265625 42.7880859375 c 128,-1,4
 445.803346197 -15 445.803346197 -15 312.879518072 -15 c 0,5,6
 237.337208208 -15 237.337208208 -15 186.791043079 3.2333984375 c 0,7,8
 162.853515625 12.365234375 162.853515625 12.365234375 144.032226562 24.4189453125 c 128,-1,9
 125.209960938 36.47265625 125.209960938 36.47265625 111.118164062 51.4970703125 c 0,10,11
 83.109375 81.3583984375 83.109375 81.3583984375 71.4482421875 118.024414062 c 0,12,13
 60 154.018554688 60 154.018554688 60 188.618164062 c 0,14,15
 60 252.096679688 60 252.096679688 95.8115234375 301.865234375 c 0,16,17
 126.072265625 343.918945312 126.072265625 343.918945312 167.211914062 371.55078125 c 1,18,19
 75.9755859375 430.028320312 75.9755859375 430.028320312 75 540.280273438 c 0,20,21
 75 581.275390625 75 581.275390625 91.2958984375 618.661132812 c 128,-1,22
 107.590820312 656.046875 107.590820312 656.046875 137.556640625 684.215820312 c 128,-1,23
 167.442382812 712.310546875 167.442382812 712.310546875 212.114238203 729.09375 c 0,24,25
 235.017260448 737.508789062 235.017260448 737.508789062 260.502925766 741.69921875 c 128,-1,26
 285.988591083 746 285.988591083 746 313.959839357 746 c 0,27,28
 379.916407819 746 379.916407819 746 427.328164219 727.672851562 c 0,29,30
 472.84375 709.338867188 472.84375 709.338867188 500.266601562 681.076171875 c 128,-1,31
 527.754882812 652.747070312 527.754882812 652.747070312 539.958007812 618.108398438 c 0,32,33
 545.959960938 601.071289062 545.959960938 601.071289062 548.98046875 584.311523438 c 128,-1,34
 552 567.552734375 552 567.552734375 552 551.122070312 c 0,35,36
 552 487.666015625 552 487.666015625 518.721679688 440.828125 c 0,37,38
 505.193359375 421.787109375 505.193359375 421.787109375 489.811523438 405.862304688 c 128,-1,39
 474.430664062 389.9375 474.430664062 389.9375 457.223632812 377.0703125 c 1,0,1
199.755953502 259.521484375 m 0,40,41
 174 223.557617188 174 223.557617188 174 172.618164062 c 0,42,43
 174 166.875976562 174 166.875976562 174.706054688 160.908203125 c 128,-1,44
 175.413085938 154.939453125 175.413085938 154.939453125 176.859375 148.6328125 c 128,-1,45
 178.305664062 142.325195312 178.305664062 142.325195312 180.526445626 135.780273438 c 0,46,47
 187.334368725 116.873046875 187.334368725 116.873046875 203.525472986 100.978515625 c 0,48,49
 208.854284325 95.74609375 208.854284325 95.74609375 215.403732116 91.1318359375 c 128,-1,50
 221.953179907 86.517578125 221.953179907 86.517578125 229.940594409 82.4287109375 c 128,-1,51
 237.929063912 78.33984375 237.929063912 78.33984375 247.210964954 74.9033203125 c 0,52,53
 274.988092997 85 274.988092997 85 313.959839357 85 c 0,54,55
 320.363696975 85 320.363696975 85 326.458439226 82.978515625 c 128,-1,56
 332.553181476 80.95703125 332.553181476 80.95703125 338.281838291 76.947265625 c 128,-1,57
 344.009440104 72.9384765625 344.009440104 72.9384765625 349.409991529 67 c 0,58,59
 354.811597954 67.7861328125 354.811597954 67.7861328125 359.871383973 68.828125 c 128,-1,60
 364.931169992 69.8701171875 364.931169992 69.8701171875 369.641750596 71.1552734375 c 128,-1,61
 374.353386201 72.439453125 374.353386201 72.439453125 378.746411427 73.974609375 c 0,62,63
 387.662227033 77.0888671875 387.662227033 77.0888671875 395.455521304 80.904296875 c 128,-1,64
 403.248815575 84.71875 403.248815575 84.71875 409.819363391 89.146484375 c 128,-1,65
 416.388856206 93.57421875 416.388856206 93.57421875 421.91495278 98.689453125 c 0,66,67
 438.728507781 114.252929688 438.728507781 114.252929688 447.088337726 133.370117188 c 0,68,69
 455 152.565429688 455 152.565429688 455 172.618164062 c 0,70,71
 455 234.586914062 455 234.586914062 407.450885574 267.588867188 c 0,72,73
 358.347962161 301.326171875 358.347962161 301.326171875 271.395813724 319.045898438 c 1,74,75
 247.849240713 306.528320312 247.849240713 306.528320312 230.246544773 291.857421875 c 128,-1,76
 212.643848833 277.186523438 212.643848833 277.186523438 199.755953502 259.521484375 c 0,40,41
430.456242941 517.4765625 m 128,-1,78
 437.116465863 538.879882812 437.116465863 538.879882812 437.116465863 566 c 0,79,80
 437.116465863 572.45703125 437.116465863 572.45703125 435.403143825 580.276367188 c 128,-1,81
 433.689821787 588.096679688 433.689821787 588.096679688 430.189327623 597.12109375 c 0,82,83
 423.350809488 614.754882812 423.350809488 614.754882812 409.125172565 629.28515625 c 128,-1,84
 394.949120702 643.764648438 394.949120702 643.764648438 371.036462255 653.909179688 c 128,-1,85
 347.252513962 664 347.252513962 664 313.959839357 664 c 0,86,87
 296.614563724 664 296.614563724 664 282.331956733 661.564453125 c 128,-1,88
 268.050404744 659.12890625 268.050404744 659.12890625 256.868446442 654.403320312 c 0,89,90
 233.958039188 644.721679688 233.958039188 644.721679688 219.210176644 630.16015625 c 0,91,92
 211.861037902 622.903320312 211.861037902 622.903320312 206.674651732 614.977539062 c 128,-1,93
 201.489320564 607.051757812 201.489320564 607.051757812 198.351746831 598.337890625 c 0,94,95
 195.096012958 589.296875 195.096012958 589.296875 193.489246047 580.720703125 c 128,-1,96
 191.883534137 572.143554688 191.883534137 572.143554688 191.883534137 564 c 0,97,98
 191.883534137 519.581054688 191.883534137 519.581054688 226.699630553 480.34765625 c 0,99,100
 260.602095884 442.143554688 260.602095884 442.143554688 340.350695752 423.670898438 c 1,101,102
 362.74309739 436.036132812 362.74309739 436.036132812 380.150618097 450.016601562 c 128,-1,103
 397.559193806 463.997070312 397.559193806 463.997070312 410.678134413 480.036132812 c 128,-1,77
 423.796020018 496.073242188 423.796020018 496.073242188 430.456242941 517.4765625 c 128,-1,78
EndSplineSet
Substitution2: "'ss02' Style Set 2 lookup 15 subtable" eightsuperior
Substitution2: "'sinf' Scientific Inferiors lookup 11 subtable" eight.sinf
Substitution2: "'subs' Subscript lookup 10 subtable" eight.sinf
Substitution2: "'sups' Superscript lookup 9 subtable" eight.sups
Substitution2: "'dnom' Denominators lookup 8 subtable" eightinferior
Substitution2: "'numr' Numerators lookup 6 subtable" eightsuperior
EndChar

StartChar: nine
Encoding: 57 57 28
Width: 628
VWidth: 1177
Flags: W
LayerCount: 2
Fore
SplineSet
551.205078125 563.2109375 m 128,-1,1
 567 506.5703125 567 506.5703125 567 435.16015625 c 0,2,3
 567 218.967773438 567 218.967773438 457.684570312 109.037109375 c 0,4,5
 340.261438038 -1.0068359375 340.261438038 -1.0068359375 111.046875 -2 c 2,6,-1
 101.360351562 -2.044921875 l 1,7,-1
 101.006835938 7.634765625 l 1,8,-1
 98.0068359375 71.87890625 l 1,9,-1
 97.6279296875 80 l 1,10,-1
 108 80 l 2,11,12
 241.644942434 80 241.644942434 80 325.971288272 133.625976562 c 0,13,14
 345.081473779 145.779296875 345.081473779 145.779296875 361.189429403 161.961914062 c 128,-1,15
 377.297385027 178.145507812 377.297385027 178.145507812 390.541399133 198.55078125 c 128,-1,16
 403.786468877 218.95703125 403.786468877 218.95703125 414.111648374 243.662109375 c 0,17,18
 424.435772236 267.838867188 424.435772236 267.838867188 431.86956367 296.28515625 c 1,19,20
 408.508330434 288.112304688 408.508330434 288.112304688 381.735280396 282.728515625 c 0,21,22
 362.513197432 278.862304688 362.513197432 278.862304688 342.611284634 276.931640625 c 128,-1,23
 322.709371837 275 322.709371837 275 302.149797571 275 c 0,24,25
 232.903217516 275 232.903217516 275 184.375612823 293.912109375 c 0,26,27
 138.818359375 312.966796875 138.818359375 312.966796875 111.77734375 345.158203125 c 0,28,29
 85 377.034179688 85 377.034179688 72.421875 418.088867188 c 0,30,31
 60 458.633789062 60 458.633789062 60 504.134765625 c 0,32,33
 60 544.784179688 60 544.784179688 73.447265625 587.326171875 c 0,34,35
 87.001953125 630.208007812 87.001953125 630.208007812 115.168945312 664.939453125 c 128,-1,36
 143.470703125 699.838867188 143.470703125 699.838867188 188.454591821 722.830078125 c 0,37,38
 236.768957964 746 236.768957964 746 303.230769231 746 c 0,39,40
 347.825072748 746 347.825072748 746 385.559851025 736.42578125 c 0,41,42
 423.294629302 727.103515625 423.294629302 727.103515625 453.556640625 708.328125 c 0,43,44
 482.041992188 689.553710938 482.041992188 689.553710938 503.517578125 661.505859375 c 0,45,0
 535.41015625 619.8515625 535.41015625 619.8515625 551.205078125 563.2109375 c 128,-1,1
211.361901411 407.390625 m 0,46,47
 243.265344288 375 243.265344288 375 312.95951417 375 c 0,48,49
 352.885793586 375 352.885793586 375 386.892064145 381.532226562 c 0,50,51
 402.179790296 384.46875 402.179790296 384.46875 417.150825531 388.6171875 c 128,-1,52
 432.12080513 392.765625 432.12080513 392.765625 446.472181807 397.989257812 c 1,53,54
 447.154296875 406.3046875 447.154296875 406.3046875 447.51171875 413.538085938 c 0,55,56
 448 423.430664062 448 423.430664062 448 434.76953125 c 0,57,58
 448 478.35546875 448 478.35546875 441.187666055 517.130859375 c 0,59,60
 434.433704453 555.123046875 434.433704453 555.123046875 417.937274639 583.62890625 c 0,61,62
 401.967607382 611.220703125 401.967607382 611.220703125 374.134698412 627.178710938 c 0,63,64
 360.449428296 635.024414062 360.449428296 635.024414062 343.059930099 639.01171875 c 128,-1,65
 325.671487538 643 325.671487538 643 304.311740891 643 c 0,66,67
 269.544356497 643 269.544356497 643 246.751055636 630.458007812 c 0,68,69
 238.877063828 626.124023438 238.877063828 626.124023438 231.932032041 621.072265625 c 128,-1,70
 224.987000253 616.020507812 224.987000253 616.020507812 218.95509394 610.243164062 c 128,-1,71
 212.92213199 604.46484375 212.92213199 604.46484375 207.753736241 597.922851562 c 0,72,73
 199.962084071 588.059570312 199.962084071 588.059570312 194.445328315 577.100585938 c 128,-1,74
 188.927516922 566.141601562 188.927516922 566.141601562 185.645543396 553.981445312 c 0,75,76
 182.27278514 541.490234375 182.27278514 541.490234375 180.596434558 529.524414062 c 128,-1,77
 179 517.559570312 179 517.559570312 179 506.108398438 c 0,78,79
 179 483.831054688 179 483.831054688 182.672871331 465.303710938 c 128,-1,80
 186.425658685 446.77734375 186.425658685 446.77734375 193.590262842 432.469726562 c 128,-1,81
 200.753811361 418.162109375 200.753811361 418.162109375 211.361901411 407.390625 c 0,46,47
EndSplineSet
Substitution2: "'ss02' Style Set 2 lookup 15 subtable" ninesuperior
Substitution2: "'sinf' Scientific Inferiors lookup 11 subtable" nine.sinf
Substitution2: "'subs' Subscript lookup 10 subtable" nine.sinf
Substitution2: "'sups' Superscript lookup 9 subtable" nine.sups
Substitution2: "'dnom' Denominators lookup 8 subtable" nineinferior
Substitution2: "'numr' Numerators lookup 6 subtable" ninesuperior
EndChar

StartChar: less
Encoding: 60 60 31
Width: 588
VWidth: 1177
Flags: W
LayerCount: 2
Fore
SplineSet
192.27689245 299.969877658 m 1
 542.816220908 155.243184407 l 1
 551.4357435 151.6844539 l 1
 548.486832981 142.83772234 l 1
 521.486832981 61.8377223398 l 1
 518.060152251 51.5576801508 l 1
 508.087735136 55.7970557084 l 1
 54.087735136 248.797055708 l 1
 48 251.385013597 l 1
 48 258 l 1
 48 342 l 1
 48 348.614986403 l 1
 54.087735136 351.202944292 l 1
 508.087735136 544.202944292 l 1
 518.096871836 548.457929717 l 1
 521.498352693 538.127506374 l 1
 548.498352693 456.127506374 l 1
 551.410834375 447.282191637 l 1
 542.795019179 443.748090498 l 1
 192.27689245 299.969877658 l 1
EndSplineSet
EndChar

StartChar: equal
Encoding: 61 61 32
Width: 588
VWidth: 1177
Flags: W
LayerCount: 2
Fore
SplineSet
54 249 m 1
 536 249 l 1
 546 249 l 1
 546 239 l 1
 546 155 l 1
 546 145 l 1
 536 145 l 1
 54 145 l 1
 44 145 l 1
 44 155 l 1
 44 239 l 1
 44 249 l 1
 54 249 l 1
54 473 m 1
 536 473 l 1
 546 473 l 1
 546 463 l 1
 546 379 l 1
 546 369 l 1
 536 369 l 1
 54 369 l 1
 44 369 l 1
 44 379 l 1
 44 463 l 1
 44 473 l 1
 54 473 l 1
EndSplineSet
EndChar

StartChar: greater
Encoding: 62 62 33
Width: 588
VWidth: 1177
Flags: W
LayerCount: 2
Fore
SplineSet
48.5016473072 456.127506374 m 1
 75.5016473072 538.127506374 l 1
 78.9031281638 548.457929717 l 1
 88.912264864 544.202944292 l 1
 542.912264864 351.202944292 l 1
 549 348.614986403 l 1
 549 342 l 1
 549 258 l 1
 549 251.385013597 l 1
 542.912264864 248.797055708 l 1
 88.912264864 55.7970557084 l 1
 78.9398477492 51.5576801508 l 1
 75.5131670195 61.8377223398 l 1
 48.5131670195 142.83772234 l 1
 45.5642564996 151.6844539 l 1
 54.183779092 155.243184407 l 1
 404.72310755 299.969877658 l 1
 54.204980821 443.748090498 l 1
 45.5891656254 447.282191637 l 1
 48.5016473072 456.127506374 l 1
EndSplineSet
EndChar

StartChar: question
Encoding: 63 63 34
Width: 588
VWidth: 1177
Flags: W
LayerCount: 2
Fore
SplineSet
208.010314598 248.545923391 m 1
 207.010314598 270.545923391 l 1
 207 271 l 2
 207 288.891497376 207 288.891497376 210.069852899 305.284884291 c 0
 213.139705797 321.678271207 213.139705797 321.678271207 219.338419618 336.610110592 c 0
 225.537133438 351.541949977 225.537133438 351.541949977 234.818083031 364.749455167 c 0
 261.293089196 402.425425478 261.293089196 402.425425478 292.872591719 434.514274816 c 0
 323.538875402 465.675175978 323.538875402 465.675175978 349.238859999 497.305926251 c 0
 373 526.550406252 373 526.550406252 373 564 c 0
 373 584.72504028 373 584.72504028 366.675476229 600.703515119 c 0
 360.350952458 616.681989957 360.350952458 616.681989957 347.622553521 628.740473161 c 0
 335.006414756 640.692604622 335.006414756 640.692604622 315.978276881 646.846302311 c 0
 296.950139006 653 296.950139006 653 271 653 c 0
 238.177475248 653 238.177475248 653 205.822746821 645.273497689 c 0
 189.761330344 641.437935545 189.761330344 641.437935545 173.24734028 634.928789188 c 0
 156.733350216 628.419642831 156.733350216 628.419642831 139.770918629 619.211465683 c 2
 129.535835771 613.655277846 l 1
 125.591125881 624.612805317 l 1
 98.5911258813 699.612805317 l 1
 95.7462112174 707.51534605 l 1
 103.038610616 711.682431421 l 2
 139.213250193 732.353654037 139.213250193 732.353654037 185.524017325 744.188627859 c 0
 200.951545803 748.13121847 200.951545803 748.13121847 217.056791716 750.757617434 c 0
 233.162037628 753.384016399 233.162037628 753.384016399 249.886686309 754.692008199 c 0
 266.611334989 756 266.611334989 756 284 756 c 0
 314.904717909 756 314.904717909 756 340.358914765 751.715264947 c 0
 365.813111621 747.430529894 365.813111621 747.430529894 385.982847419 738.672618298 c 0
 405.886028595 730.030447524 405.886028595 730.030447524 421.91757619 718.901242983 c 0
 437.949123785 707.772038442 437.949123785 707.772038442 449.998378554 694.116216371 c 0
 473.964145997 666.955013268 473.964145997 666.955013268 483.591147546 634.330174686 c 0
 493 602.444619147 493 602.444619147 493 572 c 0
 493 553.45621195 493 553.45621195 489.378367478 536.689614777 c 0
 485.756734956 519.923017605 485.756734956 519.923017605 478.476676106 505.093268094 c 0
 464.493555824 476.609134186 464.493555824 476.609134186 443.808688094 450.753049524 c 0
 436.992530037 442.232851952 436.992530037 442.232851952 429.777694623 434.052320032 c 0
 422.562859209 425.871788112 422.562859209 425.871788112 414.951926972 418.033628356 c 0
 407.340994734 410.1954686 407.340994734 410.1954686 399.334242881 402.699786014 c 0
 387.825498718 391.925642542 387.825498718 391.925642542 377.179684241 380.545634201 c 0
 366.533869763 369.165625859 366.533869763 369.165625859 356.746612001 357.176235101 c 0
 347.112346737 345.374260151 347.112346737 345.374260151 339.057185841 332.750503321 c 0
 331.002024946 320.126746491 331.002024946 320.126746491 324.507686814 306.657008143 c 0
 318.258269496 293.695253706 318.258269496 293.695253706 315.129134748 279.324145386 c 0
 312 264.953037067 312 264.953037067 312 249 c 2
 312 239 l 1
 302 239 l 1
 218 239 l 1
 208.444220207 239 l 1
 208.010314598 248.545923391 l 1
269 -24 m 0
 232.053896287 -24 232.053896287 -24 206.171161219 0.194730606751 c 0
 180 24.659076964 180 24.659076964 180 66 c 0
 180 86.2693811117 180 86.2693811117 186.549113332 102.927149319 c 0
 193.098226664 119.584917526 193.098226664 119.584917526 206.171161219 131.805269393 c 0
 232.053896287 156 232.053896287 156 269 156 c 0
 305.012573148 156 305.012573148 156 330.91222646 131.226418571 c 0
 357 106.272896055 357 106.272896055 357 66 c 0
 357 24.659076964 357 24.659076964 330.828838781 0.194730606751 c 0
 304.946103713 -24 304.946103713 -24 269 -24 c 0
EndSplineSet
EndChar

StartChar: at
Encoding: 64 64 35
Width: 588
VWidth: 1177
Flags: W
LayerCount: 2
Fore
SplineSet
554.713906764 64.7152330911 m 2
 547.505110415 61.8317145518 547.505110415 61.8317145518 540.230300562 59.2970285293 c 0
 532.955490708 56.7623425069 532.955490708 56.7623425069 525.613360163 54.5763157053 c 0
 518.271229617 52.3902889038 518.271229617 52.3902889038 510.866333531 50.5543763409 c 0
 503.461437445 48.7184637781 503.461437445 48.7184637781 495.990806827 47.2323879527 c 0
 488.520176209 45.7463121273 488.520176209 45.7463121273 480.990028015 44.6116322624 c 0
 462.395345759 41.8096938403 462.395345759 41.8096938403 445.15425807 40.4048469201 c 0
 427.91317038 39 427.91317038 39 412 39 c 0
 369.099397281 39 369.099397281 39 331.83131802 53.6972706945 c 0
 294.264357103 68.5124102112 294.264357103 68.5124102112 266.237066002 98.1261517518 c 0
 238.20158348 127.748548379 238.20158348 127.748548379 223.002429578 173.870118838 c 0
 208 219.394732731 208 219.394732731 208 283 c 0
 208 339.602875738 208 339.602875738 222.776045653 383.148551334 c 0
 237.552091306 426.69422693 237.552091306 426.69422693 267.428932188 456.571067812 c 0
 297.107643383 486.249779007 297.107643383 486.249779007 335.940154196 501.124889503 c 0
 374.772665009 516 374.772665009 516 422 516 c 0
 431.277778854 516 431.277778854 516 440.554700196 515.484603532 c 0
 444.162085762 515.284193223 444.162085762 515.284193223 447.820838104 515.001882085 c 1
 446.738136606 547.017897842 446.738136606 547.017897842 439.587515195 572.028999118 c 0
 432.436893784 597.040100394 432.436893784 597.040100394 419.312104681 615.759061903 c 0
 391.798343486 655 391.798343486 655 330 655 c 0
 291.688969382 655 291.688969382 655 259.515304356 636.348599985 c 0
 227.397390475 617.729519475 227.397390475 617.729519475 204.236885546 576.135143275 c 0
 180.495251953 533.497107435 180.495251953 533.497107435 166.803084847 465.525277873 c 0
 153 397.002820953 153 397.002820953 153 299 c 0
 153 226.004261183 153 226.004261183 166.800305891 157.988467862 c 0
 173.650851466 124.225064674 173.650851466 124.225064674 184.369818105 94.869784603 c 0
 195.088784744 65.5145045318 195.088784744 65.5145045318 209.640830133 40.5334932813 c 0
 238.49430618 -8.99830726579 238.49430618 -8.99830726579 283.108481452 -39.2208130951 c 0
 327.068233549 -69 327.068233549 -69 389 -69 c 0
 434.532311637 -69 434.532311637 -69 483.126521144 -54.4217371478 c 2
 494.437815817 -51.0283487461 l 1
 495.920834727 -62.7441981358 l 1
 505.920834727 -141.744198136 l 1
 507.026882144 -150.481972733 l 1
 498.49878019 -152.682773237 l 2
 435.269526484 -169 435.269526484 -169 380 -169 c 0
 291.186342628 -169 291.186342628 -169 225.785499905 -129.032818337 c 0
 160.861229459 -89.3568752856 160.861229459 -89.3568752856 119.127925823 -25.4688549057 c 0
 77.7028828746 37.9472602257 77.7028828746 37.9472602257 57.2950395278 120.088829696 c 0
 50.5315091351 147.312039527 50.5315091351 147.312039527 46.021261359 174.826312125 c 0
 41.5110135829 202.340584723 41.5110135829 202.340584723 39.2555067914 230.136268812 c 0
 37 257.931952901 37 257.931952901 37 286 c 0
 37 408.237879096 37 408.237879096 59.3018436462 496.938393598 c 0
 66.756294225 526.586776582 66.756294225 526.586776582 76.017722804 552.636736857 c 0
 85.2791513829 578.686697133 85.2791513829 578.686697133 96.4751616203 601.368026081 c 0
 107.671171858 624.049355029 107.671171858 624.049355029 120.748751143 643.149503722 c 0
 160.164895314 700.71781955 160.164895314 700.71781955 213.389212022 728.373591957 c 0
 266.55701618 756 266.55701618 756 327 756 c 0
 362.883104507 756 362.883104507 756 394.003540561 747.793154535 c 0
 425.123976615 739.586309071 425.123976615 739.586309071 451.390844251 723.096385864 c 0
 477.657711886 706.606462658 477.657711886 706.606462658 498.615393897 681.981186295 c 0
 529.933660824 645.182222656 529.933660824 645.182222656 545.466830412 594.827646684 c 0
 561 544.473070712 561 544.473070712 561 481 c 2
 561 74 l 1
 561 67.2296703857 l 1
 554.713906764 64.7152330911 l 2
322 283 m 0
 322 259.553851381 322 259.553851381 324.938837347 233.104315261 c 0
 327.761979048 207.696039952 327.761979048 207.696039952 337.596880039 186.152923496 c 0
 347.134553117 165.260877704 347.134553117 165.260877704 364.843166117 150.730733705 c 0
 370.278385334 146.271066655 370.278385334 146.271066655 377.116482179 143.254604669 c 0
 383.954579025 140.238142684 383.954579025 140.238142684 392.753739121 138.619071342 c 0
 401.552899218 137 401.552899218 137 412 137 c 0
 413.639475827 137 413.639475827 137 415.407370943 137.055507603 c 0
 417.175266059 137.111015207 417.175266059 137.111015207 419.093266488 137.223981078 c 0
 421.011266917 137.336946949 421.011266917 137.336946949 423.048636074 137.506363121 c 0
 425.086005231 137.675779293 425.086005231 137.675779293 427.27378165 137.905648118 c 0
 429.461558069 138.135516944 429.461558069 138.135516944 431.759652654 138.422778767 c 0
 439.563137781 139.398214408 439.563137781 139.398214408 448 141.074940969 c 1
 448 414.746945104 l 1
 441.524116569 416.521159743 441.524116569 416.521159743 436.453152155 417.054945471 c 0
 427.475134127 418 427.475134127 418 418 418 c 0
 412.14335869 418 412.14335869 418 406.694502304 417.459507693 c 0
 401.245645917 416.919015386 401.245645917 416.919015386 396.167615562 415.829048793 c 0
 391.089585207 414.739082199 391.089585207 414.739082199 386.391320024 413.106370321 c 0
 381.693054841 411.473658442 381.693054841 411.473658442 377.333746964 409.277612413 c 0
 372.974439087 407.081566383 372.974439087 407.081566383 368.96713323 404.341295882 c 0
 364.959827373 401.601025382 364.959827373 401.601025382 361.259610097 398.283560865 c 0
 357.55939282 394.966096348 357.55939282 394.966096348 354.183414411 391.102928175 c 0
 350.807436002 387.239760001 350.807436002 387.239760001 347.706934047 382.786311739 c 0
 334.980881522 364.507072657 334.980881522 364.507072657 328.490440761 339.609870967 c 0
 322 314.712669278 322 314.712669278 322 283 c 0
EndSplineSet
Substitution2: "'case' Case-Sensitive Forms lookup 17 subtable" At
EndChar

StartChar: A
Encoding: 65 65 36
Width: 628
VWidth: 1177
Flags: W
LayerCount: 2
Fore
SplineSet
500.768355208 0 m 1,0,-1
 498.87992871 7.7548828125 l 1,1,-1
 454.273850139 191 l 1,2,-1
 175.304755873 191 l 1,3,-1
 132.748084419 7.8525390625 l 1,4,-1
 130.927734375 -0 l 1,5,-1
 122.887695312 0 l 1,6,-1
 23.8876953125 0 l 1,7,-1
 11 0 l 1,8,-1
 14.201171875 12.1474609375 l 2,9,10
 34.220703125 88.12109375 34.220703125 88.12109375 58.7353515625 176.236328125 c 128,-1,11
 83.27734375 264.452148438 83.27734375 264.452148438 112.319335938 357.513671875 c 0,12,13
 141.938426707 450.546875 141.938426707 450.546875 175.26038301 544.063476562 c 0,14,15
 208.661797695 637.802734375 208.661797695 637.802734375 246.863737007 722.823242188 c 2,16,-1
 249.564290092 729 l 1,17,-1
 256.627830734 729 l 1,18,-1
 383.431026376 729 l 1,19,-1
 390.646260295 729 l 1,20,-1
 393.272514631 722.639648438 l 2,21,22
 429.316694486 637.709960938 429.316694486 637.709960938 462.171187836 544.016601562 c 128,-1,23
 494.973052907 450.477539062 494.973052907 450.477539062 523.483398438 357.421875 c 0,24,25
 551.51171875 264.401367188 551.51171875 264.401367188 576.040039062 176.235351562 c 128,-1,26
 600.5546875 88.119140625 600.5546875 88.119140625 620.57421875 12.1474609375 c 2,27,-1
 623.775390625 0 l 1,28,-1
 610.887695312 0 l 1,29,-1
 508.887695312 0 l 1,30,-1
 500.768355208 0 l 1,0,-1
340.989930751 547.942382812 m 128,-1,32
 328.073299893 583.75 328.073299893 583.75 315.980146819 614.966796875 c 1,33,34
 303.641395108 582.162109375 303.641395108 582.162109375 290.774296748 546.100585938 c 128,-1,35
 277.906166461 510.040039062 277.906166461 510.040039062 264.041194646 469.42578125 c 0,36,37
 232.878029728 378.142578125 232.878029728 378.142578125 203.989232023 281 c 1,38,-1
 425.815366013 281 l 1,39,40
 416.673524296 314.467773438 416.673524296 314.467773438 407.212817121 346.631835938 c 128,-1,41
 397.752109946 378.796875 397.752109946 378.796875 387.884823514 409.971679688 c 128,-1,42
 378.017537083 441.147460938 378.017537083 441.147460938 367.558956453 471.939453125 c 0,43,31
 353.906561609 512.135742188 353.906561609 512.135742188 340.989930751 547.942382812 c 128,-1,32
EndSplineSet
EndChar

StartChar: B
Encoding: 66 66 37
Width: 628
VWidth: 1177
Flags: W
LayerCount: 2
Fore
SplineSet
497.740234375 50.140625 m 0,0,1
 423.438389581 -6 423.438389581 -6 255.344129555 -6 c 0,2,3
 245.479207522 -6 245.479207522 -6 234.286294914 -5.7470703125 c 128,-1,4
 223.094437943 -5.4951171875 223.094437943 -5.4951171875 210.554533306 -4.990234375 c 0,5,6
 185.468390214 -3.9814453125 185.468390214 -3.9814453125 161.169921875 -1.9658203125 c 0,7,8
 153.063476562 -1.2900390625 153.063476562 -1.2900390625 145.012695312 -0.4453125 c 128,-1,9
 136.961914062 0.3994140625 136.961914062 0.3994140625 128.96484375 1.4130859375 c 128,-1,10
 120.967773438 2.4267578125 120.967773438 2.4267578125 113.02734375 3.609375 c 0,11,12
 88.8427734375 7.1142578125 88.8427734375 7.1142578125 71.1787109375 12.169921875 c 2,13,-1
 64 14.2236328125 l 1,14,-1
 64 21.5048828125 l 1,15,-1
 64 708.495117188 l 1,16,-1
 64 715.891601562 l 1,17,-1
 71.3232421875 717.87109375 l 2,18,19
 89.8857421875 722.887695312 89.8857421875 722.887695312 112.962890625 726.380859375 c 0,20,21
 135.823242188 729.9375 135.823242188 729.9375 160.686523438 731.966796875 c 128,-1,22
 185.482113487 733.981445312 185.482113487 733.981445312 210.003491112 734.990234375 c 128,-1,23
 234.566038556 736 234.566038556 736 255.344129555 736 c 0,24,25
 275.132033622 736 275.132033622 736 294.137711127 734.92578125 c 128,-1,26
 313.144444269 733.852539062 313.144444269 733.852539062 331.418565758 731.697265625 c 128,-1,27
 349.692687247 729.541992188 349.692687247 729.541992188 367.182470901 726.305664062 c 0,28,29
 380.444430826 723.852539062 380.444430826 723.852539062 392.829156914 720.58203125 c 128,-1,30
 405.214938639 717.400390625 405.214938639 717.400390625 416.766767618 713.409179688 c 128,-1,31
 428.31754096 709.416992188 428.31754096 709.416992188 439.017471375 704.600585938 c 128,-1,32
 449.716346154 699.784179688 449.716346154 699.784179688 458.876953125 694.159179688 c 0,33,34
 477.1796875 682.799804688 477.1796875 682.799804688 491.583984375 667.61328125 c 128,-1,35
 505.989257812 652.42578125 505.989257812 652.42578125 516.3203125 633.606445312 c 128,-1,36
 526.743164062 614.619140625 526.743164062 614.619140625 531.87109375 591.198242188 c 128,-1,37
 537 567.776367188 537 567.776367188 537 539.971679688 c 0,38,39
 537 531.034179688 537 531.034179688 536.0546875 522.30078125 c 128,-1,40
 535.109375 513.568359375 535.109375 513.568359375 533.216796875 505.041015625 c 128,-1,41
 531.323242188 496.514648438 531.323242188 496.514648438 528.487304688 488.233398438 c 0,42,43
 526.791992188 483.286132812 526.791992188 483.286132812 524.798828125 478.45703125 c 128,-1,44
 522.8046875 473.627929688 522.8046875 473.627929688 520.515625 468.926757812 c 128,-1,45
 518.2265625 464.224609375 518.2265625 464.224609375 515.642578125 459.647460938 c 128,-1,46
 513.05859375 455.0703125 513.05859375 455.0703125 510.181640625 450.623046875 c 128,-1,47
 507.305664062 446.17578125 507.305664062 446.17578125 504.137695312 441.859375 c 0,48,49
 488.3671875 420.373046875 488.3671875 420.373046875 467.842773438 403.984375 c 0,50,51
 464.677734375 401.456054688 464.677734375 401.456054688 460.881835938 398.765625 c 128,-1,52
 457.0859375 396.07421875 457.0859375 396.07421875 453.56640625 393.8125 c 128,-1,53
 449.969698887 391.55078125 449.969698887 391.55078125 446.696170452 389.818359375 c 1,54,55
 471.099609375 380.653320312 471.099609375 380.653320312 490.97265625 367.353515625 c 128,-1,56
 510.844726562 354.0546875 510.844726562 354.0546875 527.895507812 335.822265625 c 0,57,58
 549.458007812 312.764648438 549.458007812 312.764648438 560.229492188 282.87109375 c 128,-1,59
 571 252.977539062 571 252.977539062 571 216.865234375 c 0,60,61
 571 107.076171875 571 107.076171875 497.740234375 50.140625 c 0,0,1
275.882591093 330 m 2,62,-1
 180 330 l 1,63,-1
 180 98.40234375 l 1,64,65
 187.313642618 97.689453125 187.313642618 97.689453125 198.391490859 96.88671875 c 0,66,67
 224.43615179 95 224.43615179 95 262.910931174 95 c 0,68,69
 301.946253479 95 301.946253479 95 337.21400952 100.604492188 c 0,70,71
 371.410294629 106.040039062 371.410294629 106.040039062 397.771646476 120.434570312 c 0,72,73
 410.77708676 127.536132812 410.77708676 127.536132812 421.202551714 136.787109375 c 128,-1,74
 431.628016669 146.038085938 431.628016669 146.038085938 439.631851752 157.578125 c 0,75,76
 447.36861083 168.734375 447.36861083 168.734375 451.3203125 183.51171875 c 0,77,78
 455 198.2890625 455 198.2890625 455 216.81640625 c 0,79,80
 455 249.603515625 455 249.603515625 440.700155776 270.797851562 c 0,81,82
 425.860019452 292.3046875 425.860019452 292.3046875 402.171538936 305.004882812 c 0,83,84
 377.830675133 318.053710938 377.830675133 318.053710938 345.075333692 323.95703125 c 0,85,86
 311.549377689 330 311.549377689 330 275.882591093 330 c 2,62,-1
180 632.002929688 m 1,87,-1
 180 430 l 1,88,-1
 252.101214575 430 l 2,89,90
 282.361031598 430 282.361031598 430 313.183502815 436.095703125 c 0,91,92
 323.320779036 438.099609375 323.320779036 438.099609375 332.74127815 440.875976562 c 128,-1,93
 342.161777265 443.653320312 342.161777265 443.653320312 350.803216726 447.168945312 c 128,-1,94
 359.44360055 450.684570312 359.44360055 450.684570312 367.396765087 454.961914062 c 0,95,96
 390.339966315 467.302734375 390.339966315 467.302734375 403.988289157 488.629882812 c 0,97,98
 410.656744212 499.05078125 410.656744212 499.05078125 414.072783559 512.456054688 c 128,-1,99
 417.489878543 525.862304688 417.489878543 525.862304688 417.489878543 542.459960938 c 0,100,101
 417.489878543 573.370117188 417.489878543 573.370117188 405.338448096 594.63671875 c 128,-1,102
 393.128957648 616.004882812 393.128957648 616.004882812 372.135516827 629.296875 c 0,103,104
 369.065726215 631.240234375 369.065726215 631.240234375 365.874537418 633.025390625 c 128,-1,105
 362.684404257 634.810546875 362.684404257 634.810546875 359.35598273 636.443359375 c 128,-1,106
 356.02861684 638.077148438 356.02861684 638.077148438 352.576685855 639.551757812 c 128,-1,107
 349.124754871 641.025390625 349.124754871 641.025390625 345.531368611 642.346679688 c 128,-1,108
 341.939037987 643.66796875 341.939037987 643.66796875 338.216864088 644.830078125 c 128,-1,109
 334.494690189 645.9921875 334.494690189 645.9921875 330.628949741 647 c 0,110,111
 326.762153656 645.346679688 326.762153656 645.346679688 322.762347387 643.954101562 c 0,112,113
 308.493310349 638.985351562 308.493310349 638.985351562 293.263644199 636.493164062 c 128,-1,114
 278.032922413 634 278.032922413 634 261.829959514 634 c 0,115,116
 228.440180605 634 228.440180605 634 204.237605168 633.525390625 c 0,117,118
 196.905154827 633.381835938 196.905154827 633.381835938 190.54705687 632.971679688 c 128,-1,119
 184.188958913 632.561523438 184.188958913 632.561523438 180 632.002929688 c 1,87,-1
EndSplineSet
EndChar

StartChar: C
Encoding: 67 67 38
Width: 628
VWidth: 1177
Flags: W
LayerCount: 2
Fore
SplineSet
583.998046875 36.435546875 m 1,0,-1
 577.051757812 32.3701171875 l 2,1,2
 534.759765625 7.61328125 534.759765625 7.61328125 486.801757812 -3.7314453125 c 0,3,4
 462.880967325 -9.3720703125 462.880967325 -9.3720703125 435.541363118 -12.185546875 c 128,-1,5
 408.201758912 -15 408.201758912 -15 379.148250494 -15 c 0,6,7
 355.223867898 -15 355.223867898 -15 332.474254408 -12.3662109375 c 128,-1,8
 309.723592016 -9.732421875 309.723592016 -9.732421875 288.10574269 -4.4453125 c 128,-1,9
 266.486844462 0.8427734375 266.486844462 0.8427734375 246.115089507 8.7744140625 c 0,10,11
 184.69879006 32.0322265625 184.69879006 32.0322265625 142.418945312 79.00390625 c 0,12,13
 101.099609375 125.723632812 101.099609375 125.723632812 77.48046875 197.141601562 c 0,14,15
 54 268.138671875 54 268.138671875 54 364.984375 c 0,16,17
 54 457.041015625 54 457.041015625 78.5263671875 527.614257812 c 0,18,19
 103.154296875 598.478515625 103.154296875 598.478515625 145.935546875 646.607421875 c 0,20,21
 167.364257812 670.713867188 167.364257812 670.713867188 193.879820392 689.120117188 c 0,22,23
 220.886922986 707.526367188 220.886922986 707.526367188 251.75503011 720.118164062 c 0,24,25
 313.470266339 746 313.470266339 746 382.370474323 746 c 0,26,27
 406.714417313 746 406.714417313 746 431.313243243 742.912109375 c 128,-1,28
 455.913118073 739.82421875 455.913118073 739.82421875 479.576171875 733.662109375 c 0,29,30
 525.986328125 721.286132812 525.986328125 721.286132812 571.23046875 693.5234375 c 2,31,-1
 578.1015625 689.306640625 l 1,32,-1
 575.438476562 681.696289062 l 1,33,-1
 547.438476562 601.696289062 l 1,34,-1
 543.453125 590.309570312 l 1,35,-1
 533.002929688 596.337890625 l 2,36,37
 494.987304688 618.270507812 494.987304688 618.270507812 459.41959407 629.134765625 c 0,38,39
 421.556366269 640 421.556366269 640 386.666772763 640 c 0,40,41
 376.834374918 640 376.834374918 640 367.429928675 640.439453125 c 128,-1,42
 358.024433532 640.87890625 358.024433532 640.87890625 349.062623505 641.75390625 c 128,-1,43
 340.100813479 642.62890625 340.100813479 642.62890625 331.534439124 643.942382812 c 128,-1,44
 322.96911367 645.255859375 322.96911367 645.255859375 314.825446413 647 c 0,45,46
 306.681779156 643.844726562 306.681779156 643.844726562 298.902080541 639.896484375 c 0,47,48
 259.758144635 620.029296875 259.758144635 620.029296875 232.201417925 583.467773438 c 0,49,50
 204.269184661 546.407226562 204.269184661 546.407226562 188.652097877 493.608398438 c 0,51,52
 180.8063185 467.083007812 180.8063185 467.083007812 176.865597494 437.387695312 c 128,-1,53
 173 407.692382812 173 407.692382812 173 374.83203125 c 0,54,55
 173 301.288085938 173 301.288085938 189.690509853 247.177734375 c 0,56,57
 198.033468298 220.250976562 198.033468298 220.250976562 209.419288504 198.099609375 c 128,-1,58
 220.804059808 175.94921875 220.804059808 175.94921875 235.151976399 158.546875 c 0,59,60
 263.558312909 124.090820312 263.558312909 124.090820312 303.480533346 107.6328125 c 0,61,62
 343.828607584 91 343.828607584 91 390.963071203 91 c 0,63,64
 426.295300924 91 426.295300924 91 465.817382812 99.2587890625 c 0,65,66
 484.013671875 103.329101562 484.013671875 103.329101562 502.815429688 110.921875 c 128,-1,67
 521.6171875 118.515625 521.6171875 118.515625 541.015625 129.668945312 c 2,68,-1
 551.700195312 135.813476562 l 1,69,-1
 555.510742188 124.090820312 l 1,70,-1
 581.510742188 44.0908203125 l 1,71,-1
 583.998046875 36.435546875 l 1,0,-1
EndSplineSet
EndChar

StartChar: D
Encoding: 68 68 39
Width: 628
VWidth: 1177
Flags: W
LayerCount: 2
Fore
SplineSet
555.911132812 534.705078125 m 0,0,1
 582 463.985351562 582 463.985351562 582 364.932617188 c 0,2,3
 582 264.90625 582 264.90625 555.911132812 194.186523438 c 0,4,5
 529.654296875 123.010742188 529.654296875 123.010742188 484.071289062 78.6318359375 c 0,6,7
 461.20133085 56.4228515625 461.20133085 56.4228515625 431.943101986 40.2314453125 c 128,-1,8
 402.683820858 24.041015625 402.683820858 24.041015625 368.943995276 13.9638671875 c 0,9,10
 302.10727804 -6 302.10727804 -6 223.868217054 -6 c 0,11,12
 183.895507812 -6 183.895507812 -6 146.546875 -1.4267578125 c 128,-1,13
 109.19921875 3.025390625 109.19921875 3.025390625 71.63671875 11.9208984375 c 2,14,-1
 64 13.7294921875 l 1,15,-1
 64 21.3818359375 l 1,16,-1
 64 708.739257812 l 1,17,-1
 64 716.390625 l 1,18,-1
 71.63671875 718.19921875 l 2,19,20
 146.80078125 736 146.80078125 736 223.868217054 736 c 0,21,22
 262.927242309 736 262.927242309 736 299.210392442 730.87890625 c 128,-1,23
 335.49249031 725.892578125 335.49249031 725.892578125 368.943995276 715.901367188 c 0,24,25
 402.700657098 705.818359375 402.700657098 705.818359375 431.971513142 689.495117188 c 128,-1,26
 461.242369186 673.170898438 461.242369186 673.170898438 484.111328125 650.70703125 c 0,27,28
 529.6640625 605.853515625 529.6640625 605.853515625 555.911132812 534.705078125 c 0,0,1
180 630.44921875 m 1,29,-1
 180 99.767578125 l 1,30,31
 206.136499213 97.2138671875 206.136499213 97.2138671875 233.392267745 98 c 0,32,33
 288.668801478 98 288.668801478 98 331.514928537 112.778320312 c 0,34,35
 373.551863796 127.27734375 373.551863796 127.27734375 401.912510598 158.538085938 c 0,36,37
 430.681436228 190.250976562 430.681436228 190.250976562 446.78003876 241.353515625 c 0,38,39
 463 293.088867188 463 293.088867188 463 365.017578125 c 0,40,41
 463 504.256835938 463 504.256835938 404.079124273 569.075195312 c 0,42,43
 345.894130027 633 345.894130027 633 230.333333333 633 c 0,44,45
 214.529365007 633 214.529365007 633 198.724344416 632.057617188 c 0,46,47
 188.855150799 631.46875 188.855150799 631.46875 180 630.44921875 c 1,29,-1
EndSplineSet
EndChar

StartChar: E
Encoding: 69 69 40
Width: 628
VWidth: 1177
Flags: W
LayerCount: 2
Fore
SplineSet
107 0 m 1,0,-1
 107 10 l 1,1,-1
 107 719 l 1,2,-1
 107 729 l 1,3,-1
 117 729 l 1,4,-1
 546 729 l 1,5,-1
 556 729 l 1,6,-1
 556 719 l 1,7,-1
 556 654.826171875 l 1,8,-1
 556 647 l 1,9,-1
 546 647 l 1,10,-1
 224 647 l 1,11,-1
 224 433 l 1,12,-1
 507 433 l 1,13,-1
 517 433 l 1,14,-1
 517 423 l 1,15,-1
 517 340 l 1,16,-1
 517 330 l 1,17,-1
 507 330 l 1,18,-1
 224 330 l 1,19,-1
 224 82 l 1,20,-1
 572 82 l 1,21,-1
 582 82 l 1,22,-1
 582 74.173828125 l 1,23,-1
 582 10 l 1,24,-1
 582 0 l 1,25,-1
 572 0 l 1,26,-1
 117 0 l 1,27,-1
 107 0 l 1,0,-1
EndSplineSet
EndChar

StartChar: F
Encoding: 70 70 41
Width: 628
VWidth: 1177
Flags: W
LayerCount: 2
Fore
SplineSet
107 0 m 1,0,-1
 107 10 l 1,1,-1
 107 719 l 1,2,-1
 107 729 l 1,3,-1
 117 729 l 1,4,-1
 551 729 l 1,5,-1
 561 729 l 1,6,-1
 561 719 l 1,7,-1
 561 654.826171875 l 1,8,-1
 561 647 l 1,9,-1
 551 647 l 1,10,-1
 224 647 l 1,11,-1
 224 429 l 1,12,-1
 513 429 l 1,13,-1
 523 429 l 1,14,-1
 523 419 l 1,15,-1
 523 338 l 1,16,-1
 523 328 l 1,17,-1
 513 328 l 1,18,-1
 224 328 l 1,19,-1
 224 10 l 1,20,-1
 224 0 l 1,21,-1
 214 0 l 1,22,-1
 117 0 l 1,23,-1
 107 0 l 1,0,-1
EndSplineSet
EndChar

StartChar: G
Encoding: 71 71 42
Width: 628
VWidth: 1177
Flags: W
LayerCount: 2
Fore
SplineSet
459 379 m 1,0,-1
 469 379 l 1,1,-1
 566 379 l 1,2,-1
 576 379 l 1,3,-1
 576 369 l 1,4,-1
 576 28 l 1,5,-1
 576 20.99609375 l 1,6,-1
 569.416992188 18.6025390625 l 2,7,8
 546.940429688 10.4287109375 546.940429688 10.4287109375 496.948242188 -2.1953125 c 0,9,10
 445.485744073 -15 445.485744073 -15 370.960307527 -15 c 0,11,12
 297.555301351 -15 297.555301351 -15 237.284345736 10.23828125 c 0,13,14
 176.812637588 35.560546875 176.812637588 35.560546875 137.127929688 84.6201171875 c 0,15,16
 97.97265625 133.270507812 97.97265625 133.270507812 75.9287109375 204.134765625 c 0,17,18
 54 274.6328125 54 274.6328125 54 364.663085938 c 0,19,20
 54 455.803710938 54 455.803710938 78.0126953125 525.93359375 c 0,21,22
 90.0380859375 561.052734375 90.0380859375 561.052734375 106.620117188 590.834960938 c 128,-1,23
 123.203125 620.618164062 123.203125 620.618164062 144.36328125 644.986328125 c 0,24,25
 187.739461343 693.815429688 187.739461343 693.815429688 247.972578784 719.54296875 c 0,26,27
 308.27506621 746 308.27506621 746 377.418022528 746 c 0,28,29
 421.501597165 746 421.501597165 746 455.879680213 739.817382812 c 0,30,31
 487.8125 733.641601562 487.8125 733.641601562 510.176757812 724.799804688 c 128,-1,32
 532.392578125 716.016601562 532.392578125 716.016601562 547.557617188 707.126953125 c 0,33,34
 549.671875 705.887695312 549.671875 705.887695312 551.611328125 704.732421875 c 128,-1,35
 553.549804688 703.578125 553.549804688 703.578125 555.362304688 702.479492188 c 128,-1,36
 557.174804688 701.379882812 557.174804688 701.379882812 558.823242188 700.358398438 c 128,-1,37
 560.470703125 699.3359375 560.470703125 699.3359375 561.990234375 698.369140625 c 128,-1,38
 563.509765625 697.40234375 563.509765625 697.40234375 564.876953125 696.504882812 c 128,-1,39
 566.244140625 695.606445312 566.244140625 695.606445312 567.48046875 694.762695312 c 128,-1,40
 568.716796875 693.919921875 568.716796875 693.919921875 569.8125 693.137695312 c 2,41,-1
 576.171875 688.594726562 l 1,42,-1
 573.30078125 681.326171875 l 1,43,-1
 541.30078125 600.326171875 l 1,44,-1
 536.396484375 587.912109375 l 1,45,-1
 525.860351562 596.106445312 l 2,46,47
 517.318359375 602.750976562 517.318359375 602.750976562 507.6484375 608.618164062 c 128,-1,48
 497.978515625 614.484375 497.978515625 614.484375 487.07421875 619.6171875 c 128,-1,49
 476.169921875 624.750976562 476.169921875 624.750976562 464.11328125 629.090820312 c 0,50,51
 426.125211795 642 426.125211795 642 383.875737529 642 c 0,52,53
 338.218725497 642 338.218725497 642 299.749915433 622.9375 c 0,54,55
 261.058280568 603.763671875 261.058280568 603.763671875 233.434311549 567.984375 c 0,56,57
 226.459474839 558.951171875 226.459474839 558.951171875 220.213022975 548.965820312 c 128,-1,58
 213.966571111 538.98046875 213.966571111 538.98046875 208.430636068 528.0078125 c 128,-1,59
 202.893649963 517.03515625 202.893649963 517.03515625 198.081895524 505.057617188 c 128,-1,60
 193.269090025 493.080078125 193.269090025 493.080078125 189.202537398 480.141601562 c 0,61,62
 173 428.344726562 173 428.344726562 173 365.017578125 c 0,63,64
 173 352.484375 173 352.484375 173.53125 340.411132812 c 128,-1,65
 174.067267865 328.338867188 174.067267865 328.338867188 175.207668382 316.76171875 c 128,-1,66
 176.347017838 305.184570312 176.347017838 305.184570312 178.054990962 294.068359375 c 128,-1,67
 179.761913027 282.953125 179.761913027 282.953125 182.031152396 272.330078125 c 128,-1,68
 184.299340705 261.70703125 184.299340705 261.70703125 187.131948441 251.546875 c 0,69,70
 201.209851228 201.052734375 201.209851228 201.052734375 228.15903948 164.805664062 c 0,71,72
 254.732999175 129.0625 254.732999175 129.0625 293.963828018 108.9609375 c 0,73,74
 332.91927904 89 332.91927904 89 382.799451696 89 c 0,75,76
 418.000515025 89 418.000515025 89 437.103537509 93.6708984375 c 0,77,78
 450.505608468 96.947265625 450.505608468 96.947265625 459 100.291015625 c 1,79,-1
 459 369 l 1,80,-1
 459 379 l 1,0,-1
EndSplineSet
EndChar

StartChar: H
Encoding: 72 72 43
Width: 628
VWidth: 1177
Flags: W
LayerCount: 2
Fore
SplineSet
459 729 m 1,0,-1
 469 729 l 1,1,-1
 566 729 l 1,2,-1
 576 729 l 1,3,-1
 576 719 l 1,4,-1
 576 10 l 1,5,-1
 576 0 l 1,6,-1
 566 0 l 1,7,-1
 469 0 l 1,8,-1
 459 0 l 1,9,-1
 459 10 l 1,10,-1
 459 329 l 1,11,-1
 170 329 l 1,12,-1
 170 10 l 1,13,-1
 170 0 l 1,14,-1
 160 0 l 1,15,-1
 63 0 l 1,16,-1
 53 0 l 1,17,-1
 53 10 l 1,18,-1
 53 719 l 1,19,-1
 53 729 l 1,20,-1
 63 729 l 1,21,-1
 160 729 l 1,22,-1
 170 729 l 1,23,-1
 170 719 l 1,24,-1
 170 432 l 1,25,-1
 459 432 l 1,26,-1
 459 719 l 1,27,-1
 459 729 l 1,0,-1
EndSplineSet
EndChar

StartChar: I
Encoding: 73 73 44
Width: 628
VWidth: 1177
Flags: W
LayerCount: 2
Fore
SplineSet
514 647 m 1,0,-1
 380.358490566 647 l 1,1,-1
 380.358490566 82 l 1,2,-1
 514 82 l 1,3,-1
 524 82 l 1,4,-1
 524 74.173828125 l 1,5,-1
 524 10 l 1,6,-1
 524 0 l 1,7,-1
 514 0 l 1,8,-1
 115 0 l 1,9,-1
 105 0 l 1,10,-1
 105 10 l 1,11,-1
 105 74.173828125 l 1,12,-1
 105 82 l 1,13,-1
 115 82 l 1,14,-1
 248.641509434 82 l 1,15,-1
 248.641509434 647 l 1,16,-1
 115 647 l 1,17,-1
 105 647 l 1,18,-1
 105 654.826171875 l 1,19,-1
 105 719 l 1,20,-1
 105 729 l 1,21,-1
 115 729 l 1,22,-1
 514 729 l 1,23,-1
 524 729 l 1,24,-1
 524 719 l 1,25,-1
 524 654.826171875 l 1,26,-1
 524 647 l 1,27,-1
 514 647 l 1,0,-1
EndSplineSet
EndChar

StartChar: J
Encoding: 74 74 45
Width: 628
VWidth: 1177
Flags: W
LayerCount: 2
Fore
SplineSet
152.360351562 647 m 1,0,-1
 152.360351562 654.826171875 l 1,1,-1
 152.360351562 719 l 1,2,-1
 152.360351562 729 l 1,3,-1
 162.360351562 729 l 1,4,-1
 527.360351562 729 l 1,5,-1
 537.360351562 729 l 1,6,-1
 537.360351562 719 l 1,7,-1
 537.360351562 237.493164062 l 2,8,9
 537.360351562 220.259765625 537.360351562 220.259765625 536.053710938 203.727539062 c 128,-1,10
 534.74609375 187.1953125 534.74609375 187.1953125 532.12109375 171.315429688 c 128,-1,11
 529.49609375 155.434570312 529.49609375 155.434570312 525.555664062 140.266601562 c 0,12,13
 513.5078125 93.8994140625 513.5078125 93.8994140625 484.58984375 59.6318359375 c 0,14,15
 454.6484375 25.1123046875 454.6484375 25.1123046875 405.730839121 5.2783203125 c 0,16,17
 379.07844897 -4.94140625 379.07844897 -4.94140625 345.926648164 -9.970703125 c 128,-1,18
 312.774847359 -15 312.774847359 -15 272.986918632 -15 c 0,19,20
 193.14403527 -15 193.14403527 -15 142.513671875 5.76953125 c 0,21,22
 130.224609375 10.8896484375 130.224609375 10.8896484375 119.668945312 15.904296875 c 128,-1,23
 109.114257812 20.9189453125 109.114257812 20.9189453125 100.000976562 25.9833984375 c 128,-1,24
 90.888671875 31.048828125 90.888671875 31.048828125 83.345703125 36.1591796875 c 128,-1,25
 75.8017578125 41.2685546875 75.8017578125 41.2685546875 69.82421875 46.431640625 c 2,26,-1
 64 51.4619140625 l 1,27,-1
 67.3701171875 58.3798828125 l 1,28,-1
 105.370117188 136.379882812 l 1,29,-1
 110.594726562 147.103515625 l 1,30,-1
 120.2421875 140.086914062 l 2,31,32
 141.594726562 124.55859375 141.594726562 124.55859375 178.379882812 105.919921875 c 0,33,34
 216.537641212 88 216.537641212 88 268.611966119 88 c 0,35,36
 345.860425739 88 345.860425739 88 383.081701416 124.790039062 c 0,37,38
 420.360351562 161.916015625 420.360351562 161.916015625 420.360351562 254 c 2,39,-1
 420.360351562 647 l 1,40,-1
 162.360351562 647 l 1,41,-1
 152.360351562 647 l 1,0,-1
EndSplineSet
EndChar

StartChar: K
Encoding: 75 75 46
Width: 628
VWidth: 1177
Flags: W
LayerCount: 2
Fore
SplineSet
602.805664062 729 m 1,0,-1
 592.291015625 713.825195312 l 2,1,2
 572.872070312 685.799804688 572.872070312 685.799804688 552.2265625 657.88671875 c 128,-1,3
 531.58203125 629.97265625 531.58203125 629.97265625 509.717773438 602.177734375 c 0,4,5
 486.810675735 574.3828125 486.810675735 574.3828125 462.11660906 546.69921875 c 0,6,7
 448.013919908 530.888671875 448.013919908 530.888671875 433.393202628 515.022460938 c 128,-1,8
 418.771440936 499.15625 418.771440936 499.15625 403.753847266 483.364257812 c 128,-1,9
 388.737298009 467.572265625 388.737298009 467.572265625 373.272696196 451.793945312 c 128,-1,10
 357.809138795 436.015625 357.809138795 436.015625 341.993614702 420.34765625 c 128,-1,11
 326.178090609 404.6796875 326.178090609 404.6796875 309.98762277 389.094726562 c 1,12,13
 322.826573947 379.016601562 322.826573947 379.016601562 335.553773088 368.422851562 c 128,-1,14
 348.28097223 357.828125 348.28097223 357.828125 361.13558958 346.53125 c 128,-1,15
 373.990206931 335.234375 373.990206931 335.234375 387.62604412 322.676757812 c 0,16,17
 398.948509727 312.25 398.948509727 312.25 410.199955349 301.366210938 c 128,-1,18
 421.452445383 290.482421875 421.452445383 290.482421875 432.630782197 279.14453125 c 128,-1,19
 443.80911901 267.806640625 443.80911901 267.806640625 454.914347015 256.015625 c 128,-1,20
 466.019575021 244.224609375 466.019575021 244.224609375 477.055871863 231.9765625 c 0,21,22
 520.112304688 182.861328125 520.112304688 182.861328125 556.43359375 127.37890625 c 0,23,24
 592.920898438 71.642578125 592.920898438 71.642578125 617.262695312 13.400390625 c 2,25,-1
 622.86328125 0 l 1,26,-1
 608 0 l 1,27,-1
 498.73158916 0 l 1,28,-1
 492.335612832 0 l 1,29,-1
 489.309952573 5.2685546875 l 2,30,31
 458.5300998 58.859375 458.5300998 58.859375 421.907808819 110.471679688 c 128,-1,32
 385.38787017 161.939453125 385.38787017 161.939453125 344.659997388 205.95703125 c 128,-1,33
 303.872593148 250.038085938 303.872593148 250.038085938 260.993232574 287.162109375 c 0,34,35
 226.928705478 316.654296875 226.928705478 316.654296875 192 340.046875 c 1,36,-1
 192 10 l 1,37,-1
 192 0 l 1,38,-1
 182 0 l 1,39,-1
 85 0 l 1,40,-1
 75 0 l 1,41,-1
 75 10 l 1,42,-1
 75 719 l 1,43,-1
 75 729 l 1,44,-1
 85 729 l 1,45,-1
 182 729 l 1,46,-1
 192 729 l 1,47,-1
 192 719 l 1,48,-1
 192 418.765625 l 1,49,50
 263.888341389 489.348632812 263.888341389 489.348632812 330.015258642 565.3125 c 0,51,52
 404.670840607 651.073242188 404.670840607 651.073242188 461.160972493 724.823242188 c 2,53,-1
 464.36104948 729 l 1,54,-1
 469.855698642 729 l 1,55,-1
 584 729 l 1,56,-1
 602.805664062 729 l 1,0,-1
EndSplineSet
EndChar

StartChar: L
Encoding: 76 76 47
Width: 628
VWidth: 1177
Flags: W
LayerCount: 2
Fore
SplineSet
582 82 m 1,0,-1
 582 74.173828125 l 1,1,-1
 582 10 l 1,2,-1
 582 0 l 1,3,-1
 572 0 l 1,4,-1
 117 0 l 1,5,-1
 107 0 l 1,6,-1
 107 10 l 1,7,-1
 107 719 l 1,8,-1
 107 729 l 1,9,-1
 117 729 l 1,10,-1
 214 729 l 1,11,-1
 224 729 l 1,12,-1
 224 719 l 1,13,-1
 224 82 l 1,14,-1
 572 82 l 1,15,-1
 582 82 l 1,0,-1
EndSplineSet
EndChar

StartChar: M
Encoding: 77 77 48
Width: 628
VWidth: 1177
Flags: W
LayerCount: 2
Fore
SplineSet
203.912923039 722.020507812 m 1,0,-1
 316.468893505 389.375976562 l 1,1,-1
 427.050417406 721.97265625 l 1,2,-1
 429.386793689 729 l 1,3,-1
 437.248074067 729 l 1,4,-1
 529.454101562 729 l 1,5,-1
 538.15625 729 l 1,6,-1
 539.358398438 720.381835938 l 2,7,8
 563.41796875 552.61328125 563.41796875 552.61328125 573.438476562 377.0859375 c 0,9,10
 583.443359375 201.869140625 583.443359375 201.869140625 591.446289062 10.125 c 2,11,-1
 591.868164062 -0 l 1,12,-1
 581.454101562 0 l 1,13,-1
 487.454101562 0 l 1,14,-1
 477.609375 0 l 1,15,-1
 477.455078125 9.84375 l 2,16,17
 476.456054688 73.8173828125 476.456054688 73.8173828125 474.956054688 147.796875 c 128,-1,18
 473.456054688 221.803710938 473.456054688 221.803710938 471.956054688 300.810546875 c 128,-1,19
 470.360992755 379.78125 470.360992755 379.78125 468.224877296 460.752929688 c 0,20,21
 466.913794712 510.477539062 466.913794712 510.477539062 465.57872255 559.577148438 c 1,22,-1
 371.590685385 283.958007812 l 1,23,-1
 369.217803222 277 l 1,24,-1
 361.415975277 277 l 1,25,-1
 270.631068275 277 l 1,26,-1
 262.87409041 277 l 1,27,-1
 260.474089594 283.90625 l 1,28,-1
 164.97470902 558.7734375 l 1,29,30
 164.511605864 534.307617188 164.511605864 534.307617188 163.962974648 510.204101562 c 128,-1,31
 163.413300406 486.099609375 163.413300406 486.099609375 162.754108526 461.251953125 c 0,32,33
 160.619036092 380.78125 160.619036092 380.78125 159.016949498 301.311523438 c 128,-1,34
 157.452148438 221.7734375 157.452148438 221.7734375 155.450195312 147.729492188 c 128,-1,35
 153.452148438 73.779296875 153.452148438 73.779296875 152.453125 9.84375 c 2,36,-1
 152.298828125 0 l 1,37,-1
 142.454101562 0 l 1,38,-1
 48.4541015625 0 l 1,39,-1
 38 0 l 1,40,-1
 38.4638671875 10.162109375 l 2,41,42
 42.46484375 97.748046875 42.46484375 97.748046875 46.9658203125 189.224609375 c 128,-1,43
 51.470703125 280.790039062 51.470703125 280.790039062 57.978515625 371.384765625 c 128,-1,44
 64.486328125 461.985351562 64.486328125 461.985351562 72.998046875 550.159179688 c 128,-1,45
 81.513671875 638.37890625 81.513671875 638.37890625 92.5390625 720.298828125 c 2,46,-1
 93.6787109375 729 l 1,47,-1
 102.454101562 729 l 1,48,-1
 193.730911755 729 l 1,49,-1
 201.551514153 729 l 1,50,-1
 203.912923039 722.020507812 l 1,0,-1
EndSplineSet
EndChar

StartChar: N
Encoding: 78 78 49
Width: 628
VWidth: 1177
Flags: W
LayerCount: 2
Fore
SplineSet
448.280273438 0 m 1,0,-1
 445.741210938 6.220703125 l 2,1,2
 424.245027295 55.1513671875 424.245027295 55.1513671875 403.823336166 99.453125 c 128,-1,3
 383.402703321 143.755859375 383.402703321 143.755859375 364.207562435 183.422851562 c 0,4,5
 325.759075085 262.875976562 325.759075085 262.875976562 291.110882747 332.317382812 c 128,-1,6
 256.54206165 401.598632812 256.54206165 401.598632812 221.984881668 462.883789062 c 0,7,8
 197.467634512 506.365234375 197.467634512 506.365234375 173 551.32421875 c 1,9,-1
 173 10 l 1,10,-1
 173 0 l 1,11,-1
 163 0 l 1,12,-1
 75 0 l 1,13,-1
 65 0 l 1,14,-1
 65 10 l 1,15,-1
 65 719 l 1,16,-1
 65 729 l 1,17,-1
 75 729 l 1,18,-1
 174 729 l 1,19,-1
 179.936523438 729 l 1,20,-1
 182.779296875 723.788085938 l 1,21,-1
 273.62275268 569.788085938 l 2,22,23
 312.750657852 503.592773438 312.750657852 503.592773438 345.387053805 441.35546875 c 128,-1,24
 378.01075036 379.138671875 378.01075036 379.138671875 408.450150366 313.430664062 c 0,25,26
 430.29417413 266.276367188 430.29417413 266.276367188 456 207.680664062 c 1,27,-1
 456 719 l 1,28,-1
 456 729 l 1,29,-1
 466 729 l 1,30,-1
 554 729 l 1,31,-1
 564 729 l 1,32,-1
 564 719 l 1,33,-1
 564 10 l 1,34,-1
 564 0 l 1,35,-1
 554 0 l 1,36,-1
 455 0 l 1,37,-1
 448.280273438 0 l 1,0,-1
EndSplineSet
EndChar

StartChar: O
Encoding: 79 79 50
Width: 628
VWidth: 1177
Flags: W
LayerCount: 2
Fore
SplineSet
53.3349609375 197.619140625 m 0,0,1
 34 268.3984375 34 268.3984375 34 364.999023438 c 128,-1,2
 34 461.590820312 34 461.590820312 53.3310546875 532.849609375 c 0,3,4
 72.8125 604.6640625 72.8125 604.6640625 107.927734375 651.380859375 c 0,5,6
 143.411132812 698.587890625 143.411132812 698.587890625 196.306440139 722.018554688 c 0,7,8
 249.669760192 746 249.669760192 746 313.933774834 746 c 128,-1,9
 378.174882295 746 378.174882295 746 432.055696399 722.03515625 c 0,10,11
 459.120531095 710.326171875 459.120531095 710.326171875 481.77734375 692.618164062 c 0,12,13
 503.38671875 674.91015625 503.38671875 674.91015625 521.072265625 651.380859375 c 0,14,15
 556.166992188 604.69140625 556.166992188 604.69140625 576.15234375 532.911132812 c 0,16,17
 596 461.623046875 596 461.623046875 596 364.999023438 c 128,-1,18
 596 268.366210938 596 268.366210938 576.147460938 197.557617188 c 0,19,20
 556.17578125 126.321289062 556.17578125 126.321289062 521.131835938 78.6962890625 c 0,21,22
 485.571289062 30.37109375 485.571289062 30.37109375 431.891181188 7.8935546875 c 0,23,24
 421.116476097 3.30859375 421.116476097 3.30859375 409.908617032 -0.359375 c 128,-1,25
 398.700757968 -4.0283203125 398.700757968 -4.0283203125 387.103476821 -6.771484375 c 128,-1,26
 375.506195675 -9.515625 375.506195675 -9.515625 363.496585265 -11.345703125 c 128,-1,27
 351.48593362 -13.1748046875 351.48593362 -13.1748046875 339.099395954 -14.087890625 c 128,-1,28
 326.712858288 -15 326.712858288 -15 313.933774834 -15 c 0,29,30
 248.677462748 -15 248.677462748 -15 195.899317053 7.92578125 c 0,31,32
 143.403320312 30.4052734375 143.403320312 30.4052734375 107.868164062 78.697265625 c 0,33,34
 72.8046875 126.348632812 72.8046875 126.348632812 53.3349609375 197.619140625 c 0,0,1
163.139965335 485.69140625 m 128,-1,36
 153 433.474609375 153 433.474609375 153 365 c 0,37,38
 153 228.3359375 153 228.3359375 193.353496223 156.56640625 c 0,39,40
 231.969797703 88 231.969797703 88 311.801324503 88 c 0,41,42
 352.747911062 88 352.747911062 88 382.973936776 104.948242188 c 128,-1,43
 413.19996249 121.896484375 413.19996249 121.896484375 434.107971596 156.78515625 c 0,44,45
 455.374165718 192.270507812 455.374165718 192.270507812 466.22071606 244.418945312 c 128,-1,46
 477 296.567382812 477 296.567382812 477 365 c 0,47,48
 477 410.701171875 477 410.701171875 472.241139797 449.317382812 c 128,-1,49
 467.417095664 487.932617188 467.417095664 487.932617188 458.003285389 518.793945312 c 128,-1,50
 448.590516349 549.655273438 448.590516349 549.655273438 434.616094526 573.2578125 c 0,51,52
 420.832218802 596.5390625 420.832218802 596.5390625 402.768865118 611.780273438 c 128,-1,53
 384.70655267 627.021484375 384.70655267 627.021484375 362.097164735 634.510742188 c 128,-1,54
 339.488818036 642 339.488818036 642 311.801324503 642 c 0,55,56
 271.448242188 642 271.448242188 642 242.205142798 625.124023438 c 128,-1,57
 212.961002173 608.249023438 212.961002173 608.249023438 193.353496223 573.43359375 c 0,58,35
 173.346155836 537.909179688 173.346155836 537.909179688 163.139965335 485.69140625 c 128,-1,36
EndSplineSet
EndChar

StartChar: P
Encoding: 80 80 51
Width: 628
VWidth: 1177
Flags: W
LayerCount: 2
Fore
SplineSet
245.452063519 735.498046875 m 0,0,1
 272.193953804 736 272.193953804 736 294.043478261 736 c 0,2,3
 330.174167799 736 330.174167799 736 361.883789062 731.758789062 c 128,-1,4
 393.592348845 727.607421875 393.592348845 727.607421875 420.913807745 719.233398438 c 0,5,6
 474.2265625 702.409179688 474.2265625 702.409179688 508.283203125 671.627929688 c 0,7,8
 519.65234375 661.3515625 519.65234375 661.3515625 529.129882812 649.776367188 c 128,-1,9
 538.606445312 638.201171875 538.606445312 638.201171875 546.161132812 625.36328125 c 128,-1,10
 553.71484375 612.524414062 553.71484375 612.524414062 559.315429688 598.47265625 c 0,11,12
 576 556.610351562 576 556.610351562 576 504.831054688 c 0,13,14
 576 485.729492188 576 485.729492188 574.067382812 467.993164062 c 128,-1,15
 572.133789062 450.256835938 572.133789062 450.256835938 568.262695312 433.85546875 c 128,-1,16
 564.392578125 417.454101562 564.392578125 417.454101562 558.549804688 402.447265625 c 128,-1,17
 552.708007812 387.440429688 552.708007812 387.440429688 544.921875 373.860351562 c 128,-1,18
 537.13671875 360.280273438 537.13671875 360.280273438 527.338867188 348.119140625 c 128,-1,19
 517.541015625 335.958007812 517.541015625 335.958007812 505.791992188 325.3125 c 0,20,21
 482.279296875 304.0078125 482.279296875 304.0078125 450.518512228 289.892578125 c 0,22,23
 416.473632812 275.77734375 416.473632812 275.77734375 374.774414062 268.888671875 c 128,-1,24
 333.074133832 262 333.074133832 262 283.173913043 262 c 2,25,-1
 203 262 l 1,26,-1
 203 10 l 1,27,-1
 203 0 l 1,28,-1
 193 0 l 1,29,-1
 96 0 l 1,30,-1
 86 0 l 1,31,-1
 86 10 l 1,32,-1
 86 708.354492188 l 1,33,-1
 86 716.037109375 l 1,34,-1
 93.68359375 717.81640625 l 2,35,36
 100.86328125 719.479492188 100.86328125 719.479492188 108.540039062 720.97265625 c 128,-1,37
 116.215820312 722.5078125 116.215820312 722.5078125 124.35546875 723.864257812 c 128,-1,38
 132.494140625 725.220703125 132.494140625 725.220703125 141.140625 726.407226562 c 0,39,40
 166.817382812 729.931640625 166.817382812 729.931640625 192.004882812 732.450195312 c 0,41,42
 218.390667459 734.990234375 218.390667459 734.990234375 245.452063519 735.498046875 c 0,0,1
419.043478261 600.705078125 m 128,-1,44
 381 633 381 633 301.652173913 633 c 0,45,46
 268.150772758 633 268.150772758 633 237.909179688 632.041992188 c 0,47,48
 216.49273947 631.36328125 216.49273947 631.36328125 203 630.202148438 c 1,49,-1
 203 365 l 1,50,-1
 278.826086957 365 l 2,51,52
 370.613408628 365 370.613408628 365 414.355978261 396.577148438 c 0,53,54
 457 427.424804688 457 427.424804688 457 500.927734375 c 0,55,43
 457 568.41015625 457 568.41015625 419.043478261 600.705078125 c 128,-1,44
EndSplineSet
EndChar

StartChar: Q
Encoding: 81 81 52
Width: 628
VWidth: 1177
Flags: W
LayerCount: 2
Fore
SplineSet
90.9501953125 101.2578125 m 0,0,1
 34 192.645507812 34 192.645507812 34 363.755859375 c 0,2,3
 34 460.415039062 34 460.415039062 53.3349609375 531.237304688 c 0,4,5
 63.048828125 566.817382812 63.048828125 566.817382812 76.673828125 596.34375 c 128,-1,6
 90.298828125 625.870117188 90.298828125 625.870117188 107.927734375 649.337890625 c 0,7,8
 143.411132812 696.57421875 143.411132812 696.57421875 196.306440139 720.018554688 c 0,9,10
 249.669760192 744 249.669760192 744 313.933774834 744 c 128,-1,11
 378.174882295 744 378.174882295 744 432.055696399 720.03515625 c 0,12,13
 459.120531095 708.008789062 459.120531095 708.008789062 481.77734375 689.821289062 c 0,14,15
 503.38671875 671.633789062 503.38671875 671.633789062 521.072265625 647.467773438 c 0,16,17
 556.162109375 599.521484375 556.162109375 599.521484375 576.147460938 526.306640625 c 0,18,19
 586.104492188 489.83203125 586.104492188 489.83203125 591.051757812 446.861328125 c 128,-1,20
 596 403.889648438 596 403.889648438 596 354.331054688 c 0,21,22
 596 310.34765625 596 310.34765625 592.069335938 271.456054688 c 128,-1,23
 588.138671875 232.564453125 588.138671875 232.564453125 580.239257812 198.702148438 c 0,24,25
 564.391601562 130.7734375 564.391601562 130.7734375 535.614257812 82 c 0,26,27
 525.947265625 68.4345703125 525.947265625 68.4345703125 514.857421875 56.77734375 c 128,-1,28
 503.767578125 45.1201171875 503.767578125 45.1201171875 491.177734375 35.328125 c 128,-1,29
 478.586914062 25.5361328125 478.586914062 25.5361328125 463.839410441 17.7236328125 c 0,30,31
 424.303698003 -2.978515625 424.303698003 -2.978515625 375.896658992 -10.9267578125 c 1,32,33
 381.11637262 -26.0458984375 381.11637262 -26.0458984375 392.488746896 -37.03515625 c 0,34,35
 408.72785596 -52.7275390625 408.72785596 -52.7275390625 434.158992136 -63.9521484375 c 0,36,37
 460.476219733 -75.5673828125 460.476219733 -75.5673828125 492.567382812 -83.8349609375 c 0,38,39
 523.978515625 -92.1787109375 523.978515625 -92.1787109375 559.375976562 -97.0947265625 c 2,40,-1
 570.916015625 -98.6982421875 l 1,41,-1
 567.58203125 -109.862304688 l 1,42,-1
 544.58203125 -186.862304688 l 1,43,-1
 542.056640625 -195.314453125 l 1,44,-1
 533.356445312 -193.864257812 l 2,45,46
 484.752929688 -185.763671875 484.752929688 -185.763671875 437.793945312 -172.58984375 c 0,47,48
 389.610771937 -159.23828125 389.610771937 -159.23828125 350.620666908 -137.606445312 c 0,49,50
 337.483398438 -130.318359375 337.483398438 -130.318359375 325.672664011 -121.908203125 c 128,-1,51
 313.86297082 -113.499023438 313.86297082 -113.499023438 303.371481788 -103.952148438 c 128,-1,52
 292.878951521 -94.4052734375 292.878951521 -94.4052734375 283.763975838 -83.7626953125 c 0,53,54
 257.975695882 -53.6533203125 257.975695882 -53.6533203125 247.363423531 -10.3564453125 c 1,55,56
 146.678710938 11.8291015625 146.678710938 11.8291015625 90.9501953125 101.2578125 c 0,0,1
163.139965335 479.048828125 m 128,-1,58
 153 424.946289062 153 424.946289062 153 354 c 0,59,60
 153 212.40234375 153 212.40234375 193.353496223 138.041992188 c 0,61,62
 231.969797703 67 231.969797703 67 311.801324503 67 c 0,63,64
 352.747911062 67 352.747911062 67 382.973936776 84.560546875 c 128,-1,65
 413.19996249 102.120117188 413.19996249 102.120117188 434.107971596 138.268554688 c 0,66,67
 448.250032337 162.717773438 448.250032337 162.717773438 457.776296047 194.684570312 c 128,-1,68
 467.301518522 226.650390625 467.301518522 226.650390625 472.183871844 266.65234375 c 128,-1,69
 477 306.653320312 477 306.653320312 477 354 c 128,-1,70
 477 401.3515625 477 401.3515625 472.241139797 441.361328125 c 128,-1,71
 467.417095664 481.37109375 467.417095664 481.37109375 458.003285389 513.345703125 c 128,-1,72
 448.590516349 545.321289062 448.590516349 545.321289062 434.616094526 569.776367188 c 0,73,74
 420.832218802 593.897460938 420.832218802 593.897460938 402.768865118 609.689453125 c 128,-1,75
 384.70655267 625.48046875 384.70655267 625.48046875 362.097164735 633.240234375 c 128,-1,76
 339.488818036 641 339.488818036 641 311.801324503 641 c 0,77,78
 271.448242188 641 271.448242188 641 242.205142798 623.514648438 c 128,-1,79
 212.961002173 606.030273438 212.961002173 606.030273438 193.353496223 569.958007812 c 0,80,57
 173.346155836 533.151367188 173.346155836 533.151367188 163.139965335 479.048828125 c 128,-1,58
EndSplineSet
EndChar

StartChar: R
Encoding: 82 82 53
Width: 628
VWidth: 1177
Flags: W
LayerCount: 2
Fore
SplineSet
530.560546875 603.319335938 m 128,-1,1
 548 559.416015625 548 559.416015625 548 502.229492188 c 0,2,3
 548 433.963867188 548 433.963867188 510.70703125 381.818359375 c 0,4,5
 493.818359375 358.203125 493.818359375 358.203125 471.22265625 339.231445312 c 0,6,7
 446.99230341 320.258789062 446.99230341 320.258789062 417.754275723 306.545898438 c 1,8,9
 434.77347319 282.145507812 434.77347319 282.145507812 453.970741468 252.6484375 c 0,10,11
 465.567865844 234.829101562 465.567865844 234.829101562 476.930664062 216.040039062 c 0,12,13
 487.961914062 197.250976562 487.961914062 197.250976562 499.241210938 177.490234375 c 0,14,15
 521.828125 137.918945312 521.828125 137.918945312 543.90234375 95.9248046875 c 128,-1,16
 566.037109375 53.8154296875 566.037109375 53.8154296875 584.15625 13.6455078125 c 2,17,-1
 590.311523438 0 l 1,18,-1
 575 0 l 1,19,-1
 472 0 l 1,20,-1
 464.925156425 0 l 1,21,-1
 462.183139604 6.1923828125 l 2,22,23
 424.752667178 87.712890625 424.752667178 87.712890625 379.868025701 161.982421875 c 0,24,25
 369.241266527 179.568359375 369.241266527 179.568359375 358.563048592 195.924804688 c 128,-1,26
 347.885880836 212.28125 347.885880836 212.28125 337.525867075 226.876953125 c 128,-1,27
 327.166903492 241.47265625 327.166903492 241.47265625 317.121943368 254.391601562 c 128,-1,28
 307.075933064 267.338867188 307.075933064 267.338867188 297.47309821 278.436523438 c 1,29,30
 290.283574215 277.841796875 290.283574215 277.841796875 280.569420409 277.506835938 c 0,31,32
 265.853265028 277 265.853265028 277 260.276815654 277 c 2,33,-1
 183 277 l 1,34,-1
 183 10 l 1,35,-1
 183 0 l 1,36,-1
 173 0 l 1,37,-1
 75 0 l 1,38,-1
 65 0 l 1,39,-1
 65 10 l 1,40,-1
 65 708.499023438 l 1,41,-1
 65 715.893554688 l 1,42,-1
 72.3232421875 717.873046875 l 2,43,44
 90.8857421875 722.888671875 90.8857421875 722.888671875 113.962890625 726.380859375 c 0,45,46
 136.823242188 729.9375 136.823242188 729.9375 161.686523438 731.966796875 c 128,-1,47
 186.4755012 733.982421875 186.4755012 733.982421875 211.965440786 734.991210938 c 128,-1,48
 237.464831981 736 237.464831981 736 258.126049492 736 c 0,49,50
 306.387015778 736 306.387015778 736 346.811547934 729.426757812 c 128,-1,51
 387.235029912 723.029296875 387.235029912 723.029296875 420.395475379 709.91015625 c 128,-1,52
 453.554870667 696.790039062 453.554870667 696.790039062 478.073242188 676.974609375 c 0,53,0
 513.12109375 647.221679688 513.12109375 647.221679688 530.560546875 603.319335938 c 128,-1,1
299.024212283 636.505859375 m 128,-1,55
 283.360795633 633 283.360795633 633 266.729114138 633 c 0,56,57
 237.893304928 633 237.893304928 633 210.692624093 632.044921875 c 0,58,59
 193.798397901 631.452148438 193.798397901 631.452148438 183 630.439453125 c 1,60,-1
 183 377 l 1,61,-1
 238.769154038 377 l 2,62,63
 260.917424716 377 260.917424716 377 280.891825298 378.524414062 c 128,-1,64
 300.865175701 380.048828125 300.865175701 380.048828125 318.628949931 383.078125 c 0,65,66
 352.971896715 388.936523438 352.971896715 388.936523438 376.905471335 404.359375 c 0,67,68
 400.232042615 419.390625 400.232042615 419.390625 412.937105614 445.369140625 c 0,69,70
 419.289637113 458.357421875 419.289637113 458.357421875 422.587198513 476.12890625 c 128,-1,71
 425.885810092 493.901367188 425.885810092 493.901367188 425.885810092 516.287109375 c 0,72,73
 425.885810092 537.109375 425.885810092 537.109375 422.601901016 554.075195312 c 128,-1,74
 419.317991941 571.040039062 419.317991941 571.040039062 412.937105614 584.087890625 c 128,-1,75
 406.460653017 597.330078125 406.460653017 597.330078125 398.027717335 607.608398438 c 128,-1,76
 389.593731474 617.88671875 389.593731474 617.88671875 379.139201621 625.407226562 c 0,77,78
 357.83632487 640.73046875 357.83632487 640.73046875 329.39853342 647 c 0,79,54
 314.687628933 640.010742188 314.687628933 640.010742188 299.024212283 636.505859375 c 128,-1,55
EndSplineSet
EndChar

StartChar: S
Encoding: 83 83 54
Width: 628
VWidth: 1177
Flags: W
LayerCount: 2
Fore
SplineSet
179.479492188 104.379882812 m 0,0,1
 227.021638038 88 227.021638038 88 296.562039366 88 c 0,2,3
 312.126744951 88 312.126744951 88 326.202349125 89.08203125 c 128,-1,4
 340.277953299 90.1640625 340.277953299 90.1640625 352.58947995 92.267578125 c 128,-1,5
 364.899949 94.37109375 364.899949 94.37109375 375.730835043 97.5 c 128,-1,6
 386.560663486 100.627929688 386.560663486 100.627929688 395.714195241 104.6875 c 128,-1,7
 404.867726996 108.747070312 404.867726996 108.747070312 412.549078947 113.7734375 c 0,8,9
 431.541467538 126.203125 431.541467538 126.203125 440.943535395 144.446289062 c 0,10,11
 450.013671875 162.689453125 450.013671875 162.689453125 450.013671875 187.897460938 c 0,12,13
 450.013671875 203.231445312 450.013671875 203.231445312 446.71875 216.124023438 c 0,14,15
 443.208915524 229.017578125 443.208915524 229.017578125 436.151547829 239.6953125 c 0,16,17
 421.517530626 261.83984375 421.517530626 261.83984375 397.733154469 278.155273438 c 0,18,19
 373.251819626 294.948242188 373.251819626 294.948242188 342.413248575 307.586914062 c 0,20,21
 310.704272367 320.58203125 310.704272367 320.58203125 278.46120794 332.1328125 c 0,22,23
 239.925420932 345.936523438 239.925420932 345.936523438 204.134107049 363.689453125 c 0,24,25
 169.119140625 381.7109375 169.119140625 381.7109375 142.736328125 405.291015625 c 0,26,27
 115.815429688 429.353515625 115.815429688 429.353515625 99.984375 461.596679688 c 0,28,29
 84.013671875 494.125976562 84.013671875 494.125976562 84.013671875 538.9921875 c 0,30,31
 84.013671875 570.819335938 84.013671875 570.819335938 91.064453125 598.34765625 c 128,-1,32
 98.115234375 625.875976562 98.115234375 625.875976562 112.345703125 649.09765625 c 128,-1,33
 126.576171875 672.319335938 126.576171875 672.319335938 147.854492188 690.739257812 c 0,34,35
 179.654296875 718.268554688 179.654296875 718.268554688 226.503413826 731.921875 c 0,36,37
 273.795074826 746 273.795074826 746 333.383456071 746 c 0,38,39
 344.13079168 746 344.13079168 746 354.88024249 745.486328125 c 128,-1,40
 365.628635699 744.97265625 365.628635699 744.97265625 376.372798506 743.947265625 c 128,-1,41
 387.116961314 742.920898438 387.116961314 742.920898438 397.85689372 741.381835938 c 0,42,43
 413.728303431 739.107421875 413.728303431 739.107421875 428.387703044 736.577148438 c 128,-1,44
 443.048160258 734.046875 443.048160258 734.046875 455.704101562 731.256835938 c 0,45,46
 464.149414062 729.361328125 464.149414062 729.361328125 472.030273438 727.118164062 c 128,-1,47
 479.911132812 724.875976562 479.911132812 724.875976562 487.296875 722.259765625 c 128,-1,48
 494.682617188 719.642578125 494.682617188 719.642578125 501.508789062 716.666992188 c 0,49,50
 506.55078125 714.46875 506.55078125 714.46875 511.09375 712.311523438 c 128,-1,51
 515.63671875 710.154296875 515.63671875 710.154296875 519.772460938 707.990234375 c 128,-1,52
 523.908203125 705.827148438 523.908203125 705.827148438 527.607421875 703.658203125 c 128,-1,53
 531.305664062 701.490234375 531.305664062 701.490234375 534.560546875 699.3203125 c 2,54,-1
 541.208984375 694.888671875 l 1,55,-1
 538.352539062 687.42578125 l 1,56,-1
 507.352539062 606.42578125 l 1,57,-1
 503.14453125 595.4296875 l 1,58,-1
 492.974609375 601.362304688 l 2,59,60
 469.836914062 614.859375 469.836914062 614.859375 428.435295064 628.536132812 c 0,61,62
 385.733619946 642 385.733619946 642 333.383456071 642 c 0,63,64
 279.315749091 642 279.315749091 642 239.835524895 617.9609375 c 0,65,66
 202.342531914 595.131835938 202.342531914 595.131835938 202.342531914 548.8359375 c 0,67,68
 202.342531914 534.819335938 202.342531914 534.819335938 205.051046625 523.345703125 c 128,-1,69
 207.760618937 511.87109375 207.760618937 511.87109375 213.019008294 502.875 c 0,70,71
 223.909119962 484.243164062 223.909119962 484.243164062 243.325606327 469.967773438 c 0,72,73
 263.504622605 455.130859375 263.504622605 455.130859375 290.57496331 443.001953125 c 0,74,75
 318.411006729 430.530273438 318.411006729 430.530273438 351.674655575 418.030273438 c 0,76,77
 400.728278898 399.470703125 400.728278898 399.470703125 441.109578663 381.377929688 c 0,78,79
 479.893554688 362.741210938 479.893554688 362.741210938 507.516601562 336.439453125 c 0,80,81
 535.490234375 309.8046875 535.490234375 309.8046875 550.770507812 273.499023438 c 128,-1,82
 566.013671875 237.283203125 566.013671875 237.283203125 566.013671875 186.85546875 c 0,83,84
 566.013671875 90.0146484375 566.013671875 90.0146484375 498.282226562 37.1220703125 c 0,85,86
 430.335803044 -15 430.335803044 -15 296.562039366 -15 c 0,87,88
 253.098891936 -14.8642578125 253.098891936 -14.8642578125 215.409185275 -9.896484375 c 0,89,90
 196.316324642 -7.341796875 196.316324642 -7.341796875 179.805664062 -3.8798828125 c 0,91,92
 164.162109375 -0.4169921875 164.162109375 -0.4169921875 150.458984375 3.9775390625 c 0,93,94
 137.0546875 8.27734375 137.0546875 8.27734375 125.272460938 12.4580078125 c 128,-1,95
 113.490234375 16.638671875 113.490234375 16.638671875 103.299804688 20.71484375 c 0,96,97
 82.2255859375 29.14453125 82.2255859375 29.14453125 71.2783203125 36.8076171875 c 2,98,-1
 65 41.203125 l 1,99,-1
 67.6123046875 48.408203125 l 1,100,-1
 96.6123046875 128.408203125 l 1,101,-1
 100.568359375 139.322265625 l 1,102,-1
 110.776367188 133.79296875 l 2,103,104
 118.440429688 129.641601562 118.440429688 129.641601562 128.606445312 124.9921875 c 128,-1,105
 138.771484375 120.342773438 138.771484375 120.342773438 151.561523438 115.15625 c 128,-1,106
 164.3515625 109.970703125 164.3515625 109.970703125 179.479492188 104.379882812 c 0,0,1
EndSplineSet
EndChar

StartChar: T
Encoding: 84 84 55
Width: 628
VWidth: 1177
Flags: W
LayerCount: 2
Fore
SplineSet
583 729 m 1,0,-1
 583 719 l 1,1,-1
 583 654.826171875 l 1,2,-1
 583 647 l 1,3,-1
 573 647 l 1,4,-1
 377.223826715 647 l 1,5,-1
 377.223826715 10 l 1,6,-1
 377.223826715 0 l 1,7,-1
 366.501805054 0 l 1,8,-1
 262.498194946 0 l 1,9,-1
 251.776173285 0 l 1,10,-1
 251.776173285 10 l 1,11,-1
 251.776173285 647 l 1,12,-1
 56 647 l 1,13,-1
 46 647 l 1,14,-1
 46 654.826171875 l 1,15,-1
 46 719 l 1,16,-1
 46 729 l 1,17,-1
 56 729 l 1,18,-1
 573 729 l 1,19,-1
 583 729 l 1,0,-1
EndSplineSet
EndChar

StartChar: U
Encoding: 85 85 56
Width: 628
VWidth: 1177
Flags: W
LayerCount: 2
Fore
SplineSet
437.189472273 4.236328125 m 0,0,1
 386.167241115 -15 386.167241115 -15 313.960784314 -15 c 128,-1,2
 241.732211244 -15 241.732211244 -15 191.232345282 4.2509765625 c 0,3,4
 142.883789062 23.1728515625 142.883789062 23.1728515625 112.790039062 58.6103515625 c 128,-1,5
 82.85546875 93.8603515625 82.85546875 93.8603515625 69.8046875 144.137695312 c 0,6,7
 57 193.461914062 57 193.461914062 57 254.01171875 c 2,8,-1
 57 719 l 1,9,-1
 57 729 l 1,10,-1
 67 729 l 1,11,-1
 163 729 l 1,12,-1
 173 729 l 1,13,-1
 173 719 l 1,14,-1
 173 265.377929688 l 2,15,16
 173 256.657226562 173 256.657226562 173.274414062 248.404296875 c 128,-1,17
 173.548828125 240.151367188 173.548828125 240.151367188 174.09375 232.430664062 c 128,-1,18
 174.638671875 224.709960938 174.638671875 224.709960938 175.448242188 217.48046875 c 128,-1,19
 176.2578125 210.250976562 176.2578125 210.250976562 177.358072917 203.536132812 c 128,-1,20
 178.516544118 196.821289062 178.516544118 196.821289062 179.94988894 190.625 c 128,-1,21
 181.384286918 184.428710938 181.384286918 184.428710938 183.096717984 178.733398438 c 0,22,23
 188.225585938 161.6796875 188.225585938 161.6796875 195.422851562 148.174804688 c 128,-1,24
 202.620117188 134.669921875 202.620117188 134.669921875 211.752029718 124.688476562 c 0,25,26
 229.858934589 104.895507812 229.858934589 104.895507812 254.637580423 96.5986328125 c 0,27,28
 280.31562117 88 280.31562117 88 313.960784314 88 c 0,29,30
 330.891314338 88 330.891314338 88 345.864028033 90.1669921875 c 128,-1,31
 360.836741728 92.333984375 360.836741728 92.333984375 373.887446385 96.619140625 c 0,32,33
 399.164234835 104.920898438 399.164234835 104.920898438 417.247970282 124.688476562 c 0,34,35
 426.379882812 134.669921875 426.379882812 134.669921875 433.577148438 148.174804688 c 128,-1,36
 440.774414062 161.678710938 440.774414062 161.678710938 445.903282016 178.733398438 c 0,37,38
 456 213.354492188 456 213.354492188 456 265.377929688 c 2,39,-1
 456 719 l 1,40,-1
 456 729 l 1,41,-1
 466 729 l 1,42,-1
 562 729 l 1,43,-1
 572 729 l 1,44,-1
 572 719 l 1,45,-1
 572 254.010742188 l 2,46,47
 572 193.415039062 572 193.415039062 558.671875 144.047851562 c 0,48,49
 554.178710938 127.405273438 554.178710938 127.405273438 547.936523438 112.389648438 c 128,-1,50
 541.694335938 97.375 541.694335938 97.375 533.637695312 83.908203125 c 128,-1,51
 525.581054688 70.44140625 525.581054688 70.44140625 515.764648438 58.6748046875 c 0,52,53
 486.145507812 23.173828125 486.145507812 23.173828125 437.189472273 4.236328125 c 0,0,1
EndSplineSet
EndChar

StartChar: V
Encoding: 86 86 57
Width: 628
VWidth: 1177
Flags: W
LayerCount: 2
Fore
SplineSet
141.238600076 729 m 1,0,-1
 142.867992643 720.859375 l 2,1,2
 157.623449363 647.143554688 157.623449363 647.143554688 180.82550357 559.42578125 c 128,-1,3
 204.071986362 471.53515625 204.071986362 471.53515625 229.433476501 384.145507812 c 128,-1,4
 254.776368626 296.814453125 254.776368626 296.814453125 281.171081699 216.982421875 c 0,5,6
 286.209076725 201.744140625 286.209076725 201.744140625 291.231573407 186.837890625 c 128,-1,7
 296.253036866 171.931640625 296.253036866 171.931640625 301.053390618 157.959960938 c 128,-1,8
 305.852711146 143.987304688 305.852711146 143.987304688 310.436088082 130.915039062 c 128,-1,9
 315.019465017 117.842773438 315.019465017 117.842773438 319.300107633 105.916992188 c 1,10,11
 327.967814826 131.983398438 327.967814826 131.983398438 336.929990556 159.20703125 c 128,-1,12
 345.892166286 186.430664062 345.892166286 186.430664062 356.185133154 217.94921875 c 0,13,14
 369.391788697 258.392578125 369.391788697 258.392578125 382.600510685 300.588867188 c 128,-1,15
 395.808199451 342.78515625 395.808199451 342.78515625 409.017954662 386.732421875 c 0,16,17
 435.419900295 474.5703125 435.419900295 474.5703125 458.121874602 561.399414062 c 128,-1,18
 480.803184449 648.142578125 480.803184449 648.142578125 495.562774062 720.883789062 c 2,19,-1
 497.209731418 729 l 1,20,-1
 505.610351562 729 l 1,21,-1
 607.610351562 729 l 1,22,-1
 619.70703125 729 l 1,23,-1
 617.432617188 717.439453125 l 2,24,25
 608.361328125 671.34765625 608.361328125 671.34765625 586.763671875 593.63671875 c 128,-1,26
 565.219726562 516.12109375 565.219726562 516.12109375 535.690429688 420.180664062 c 128,-1,27
 506.149414062 324.201171875 506.149414062 324.201171875 468.39727668 217.061523438 c 0,28,29
 430.250685956 109.861328125 430.250685956 109.861328125 388.91970215 6.546875 c 2,30,-1
 386.371774395 0 l 1,31,-1
 378.990429754 0 l 1,32,-1
 252.027995622 0 l 1,33,-1
 244.515431668 0 l 1,34,-1
 242.038796296 6.7041015625 l 2,35,36
 202.838318179 109.9921875 202.838318179 109.9921875 166.289090111 216.680664062 c 0,37,38
 130.053710938 323.290039062 130.053710938 323.290039062 100.53125 419.208984375 c 128,-1,39
 70.9912109375 515.18359375 70.9912109375 515.18359375 49.9384765625 593.220703125 c 128,-1,40
 28.904296875 671.19140625 28.904296875 671.19140625 17.8740234375 717.051757812 c 2,41,-1
 15 729 l 1,42,-1
 27.6103515625 729 l 1,43,-1
 132.610351562 729 l 1,44,-1
 141.238600076 729 l 1,0,-1
EndSplineSet
EndChar

StartChar: W
Encoding: 87 87 58
Width: 628
VWidth: 1177
Flags: W
LayerCount: 2
Fore
SplineSet
200.372147224 0 m 1,0,-1
 192.51061869 0 l 1,1,-1
 100.310546875 0 l 1,2,-1
 91.72265625 0 l 1,3,-1
 90.42578125 8.4892578125 l 2,4,5
 79.3759765625 78.8583984375 79.3759765625 78.8583984375 71.8486328125 163.337890625 c 0,6,7
 64.33984375 247.59375 64.33984375 247.59375 57.8349609375 339.131835938 c 128,-1,8
 51.328125 430.688476562 51.328125 430.688476562 46.3232421875 527.099609375 c 128,-1,9
 41.318359375 623.521484375 41.318359375 623.521484375 38.3154296875 718.97265625 c 2,10,-1
 38 729 l 1,11,-1
 48.310546875 729 l 1,12,-1
 142.310546875 729 l 1,13,-1
 152.099609375 729 l 1,14,-1
 152.30859375 719.213867188 l 1,15,-1
 164.438797352 170.182617188 l 1,16,-1
 258.170079971 445.041992188 l 1,17,-1
 260.543037038 452 l 1,18,-1
 268.345111263 452 l 1,19,-1
 359.132884061 452 l 1,20,-1
 366.890106789 452 l 1,21,-1
 369.290183366 445.09375 l 1,22,-1
 465.153476642 169.190429688 l 1,23,-1
 477.313476562 719.213867188 l 1,24,-1
 477.522460938 729 l 1,25,-1
 487.310546875 729 l 1,26,-1
 581.310546875 729 l 1,27,-1
 591.72265625 729 l 1,28,-1
 591.302734375 718.876953125 l 2,29,30
 587.30078125 622.502929688 587.30078125 622.502929688 582.297851562 526.12890625 c 128,-1,31
 577.291992188 429.692382812 577.291992188 429.692382812 570.283203125 338.594726562 c 128,-1,32
 563.274414062 247.514648438 563.274414062 247.514648438 554.762695312 163.713867188 c 1,33,-1
 537.235351562 8.7763671875 l 1,34,-1
 536.153320312 -0 l 1,35,-1
 527.310546875 0 l 1,36,-1
 436.035468078 0 l 1,37,-1
 428.215661866 0 l 1,38,-1
 425.85313538 6.9794921875 l 1,39,-1
 313.294654932 339.624023438 l 1,40,-1
 202.708597259 7.02734375 l 1,41,-1
 200.372147224 0 l 1,0,-1
EndSplineSet
EndChar

StartChar: X
Encoding: 88 88 59
Width: 628
VWidth: 1177
Flags: W
LayerCount: 2
Fore
SplineSet
480.167132009 0 m 1,0,-1
 477.475804433 6.236328125 l 2,1,2
 463.717248153 38.11328125 463.717248153 38.11328125 445.181948557 77.9921875 c 128,-1,3
 426.651836562 117.856445312 426.651836562 117.856445312 405.461522599 160.2421875 c 128,-1,4
 384.343835055 202.48046875 384.343835055 202.48046875 360.046147888 244.740234375 c 0,5,6
 350.175180054 261.91015625 350.175180054 261.91015625 339.799977369 278.21875 c 128,-1,7
 329.425812205 294.52734375 329.425812205 294.52734375 318.85451819 309.556640625 c 1,8,9
 298.75775059 278.165039062 298.75775059 278.165039062 279.658039968 244.506835938 c 128,-1,10
 260.558329346 210.849609375 260.558329346 210.849609375 240.854781927 172.17578125 c 0,11,12
 197.357782193 86.7978515625 197.357782193 86.7978515625 159.178073834 5.9384765625 c 2,13,-1
 156.373656548 0 l 1,14,-1
 149.468959161 0 l 1,15,-1
 44.44140625 0 l 1,16,-1
 29 0 l 1,17,-1
 35.31640625 13.7138671875 l 2,18,19
 74.4189453125 98.61328125 74.4189453125 98.61328125 126.532226562 198.106445312 c 0,20,21
 179.111950751 295.111328125 179.111950751 295.111328125 240.201144158 384.76171875 c 1,22,-1
 47.6884765625 714.561523438 l 1,23,-1
 39.494140625 729 l 1,24,-1
 56.44140625 729 l 1,25,-1
 164.34284973 729 l 1,26,-1
 170.83565157 729 l 1,27,-1
 173.797771936 723.561523438 l 1,28,-1
 316.586498883 461.341796875 l 1,29,-1
 469.50453621 723.80859375 l 1,30,-1
 472.528907793 729 l 1,31,-1
 478.819393181 729 l 1,32,-1
 584.44140625 729 l 1,33,-1
 601.6171875 729 l 1,34,-1
 593.137695312 714.461914062 l 1,35,-1
 397.673895464 388.557617188 l 1,36,37
 406.333039625 375.69140625 406.333039625 375.69140625 414.760816766 362.904296875 c 128,-1,38
 423.188593906 350.118164062 423.188593906 350.118164062 431.43584252 337.334960938 c 128,-1,39
 439.683091134 324.552734375 439.683091134 324.552734375 447.78301187 311.719726562 c 128,-1,40
 455.882932606 298.885742188 455.882932606 298.885742188 463.844863146 285.9921875 c 128,-1,41
 471.806793686 273.09765625 471.806793686 273.09765625 479.70751053 260.017578125 c 128,-1,42
 487.608227375 246.9375 487.608227375 246.9375 495.060546875 233.732421875 c 128,-1,43
 502.408203125 220.528320312 502.408203125 220.528320312 509.776367188 207.005859375 c 0,44,45
 562.499023438 110.241210938 562.499023438 110.241210938 603.680664062 13.45703125 c 2,46,-1
 609.40625 0 l 1,47,-1
 594.44140625 0 l 1,48,-1
 487.31875922 0 l 1,49,-1
 480.167132009 0 l 1,0,-1
EndSplineSet
EndChar

StartChar: Y
Encoding: 89 89 60
Width: 628
VWidth: 1177
Flags: W
LayerCount: 2
Fore
SplineSet
258.115534402 0 m 1,0,-1
 258.115534402 10 l 1,1,-1
 258.115534402 270.93359375 l 1,2,3
 182.649332828 384.928710938 182.649332828 384.928710938 122.573242188 492.46484375 c 0,4,5
 93.435546875 546.963867188 93.435546875 546.963867188 67.8125 602.809570312 c 128,-1,6
 42.1904296875 658.65625 42.1904296875 658.65625 20.083984375 715.845703125 c 2,7,-1
 15 729 l 1,8,-1
 29.4443359375 729 l 1,9,-1
 138.641664974 729 l 1,10,-1
 146.189317642 729 l 1,11,-1
 148.641530376 722.248046875 l 2,12,13
 166.511191761 673.034179688 166.511191761 673.034179688 187.003430134 626.071289062 c 128,-1,14
 207.495668506 579.108398438 207.495668506 579.108398438 230.609451355 534.392578125 c 0,15,16
 251.579742147 493.822265625 251.579742147 493.822265625 274.714175208 451.049804688 c 128,-1,17
 297.847575759 408.27734375 297.847575759 408.27734375 321.573637409 366.166015625 c 1,18,19
 347.54953971 412.143554688 347.54953971 412.143554688 370.308138904 455.006835938 c 128,-1,20
 393.065705587 497.87109375 393.065705587 497.87109375 413.472245578 539.228515625 c 0,21,22
 457.677122961 628.821289062 457.677122961 628.821289062 493.464973731 722.401367188 c 2,23,-1
 495.988429698 729 l 1,24,-1
 503.407018538 729 l 1,25,-1
 609.444335938 729 l 1,26,-1
 624.095703125 729 l 1,27,-1
 618.756835938 715.725585938 l 2,28,29
 573.555664062 603.3359375 573.555664062 603.3359375 515.797851562 496.323242188 c 0,30,31
 456.259485873 390.811523438 456.259485873 390.811523438 381.81856735 272.987304688 c 1,32,-1
 381.81856735 10 l 1,33,-1
 381.81856735 0 l 1,34,-1
 371.245658551 0 l 1,35,-1
 268.688443201 0 l 1,36,-1
 258.115534402 0 l 1,0,-1
EndSplineSet
EndChar

StartChar: Z
Encoding: 90 90 61
Width: 628
VWidth: 1177
Flags: W
LayerCount: 2
Fore
SplineSet
567 640.735351562 m 1,0,-1
 565.07421875 638.099609375 l 2,1,2
 546.169921875 612.231445312 546.169921875 612.231445312 525.1171875 581.461914062 c 128,-1,3
 504.064453125 550.692382812 504.064453125 550.692382812 480.8828125 515.047851562 c 0,4,5
 432.721974206 443.625976562 432.721974206 443.625976562 380.419146825 366.1953125 c 128,-1,6
 328.166914683 288.837890625 328.166914683 288.837890625 279.14750744 210.485351562 c 0,7,8
 257.525421627 175.923828125 257.525421627 175.923828125 238.077876984 143.575195312 c 128,-1,9
 218.631386409 111.2265625 218.631386409 111.2265625 201.886470734 82 c 1,10,-1
 566 82 l 1,11,-1
 576 82 l 1,12,-1
 576 74.173828125 l 1,13,-1
 576 10 l 1,14,-1
 576 0 l 1,15,-1
 566 0 l 1,16,-1
 74 0 l 1,17,-1
 64 0 l 1,18,-1
 64 10 l 1,19,-1
 64 74 l 1,20,-1
 64 76.3603515625 l 1,21,-1
 65.0556640625 78.4716796875 l 2,22,23
 102.1640625 152.689453125 102.1640625 152.689453125 145.766601562 230.87109375 c 0,24,25
 189.784722222 309.037109375 189.784722222 309.037109375 239.544084821 384.703125 c 128,-1,26
 289.269717262 460.31640625 289.269717262 460.31640625 339.00483631 531.4375 c 0,27,28
 382.174169147 593.16796875 382.174169147 593.16796875 423.201636905 647 c 1,29,-1
 91 647 l 1,30,-1
 81 647 l 1,31,-1
 81 654.826171875 l 1,32,-1
 81 719 l 1,33,-1
 81 729 l 1,34,-1
 91 729 l 1,35,-1
 557 729 l 1,36,-1
 567 729 l 1,37,-1
 567 719 l 1,38,-1
 567 644 l 1,39,-1
 567 640.735351562 l 1,0,-1
EndSplineSet
EndChar

StartChar: bracketleft
Encoding: 91 91 62
Width: 588
VWidth: 1177
Flags: W
LayerCount: 2
Fore
SplineSet
168 833 m 1
 450 833 l 1
 460 833 l 1
 460 823 l 1
 460 747 l 1
 460 737 l 1
 450 737 l 1
 270 737 l 1
 270 -108 l 1
 450 -108 l 1
 460 -108 l 1
 460 -118 l 1
 460 -194 l 1
 460 -204 l 1
 450 -204 l 1
 168 -204 l 1
 158 -204 l 1
 158 -194 l 1
 158 823 l 1
 158 833 l 1
 168 833 l 1
EndSplineSet
Substitution2: "'case' Case-Sensitive Forms lookup 17 subtable" Bracketleft
EndChar

StartChar: backslash
Encoding: 92 92 63
Width: 588
VWidth: 1177
Flags: W
LayerCount: 2
Fore
SplineSet
82 833 m 1
 180 833 l 1
 187.295696931 833 l 1
 189.5227182 826.052513405 l 1
 515.5227182 -190.947486595 l 1
 519.706709714 -204 l 1
 506 -204 l 1
 408 -204 l 1
 400.704303069 -204 l 1
 398.4772818 -197.052513405 l 1
 72.4772818003 819.947486595 l 1
 68.2932902859 833 l 1
 82 833 l 1
EndSplineSet
Substitution2: "'case' Case-Sensitive Forms lookup 17 subtable" Backslash
EndChar

StartChar: bracketright
Encoding: 93 93 64
Width: 588
VWidth: 1177
Flags: W
LayerCount: 2
Fore
SplineSet
420 -204 m 1
 139 -204 l 1
 129 -204 l 1
 129 -194 l 1
 129 -118 l 1
 129 -108 l 1
 139 -108 l 1
 319 -108 l 1
 319 737 l 1
 139 737 l 1
 129 737 l 1
 129 747 l 1
 129 823 l 1
 129 833 l 1
 139 833 l 1
 420 833 l 1
 430 833 l 1
 430 823 l 1
 430 -194 l 1
 430 -204 l 1
 420 -204 l 1
EndSplineSet
Substitution2: "'case' Case-Sensitive Forms lookup 17 subtable" Bracketright
EndChar

StartChar: asciicircum
Encoding: 94 94 65
Width: 588
VWidth: 1177
Flags: W
LayerCount: 2
Fore
SplineSet
346.688399102 733.950931332 m 1
 550.688399102 375.950931332 l 1
 555.862578123 366.870754422 l 1
 546.563166476 362.101825372 l 1
 468.563166476 322.101825372 l 1
 460.065341652 317.743966488 l 1
 455.321167372 326.032318024 l 1
 294.025619885 607.825127457 l 1
 133.691421444 326.05437635 l 1
 128.956290075 317.732873294 l 1
 120.436833524 322.101825372 l 1
 42.436833524 362.101825372 l 1
 33.137421877 366.870754422 l 1
 38.3116008984 375.950931332 l 1
 242.311600898 733.950931332 l 1
 245.188723827 739 l 1
 251 739 l 1
 338 739 l 1
 343.811276173 739 l 1
 346.688399102 733.950931332 l 1
EndSplineSet
EndChar

StartChar: underscore
Encoding: 95 95 66
Width: 588
VWidth: 1177
Flags: W
LayerCount: 2
Fore
SplineSet
9 -102 m 1
 580 -102 l 1
 590 -102 l 1
 590 -112 l 1
 590 -194 l 1
 590 -204 l 1
 580 -204 l 1
 9 -204 l 1
 -1 -204 l 1
 -1 -194 l 1
 -1 -112 l 1
 -1 -102 l 1
 9 -102 l 1
EndSplineSet
EndChar

StartChar: grave
Encoding: 96 96 67
Width: 588
VWidth: 1177
Flags: W
LayerCount: 2
Fore
SplineSet
261.682212796 822.401843997 m 1
 396.682212796 660.401843997 l 1
 402.914019229 652.923676277 l 1
 395.606278949 646.492864831 l 1
 345.606278949 602.492864831 l 1
 338.635451558 596.358536727 l 1
 332.002201652 602.856414186 l 1
 185.002201652 746.856414186 l 1
 177.784591019 753.926726643 l 1
 184.928932188 761.071067812 l 1
 246.928932188 823.071067812 l 1
 254.671983513 830.814119136 l 1
 261.682212796 822.401843997 l 1
EndSplineSet
EndChar

StartChar: a
Encoding: 97 97 68
Width: 628
VWidth: 1177
Flags: W
LayerCount: 2
Fore
SplineSet
220.757529695 107.440429688 m 0,0,1
 257.468113688 89 257.468113688 89 321.040723982 89 c 0,2,3
 360.919502086 89 360.919502086 89 392.077493107 91.3125 c 0,4,5
 415.812857926 93.0751953125 415.812857926 93.0751953125 433 95.7548828125 c 1,6,-1
 433 233.153320312 l 1,7,8
 424.298293446 235.265625 424.298293446 235.265625 414.688282134 236.874023438 c 128,-1,9
 405.078270822 238.483398438 405.078270822 238.483398438 393.739863193 239.796875 c 0,10,11
 366.11108067 243 366.11108067 243 334.126696833 243 c 0,12,13
 324.58377669 243 324.58377669 243 315.163324555 242.594726562 c 128,-1,14
 305.742872419 242.188476562 305.742872419 242.188476562 296.452342866 241.37890625 c 128,-1,15
 287.161813313 240.568359375 287.161813313 240.568359375 277.988427072 239.353515625 c 0,16,17
 251.434168199 235.834960938 251.434168199 235.834960938 231.236531391 226.704101562 c 0,18,19
 211.557519973 217.807617188 211.557519973 217.807617188 198.843210902 203.491210938 c 0,20,21
 194.915715144 199.068359375 194.915715144 199.068359375 192.291704963 193.889648438 c 128,-1,22
 189.667694782 188.7109375 189.667694782 188.7109375 188.288598522 182.411132812 c 128,-1,23
 187 176.110351562 187 176.110351562 187 168.817382812 c 0,24,25
 187 124.442382812 187 124.442382812 220.757529695 107.440429688 c 0,0,1
201.098752121 551.888671875 m 0,26,27
 252.614120829 559 252.614120829 559 311.226244344 559 c 0,28,29
 379.63580847 559 379.63580847 559 427.215161906 543.416992188 c 0,30,31
 449.341796875 535.8515625 449.341796875 535.8515625 467.33984375 525.135742188 c 128,-1,32
 485.337890625 514.420898438 485.337890625 514.420898438 499.203125 500.541015625 c 0,33,34
 508.463867188 491.271484375 508.463867188 491.271484375 515.903320312 480.591796875 c 128,-1,35
 523.342773438 469.912109375 523.342773438 469.912109375 528.899414062 457.950195312 c 128,-1,36
 534.456054688 445.989257812 534.456054688 445.989257812 538.15625 432.743164062 c 0,37,38
 541.780273438 419.768554688 541.780273438 419.768554688 544.192382812 406.034179688 c 128,-1,39
 546.604492188 392.30078125 546.604492188 392.30078125 547.801757812 377.884765625 c 128,-1,40
 549 363.469726562 549 363.469726562 549 348.303710938 c 2,41,-1
 549 18.64453125 l 1,42,-1
 549 10.5576171875 l 1,43,-1
 540.73828125 9.15234375 l 2,44,45
 532.17578125 7.6416015625 532.17578125 7.6416015625 522.250976562 6.0078125 c 128,-1,46
 512.325195312 4.3740234375 512.325195312 4.3740234375 501.03515625 2.6181640625 c 128,-1,47
 489.744140625 0.8623046875 489.744140625 0.8623046875 477.096679688 -1.0166015625 c 128,-1,48
 464.448242188 -2.89453125 464.448242188 -2.89453125 450.4140625 -4.8994140625 c 0,49,50
 421.428282311 -8.9501953125 421.428282311 -8.9501953125 389.688834488 -10.9755859375 c 128,-1,51
 357.950451605 -13 357.950451605 -13 325.402714932 -13 c 0,52,53
 300.402202347 -13 300.402202347 -13 276.070471578 -11.087890625 c 128,-1,54
 251.738740809 -9.1748046875 251.738740809 -9.1748046875 228.088571126 -5.34765625 c 0,55,56
 204.018815399 -1.453125 204.018815399 -1.453125 182.958007812 5.603515625 c 0,57,58
 163.225585938 12.45703125 163.225585938 12.45703125 145.913085938 22.3916015625 c 0,59,60
 110.66015625 42.62109375 110.66015625 42.62109375 89.3486328125 78.3232421875 c 128,-1,61
 68 114.0859375 68 114.0859375 68 168.16796875 c 0,62,63
 68 192.224609375 68 192.224609375 73.6337890625 212.8046875 c 128,-1,64
 79.2666015625 233.385742188 79.2666015625 233.385742188 90.6396484375 250.21484375 c 0,65,66
 112.841796875 283.0703125 112.841796875 283.0703125 146.700195312 303.62109375 c 0,67,68
 163.48046875 313.805664062 163.48046875 313.805664062 182.798828125 321.158203125 c 0,69,70
 203.394761029 328.510742188 203.394761029 328.510742188 227.153554511 333.043945312 c 0,71,72
 274.084359976 342 274.084359976 342 321.040723982 342 c 0,73,74
 349.449041997 342 349.449041997 342 377.921256363 339.309570312 c 128,-1,75
 406.39240579 336.619140625 406.39240579 336.619140625 433 331.47265625 c 1,76,-1
 433 345.6796875 l 2,77,78
 433 353.033203125 433 353.033203125 432.467773438 360.180664062 c 128,-1,79
 431.935546875 367.327148438 431.935546875 367.327148438 430.875976562 374.24609375 c 128,-1,80
 429.81640625 381.1640625 429.81640625 381.1640625 428.158698035 387.885742188 c 0,81,82
 423.240808824 406.967773438 423.240808824 406.967773438 408.445608562 422.779296875 c 0,83,84
 401.126281462 430.600585938 401.126281462 430.600585938 391.318191459 436.806640625 c 128,-1,85
 381.509036517 443.012695312 381.509036517 443.012695312 368.992806137 447.659179688 c 0,86,87
 343.829357855 457 343.829357855 457 302.502262443 457 c 0,88,89
 247.896440187 457 247.896440187 457 207.994233421 461.376953125 c 0,90,91
 169.583984375 459.193359375 169.583984375 459.193359375 150.303710938 457.044921875 c 2,92,-1
 138.90234375 453.0546875 l 1,93,-1
 137.110351562 465 l 1,94,-1
 125.110351562 528.55859375 l 1,95,-1
 123.986328125 534.51171875 l 1,96,-1
 130.896484375 536.981445312 l 2,97,98
 141.94140625 540.930664062 141.94140625 540.930664062 158.966796875 544.181640625 c 0,99,100
 175.993164062 548.272460938 175.993164062 548.272460938 201.098752121 551.888671875 c 0,26,27
EndSplineSet
Substitution2: "'case' Case-Sensitive Forms lookup 18 subtable" A
Substitution2: "'ordn' Ordinals in Latin lookup 7 subtable" ordfeminine
EndChar

StartChar: b
Encoding: 98 98 69
Width: 628
VWidth: 1177
Flags: W
LayerCount: 2
Fore
SplineSet
201 806 m 1,0,-1
 201 533.577148438 l 1,1,2
 207.276449252 536.345703125 207.276449252 536.345703125 213.836758141 538.772460938 c 128,-1,3
 220.39706703 541.198242188 220.39706703 541.198242188 227.251674107 543.408203125 c 128,-1,4
 234.106281184 545.6171875 234.106281184 545.6171875 242.492720916 548.041992188 c 0,5,6
 280.391552324 559 280.391552324 559 326.495798319 559 c 0,7,8
 347.090319722 559 347.090319722 559 366.383789062 556.573242188 c 128,-1,9
 385.677258403 554.146484375 385.677258403 554.146484375 403.74483817 549.255859375 c 128,-1,10
 421.813476562 544.364257812 421.813476562 544.364257812 438.484727876 537.024414062 c 0,11,12
 455.088227088 529.98046875 455.088227088 529.98046875 469.361328125 521.059570312 c 0,13,14
 483.098632812 512.137695312 483.098632812 512.137695312 495.223632812 501.357421875 c 128,-1,15
 507.348632812 490.577148438 507.348632812 490.577148438 517.80859375 477.978515625 c 0,16,17
 549.006835938 440.400390625 549.006835938 440.400390625 565.565429688 388.044921875 c 0,18,19
 573.798828125 362.013671875 573.798828125 362.013671875 577.899414062 333.243164062 c 128,-1,20
 582 304.471679688 582 304.471679688 582 272.977539062 c 0,21,22
 582 251.287109375 582 251.287109375 579.837890625 230.986328125 c 128,-1,23
 577.67578125 210.685546875 577.67578125 210.685546875 573.318359375 191.671875 c 128,-1,24
 568.9609375 172.657226562 568.9609375 172.657226562 562.413085938 155.05859375 c 0,25,26
 542.731445312 102.155273438 542.731445312 102.155273438 507.36328125 65.068359375 c 0,27,28
 489.625976562 46.4677734375 489.625976562 46.4677734375 468.075195312 32.12109375 c 0,29,30
 445.223944656 17.7734375 445.223944656 17.7734375 417.893382353 7.7548828125 c 0,31,32
 399.672301733 0.82421875 399.672301733 0.82421875 380.137465533 -3.7939453125 c 128,-1,33
 360.602629333 -8.412109375 360.602629333 -8.412109375 339.893776261 -10.7060546875 c 128,-1,34
 319.184923188 -13 319.184923188 -13 297.226890756 -13 c 0,35,36
 225.753717503 -13 225.753717503 -13 172.651367188 -3.3271484375 c 0,37,38
 121.631835938 6.0341796875 121.631835938 6.0341796875 91.126953125 14.9609375 c 2,39,-1
 84 17.0458984375 l 1,40,-1
 84 24.3037109375 l 1,41,-1
 84 790 l 1,42,-1
 84 798.485351562 l 1,43,-1
 92.3720703125 799.866210938 l 1,44,-1
 189.372070312 815.866210938 l 1,45,-1
 201 817.784179688 l 1,46,-1
 201 806 l 1,0,-1
201 416.26953125 m 1,47,-1
 201 82 l 1,48,49
 207.443712251 83.720703125 207.443712251 83.720703125 213.933093159 85.125 c 128,-1,50
 220.421415441 86.5283203125 220.421415441 86.5283203125 226.872685793 87.65625 c 128,-1,51
 233.325014772 88.7841796875 233.325014772 88.7841796875 240.090697216 89.7041015625 c 0,52,53
 252.229968159 91.3544921875 252.229968159 91.3544921875 263.537158613 92.177734375 c 128,-1,54
 274.844349068 93 274.844349068 93 285.302521008 93 c 0,55,56
 368.351775867 93 368.351775867 93 414.996980042 137.30859375 c 0,57,58
 462 181.958007812 462 181.958007812 462 273 c 0,59,60
 462 311.729492188 462 311.729492188 453.053546809 346.221679688 c 0,61,62
 448.643308495 363.227539062 448.643308495 363.227539062 441.96443343 377.59375 c 128,-1,63
 435.286616991 391.9609375 435.286616991 391.9609375 426.395212382 403.7265625 c 128,-1,64
 417.611787684 415.350585938 417.611787684 415.350585938 406.425280659 424.366210938 c 128,-1,65
 395.238773634 433.381835938 395.238773634 433.381835938 381.469217765 439.946289062 c 0,66,67
 354.084665507 453 354.084665507 453 314.571428571 453 c 0,68,69
 297.214187237 453 297.214187237 453 280.415900735 449.82421875 c 128,-1,70
 263.61867286 446.6484375 263.61867286 446.6484375 247.238543855 440.26171875 c 0,71,72
 218.151720063 428.918945312 218.151720063 428.918945312 201 416.26953125 c 1,47,-1
EndSplineSet
Substitution2: "'case' Case-Sensitive Forms lookup 18 subtable" B
EndChar

StartChar: c
Encoding: 99 99 70
Width: 628
VWidth: 1177
Flags: W
LayerCount: 2
Fore
SplineSet
80.2216796875 148.452148438 m 0,0,1
 58 201.755859375 58 201.755859375 58 272.064453125 c 0,2,3
 58 308.611328125 58 308.611328125 64.0576171875 340.543945312 c 128,-1,4
 70.115234375 372.4765625 70.115234375 372.4765625 82.3173828125 399.754882812 c 0,5,6
 106.73828125 454.352539062 106.73828125 454.352539062 149.5078125 489.547851562 c 0,7,8
 163.701171875 501.228515625 163.701171875 501.228515625 179.649590927 510.915039062 c 0,9,10
 196.723805064 520.6015625 196.723805064 520.6015625 215.466570943 528.256835938 c 128,-1,11
 234.209336821 535.911132812 234.209336821 535.911132812 254.635401744 541.553710938 c 128,-1,12
 274.945595017 547.374023438 274.945595017 547.374023438 296.118505384 551.252929688 c 128,-1,13
 317.291415751 555.131835938 317.291415751 555.131835938 339.258573602 557.06640625 c 128,-1,14
 361.225731453 559 361.225731453 559 384.024005039 559 c 0,15,16
 427.850876121 559 427.850876121 559 469.755859375 553.920898438 c 0,17,18
 510.129882812 548.810546875 510.129882812 548.810546875 555.970703125 534.548828125 c 2,19,-1
 565.094726562 531.709960938 l 1,20,-1
 562.673828125 522.466796875 l 1,21,-1
 540.673828125 438.466796875 l 1,22,-1
 537.905273438 427.896484375 l 1,23,-1
 527.62109375 431.587890625 l 2,24,25
 489.670898438 445.2109375 489.670898438 445.2109375 458.278320312 449.075195312 c 0,26,27
 424.351552328 453 424.351552328 453 389.4173036 453 c 0,28,29
 345.64310145 453 345.64310145 453 306.123495567 442.954101562 c 0,30,31
 293.153244554 439.657226562 293.153244554 439.657226562 281.436514106 435.084960938 c 128,-1,32
 269.719783657 430.51171875 269.719783657 430.51171875 259.280801481 424.692382812 c 128,-1,33
 248.842872683 418.874023438 248.842872683 418.874023438 239.564713752 411.762695312 c 0,34,35
 225.696984151 401.134765625 225.696984151 401.134765625 214.542757888 387.221679688 c 128,-1,36
 203.389585004 373.30859375 203.389585004 373.30859375 194.92568775 355.966796875 c 0,37,38
 178 321.28515625 178 321.28515625 178 272.079101562 c 0,39,40
 178 248.264648438 178 248.264648438 181.875379962 228.072265625 c 128,-1,41
 185.751813303 207.879882812 185.751813303 207.879882812 193.389861715 191.334960938 c 0,42,43
 208.583795005 158.420898438 208.583795005 158.420898438 236.795381346 137.186523438 c 0,44,45
 265.294540052 115.735351562 265.294540052 115.735351562 305.217589949 104.948242188 c 0,46,47
 345.735798769 94 345.735798769 94 394.810602162 94 c 0,48,49
 415.007030543 94 415.007030543 94 434.248044512 94.984375 c 128,-1,50
 453.3984375 95.96875 453.3984375 95.96875 470.348632812 97.93359375 c 0,51,52
 503.673828125 101.796875 503.673828125 101.796875 543.564453125 116.391601562 c 2,53,-1
 554.836914062 120.515625 l 1,54,-1
 556.857421875 108.682617188 l 1,55,-1
 570.857421875 26.6826171875 l 1,56,-1
 572.259765625 18.470703125 l 1,57,-1
 564.435546875 15.6083984375 l 2,58,59
 522.498046875 0.265625 522.498046875 0.265625 479.01171875 -6.384765625 c 0,60,61
 434.462933752 -13 434.462933752 -13 380.788025902 -13 c 0,62,63
 356.528716163 -13 356.528716163 -13 333.582969569 -10.896484375 c 128,-1,64
 310.637222976 -8.79296875 310.637222976 -8.79296875 288.920769238 -4.5625 c 128,-1,65
 267.2043155 -0.3310546875 267.2043155 -0.3310546875 246.830919509 6.021484375 c 0,66,67
 185.429479444 24.4794921875 185.429479444 24.4794921875 143.868164062 59.517578125 c 0,68,69
 102.6015625 94.7666015625 102.6015625 94.7666015625 80.2216796875 148.452148438 c 0,0,1
EndSplineSet
Substitution2: "'case' Case-Sensitive Forms lookup 18 subtable" C
EndChar

StartChar: d
Encoding: 100 100 71
Width: 628
VWidth: 1177
Flags: W
LayerCount: 2
Fore
SplineSet
428 82 m 2,0,-1
 428 416.4453125 l 1,1,2
 423.062713367 420.44921875 423.062713367 420.44921875 416.31291032 424.408203125 c 128,-1,3
 409.563107274 428.3671875 409.563107274 428.3671875 401.001994157 432.372070312 c 128,-1,4
 392.44088104 436.377929688 392.44088104 436.377929688 382.358521534 440.24609375 c 0,5,6
 349.123998818 453 349.123998818 453 314.428571429 453 c 0,7,8
 304.413964023 453 304.413964023 453 295.199678309 454.3515625 c 128,-1,9
 285.984333968 455.704101562 285.984333968 455.704101562 277.643415179 458.3828125 c 128,-1,10
 269.302496389 461.0625 269.302496389 461.0625 261.797892595 465 c 0,11,12
 254.2932888 462.4375 254.2932888 462.4375 247.530782235 459.037109375 c 0,13,14
 220.089064141 445.235351562 220.089064141 445.235351562 202.604787618 420.82421875 c 0,15,16
 184.71399849 395.846679688 184.71399849 395.846679688 175.939042805 360.626953125 c 0,17,18
 167 324.75 167 324.75 167 282.904296875 c 0,19,20
 167 191.676757812 167 191.676757812 213.138122046 142.51953125 c 0,21,22
 258.67706145 94 258.67706145 94 331.773109244 94 c 0,23,24
 344.925485819 94 344.925485819 94 356.678358062 93.365234375 c 128,-1,25
 368.431230305 92.7314453125 368.431230305 92.7314453125 378.60674895 91.486328125 c 128,-1,26
 388.782267595 90.2421875 388.782267595 90.2421875 397.47994354 88.390625 c 0,27,28
 402.198242188 87.38671875 402.198242188 87.38671875 406.662470457 86.2978515625 c 128,-1,29
 411.1256401 85.208984375 411.1256401 85.208984375 414.984333968 84.130859375 c 128,-1,30
 418.844086463 83.0537109375 418.844086463 83.0537109375 422.16499803 82 c 0,31,32
 425.447265625 82 425.447265625 82 428 82 c 2,0,-1
428 798.485351562 m 1,33,-1
 436.372070312 799.866210938 l 1,34,-1
 533.372070312 815.866210938 l 1,35,-1
 545 817.784179688 l 1,36,-1
 545 806 l 1,37,-1
 545 24.3173828125 l 1,38,-1
 545 16.923828125 l 1,39,-1
 537.70703125 14.9228515625 l 2,40,41
 505.309570312 6.0302734375 505.309570312 6.0302734375 455.903320312 -3.3173828125 c 0,42,43
 404.359957655 -13 404.359957655 -13 331.773109244 -13 c 0,44,45
 265.668231355 -13 265.668231355 -13 211.106617647 7.7548828125 c 0,46,47
 192.895064666 14.4404296875 192.895064666 14.4404296875 176.445066308 23.0498046875 c 0,48,49
 160.5390625 31.658203125 160.5390625 31.658203125 147.000976562 42.1953125 c 128,-1,50
 133.462890625 52.7314453125 133.462890625 52.7314453125 121.63671875 65.1513671875 c 0,51,52
 86.2685546875 102.291992188 86.2685546875 102.291992188 66.5869140625 155.2734375 c 0,53,54
 47 207.997070312 47 207.997070312 47 273.36328125 c 0,55,56
 47 336.560546875 47 336.560546875 63.4345703125 388.59765625 c 0,57,58
 80.005859375 441.068359375 80.005859375 441.068359375 111.7421875 478.72265625 c 0,59,60
 122.348632812 491.306640625 122.348632812 491.306640625 134.442382812 502.076171875 c 128,-1,61
 146.53515625 512.844726562 146.53515625 512.844726562 160.088867188 521.7734375 c 0,62,63
 174.200777967 530.702148438 174.200777967 530.702148438 190.427406119 537.756835938 c 0,64,65
 239.292550223 559 239.292550223 559 302.504201681 559 c 0,66,67
 351.909245339 559 351.909245339 559 388.765329569 548.015625 c 0,68,69
 411.62637047 541.202148438 411.62637047 541.202148438 428 533.908203125 c 1,70,-1
 428 790 l 1,71,-1
 428 798.485351562 l 1,33,-1
EndSplineSet
Substitution2: "'case' Case-Sensitive Forms lookup 18 subtable" D
EndChar

StartChar: e
Encoding: 101 101 72
Width: 628
VWidth: 1177
Flags: W
LayerCount: 2
Fore
SplineSet
221.194844186 540.846679688 m 0,0,1
 272.46040747 559 272.46040747 559 326.003717472 559 c 0,2,3
 450.127798995 559 450.127798995 559 513.522460938 489.254882812 c 0,4,5
 576 420.075195312 576 420.075195312 576 280.64453125 c 2,6,-1
 576 246.69921875 l 1,7,-1
 576 237 l 1,8,-1
 566 237 l 1,9,-1
 165.9296875 237 l 1,10,11
 174.365169029 168.778320312 174.365169029 168.778320312 221.369006302 132.793945312 c 0,12,13
 272.042838058 94 272.042838058 94 365.75464684 94 c 0,14,15
 393.120131709 94 393.120131709 94 416.179825453 90.9775390625 c 128,-1,16
 439.239519197 87.955078125 439.239519197 87.955078125 457.702148438 82 c 0,17,18
 492.673828125 90.2568359375 492.673828125 90.2568359375 510.71875 98.8046875 c 2,19,-1
 522.786132812 104.520507812 l 1,20,-1
 524.876953125 91.3330078125 l 1,21,-1
 537.876953125 25.107421875 l 1,22,-1
 539.0234375 19.443359375 l 1,23,-1
 532.471679688 16.87890625 l 2,24,25
 522.568359375 13.0009765625 522.568359375 13.0009765625 506.430664062 9.025390625 c 0,26,27
 490.293945312 3.9482421875 490.293945312 3.9482421875 466.849609375 -1.7197265625 c 0,28,29
 450.881102608 -5.4951171875 450.881102608 -5.4951171875 432.618211257 -8.00390625 c 128,-1,30
 414.355319906 -10.513671875 414.355319906 -10.513671875 394.71906584 -11.7568359375 c 128,-1,31
 375.081762605 -13 375.081762605 -13 353.936802974 -13 c 0,32,33
 275.535522915 -13 275.535522915 -13 216.094831842 9.7509765625 c 0,34,35
 157.212890625 31.7392578125 157.212890625 31.7392578125 120.23828125 69.3798828125 c 128,-1,36
 83.2138671875 107.0703125 83.2138671875 107.0703125 65.0126953125 159.69140625 c 0,37,38
 47 211.76953125 47 211.76953125 47 272.120117188 c 0,39,40
 47 344.397460938 47 344.397460938 70.26953125 398.217773438 c 128,-1,41
 93.5576171875 452.08203125 93.5576171875 452.08203125 131.52734375 487.670898438 c 0,42,43
 169.697414469 523.272460938 169.697414469 523.272460938 221.194844186 540.846679688 c 0,0,1
168.924176638 346.0703125 m 1,44,-1
 456.794921875 346.0703125 l 1,45,46
 455.406170132 376.125976562 455.406170132 376.125976562 446.431575279 398.950195312 c 128,-1,47
 437.458029595 421.7734375 437.458029595 421.7734375 420.580041822 439.420898438 c 0,48,49
 402.477673385 455.333984375 402.477673385 455.333984375 378.805264725 463.205078125 c 0,50,51
 355.131806895 457 355.131806895 457 324.92936803 457 c 0,52,53
 307.752366984 457 307.752366984 457 292.271872822 459.001953125 c 128,-1,54
 276.792427829 461.004882812 276.792427829 461.004882812 262.843720957 465 c 0,55,56
 234.611622183 452.798828125 234.611622183 452.798828125 214.530520301 433.173828125 c 128,-1,57
 194.385419087 413.485351562 194.385419087 413.485351562 182.793146637 388.151367188 c 0,58,59
 179.794620556 381.598632812 179.794620556 381.598632812 177.07517353 374.1328125 c 128,-1,60
 174.354677335 366.666015625 174.354677335 366.666015625 172.306698711 359.563476562 c 128,-1,61
 170.257670917 352.459960938 170.257670917 352.459960938 168.924176638 346.0703125 c 1,44,-1
EndSplineSet
Substitution2: "'case' Case-Sensitive Forms lookup 18 subtable" E
EndChar

StartChar: f
Encoding: 102 102 73
Width: 628
VWidth: 1177
Flags: W
LayerCount: 2
Fore
SplineSet
190 0 m 1,0,-1
 190 10 l 1,1,-1
 190 465 l 1,2,-1
 84 465 l 1,3,-1
 74 465 l 1,4,-1
 74 472.826171875 l 1,5,-1
 74 537 l 1,6,-1
 74 547 l 1,7,-1
 84 547 l 1,8,-1
 190 547 l 1,9,-1
 190 586 l 2,10,11
 190 607.879882812 190 607.879882812 191.985351562 627.203125 c 128,-1,12
 193.971679688 646.525390625 193.971679688 646.525390625 198.339441968 663.64453125 c 128,-1,13
 202.709258982 680.763671875 202.709258982 680.763671875 209.322639765 695.385742188 c 0,14,15
 229.025570698 738.950195312 229.025570698 738.950195312 261.918603658 766.4453125 c 128,-1,16
 294.898572096 794.013671875 294.898572096 794.013671875 338.083508695 805.138671875 c 0,17,18
 352.157629313 808.764648438 352.157629313 808.764648438 366.84344052 811.1796875 c 128,-1,19
 381.529251727 813.595703125 381.529251727 813.595703125 396.760766353 814.797851562 c 128,-1,20
 411.993328394 816 411.993328394 816 427.816632716 816 c 0,21,22
 435.525609999 816 435.525609999 816 443.264962328 815.728515625 c 128,-1,23
 451.003267242 815.458007812 451.003267242 815.458007812 458.767757541 814.916015625 c 128,-1,24
 466.531200424 814.375 466.531200424 814.375 474.322923522 813.5625 c 128,-1,25
 482.114646621 812.750976562 482.114646621 812.750976562 489.913085938 811.668945312 c 0,26,27
 497.201171875 810.586914062 497.201171875 810.586914062 504.51171875 809.236328125 c 128,-1,28
 511.822265625 807.884765625 511.822265625 807.884765625 519.157226562 806.264648438 c 0,29,30
 562.706054688 796.643554688 562.706054688 796.643554688 601.237304688 783.461914062 c 2,31,-1
 609.659179688 780.580078125 l 1,32,-1
 607.772460938 771.880859375 l 1,33,-1
 589.772460938 688.880859375 l 1,34,-1
 587.043945312 676.297851562 l 1,35,-1
 575.528320312 682.055664062 l 2,36,37
 550.537109375 694.55078125 550.537109375 694.55078125 512.633789062 703.784179688 c 0,38,39
 473.721707088 713 473.721707088 713 432.106846161 713 c 0,40,41
 427.874240563 713 427.874240563 713 423.74951875 712.830078125 c 128,-1,42
 419.623749523 712.659179688 419.623749523 712.659179688 415.618433065 712.319335938 c 128,-1,43
 411.612069192 711.979492188 411.612069192 711.979492188 407.717778765 711.47265625 c 128,-1,44
 403.822440924 710.96484375 403.822440924 710.96484375 400.036034283 710.2890625 c 128,-1,45
 396.250675057 709.614257812 396.250675057 709.614257812 392.579484109 708.774414062 c 128,-1,46
 388.908293161 707.934570312 388.908293161 707.934570312 385.336606676 706.927734375 c 0,47,48
 375.011185745 704.017578125 375.011185745 704.017578125 365.960469345 699.021484375 c 128,-1,49
 356.910800361 694.025390625 356.910800361 694.025390625 348.943111476 686.821289062 c 0,50,51
 333.033919092 672.438476562 333.033919092 672.438476562 323.685736721 648.125 c 0,52,53
 320.558154362 639.991210938 320.558154362 639.991210938 318.442375271 630.337890625 c 128,-1,54
 316.325548764 620.68359375 316.325548764 620.68359375 315.225762603 609.26953125 c 128,-1,55
 314.125976441 597.85546875 314.125976441 597.85546875 314.125976441 585 c 2,56,-1
 314.125976441 547 l 1,57,-1
 536 547 l 1,58,-1
 546 547 l 1,59,-1
 546 537 l 1,60,-1
 546 472.826171875 l 1,61,-1
 546 465 l 1,62,-1
 536 465 l 1,63,-1
 314.125976441 465 l 1,64,-1
 314.125976441 10 l 1,65,-1
 314.125976441 0 l 1,66,-1
 303.400442831 0 l 1,67,-1
 200.435320167 0 l 1,68,-1
 190 0 l 1,0,-1
EndSplineSet
Substitution2: "'case' Case-Sensitive Forms lookup 18 subtable" F
EndChar

StartChar: g
Encoding: 103 103 74
Width: 628
VWidth: 1177
Flags: W
LayerCount: 2
Fore
SplineSet
428 38.65234375 m 2,0,-1
 428 41.6123046875 l 1,1,2
 411.676125919 35.3056640625 411.676125919 35.3056640625 387.642126773 28.46484375 c 0,3,4
 348.635971967 17.3623046875 348.635971967 17.3623046875 298.168067227 17.3623046875 c 0,5,6
 244.140001313 17.3623046875 244.140001313 17.3623046875 196.746348149 33.4794921875 c 0,7,8
 172.882787881 41.5947265625 172.882787881 41.5947265625 153.219726562 53.943359375 c 0,9,10
 134.012695312 66.2919921875 134.012695312 66.2919921875 117.763671875 82.77734375 c 128,-1,11
 101.500976562 99.2763671875 101.500976562 99.2763671875 88.5966796875 120.088867188 c 128,-1,12
 75.6923828125 140.90234375 75.6923828125 140.90234375 66.12109375 165.934570312 c 0,13,14
 47 215.9453125 47 215.9453125 47 283.482421875 c 0,15,16
 47 343.14453125 47 343.14453125 64.5322265625 393.044921875 c 0,17,18
 73.3349609375 418.100585938 73.3349609375 418.100585938 86.21875 439.88671875 c 128,-1,19
 99.1015625 461.672851562 99.1015625 461.672851562 116.03125 480.072265625 c 128,-1,20
 133.001953125 498.514648438 133.001953125 498.514648438 153.780273438 512.931640625 c 0,21,22
 175.194828322 527.349609375 175.194828322 527.349609375 201.691192883 537.666015625 c 0,23,24
 228.263778558 548.357421875 228.263778558 548.357421875 258.371118369 553.678710938 c 128,-1,25
 288.479516807 559 288.479516807 559 322.016806723 559 c 0,26,27
 337.582851891 559 337.582851891 559 352.218364299 558.596679688 c 128,-1,28
 366.853876707 558.194335938 366.853876707 558.194335938 380.637194722 557.3828125 c 128,-1,29
 394.420512736 556.571289062 394.420512736 556.571289062 407.291294643 555.350585938 c 128,-1,30
 420.161017923 554.130859375 420.161017923 554.130859375 431.620117188 552.494140625 c 0,31,32
 442.704101562 550.857421875 442.704101562 550.857421875 452.9609375 548.805664062 c 0,33,34
 503.26171875 539.030273438 503.26171875 539.030273438 537.55859375 530.208007812 c 2,35,-1
 545 528.293945312 l 1,36,-1
 545 520.813476562 l 1,37,-1
 545 46.603515625 l 2,38,39
 545 -81.1923828125 545 -81.1923828125 477.618164062 -138.997070312 c 0,40,41
 409.587455685 -198 409.587455685 -198 264.56302521 -198 c 0,42,43
 206.048499869 -198 206.048499869 -198 159.060546875 -189.310546875 c 0,44,45
 115.439453125 -180.6875 115.439453125 -180.6875 81.837890625 -169.487304688 c 2,46,-1
 73.3876953125 -166.669921875 l 1,47,-1
 75.2119140625 -157.951171875 l 1,48,-1
 93.2119140625 -71.951171875 l 1,49,-1
 95.6943359375 -60.0927734375 l 1,50,-1
 106.8671875 -64.7783203125 l 2,51,52
 136.955078125 -77.3955078125 136.955078125 -77.3955078125 176.198406316 -85.19921875 c 0,53,54
 197.030060071 -89.0908203125 197.030060071 -89.0908203125 219.938739168 -91.0458984375 c 128,-1,55
 242.846359638 -93 242.846359638 -93 267.81512605 -93 c 0,56,57
 355.691718093 -93 355.691718093 -93 392.135996586 -61.6826171875 c 0,58,59
 428 -31.650390625 428 -31.650390625 428 38.65234375 c 2,0,-1
428 136.34765625 m 1,60,-1
 428 443.670898438 l 1,61,62
 414.937754399 447.0625 414.937754399 447.0625 395.311876313 449.596679688 c 0,63,64
 368.959484966 453 368.959484966 453 324.18487395 453 c 0,65,66
 248.188189338 453 248.188189338 453 208.08212152 405.366210938 c 0,67,68
 167 356.572265625 167 356.572265625 167 274 c 0,69,70
 167 228.668945312 167 228.668945312 178.878848805 196.747070312 c 0,71,72
 184.808216255 180.813476562 184.808216255 180.813476562 192.575359441 167.775390625 c 128,-1,73
 200.342502626 154.737304688 200.342502626 154.737304688 209.893431591 144.536132812 c 0,74,75
 228.763450302 124.379882812 228.763450302 124.379882812 253.412511489 115.28515625 c 0,76,77
 278.575006565 106 278.575006565 106 306.840336134 106 c 0,78,79
 345.242015165 106 345.242015165 106 378.848115809 116.015625 c 0,80,81
 408.527770483 124.861328125 408.527770483 124.861328125 428 136.34765625 c 1,60,-1
EndSplineSet
Substitution2: "'case' Case-Sensitive Forms lookup 18 subtable" G
EndChar

StartChar: h
Encoding: 104 104 75
Width: 628
VWidth: 1177
Flags: W
LayerCount: 2
Fore
SplineSet
84 0 m 1,0,-1
 84 10 l 1,1,-1
 84 790 l 1,2,-1
 84 798.485351562 l 1,3,-1
 92.3720703125 799.866210938 l 1,4,-1
 189.372070312 815.866210938 l 1,5,-1
 201 817.784179688 l 1,6,-1
 201 806 l 1,7,-1
 201 542.030273438 l 1,8,9
 222.236232851 548.219726562 222.236232851 548.219726562 246.439381669 552.331054688 c 0,10,11
 279.815310595 558 279.815310595 558 311.56097561 558 c 0,12,13
 381.862757241 558 381.862757241 558 429.939453125 539.19140625 c 0,14,15
 474.372070312 520.841796875 474.372070312 520.841796875 500.970703125 487.010742188 c 0,16,17
 527.270507812 453.559570312 527.270507812 453.559570312 538.249023438 407.212890625 c 0,18,19
 543.634765625 384.478515625 543.634765625 384.478515625 546.317382812 359.614257812 c 128,-1,20
 549 334.749023438 549 334.749023438 549 307.747070312 c 2,21,-1
 549 10 l 1,22,-1
 549 0 l 1,23,-1
 539 0 l 1,24,-1
 442 0 l 1,25,-1
 432 0 l 1,26,-1
 432 10 l 1,27,-1
 432 284.576171875 l 2,28,29
 432 378.306640625 432 378.306640625 403.404535061 416.078125 c 0,30,31
 375.93121189 452 375.93121189 452 301.682926829 452 c 0,32,33
 290.729825648 452 290.729825648 452 280.025390625 453.447265625 c 128,-1,34
 269.320955602 454.89453125 269.320955602 454.89453125 258.879120617 457.782226562 c 128,-1,35
 248.437285633 460.669921875 248.437285633 460.669921875 238.230182927 465 c 0,36,37
 226.546088986 462.618164062 226.546088986 462.618164062 216.706626334 460.120117188 c 128,-1,38
 206.867163681 457.622070312 206.867163681 457.622070312 201 455.572265625 c 1,39,-1
 201 10 l 1,40,-1
 201 0 l 1,41,-1
 191 0 l 1,42,-1
 94 0 l 1,43,-1
 84 0 l 1,0,-1
EndSplineSet
Substitution2: "'case' Case-Sensitive Forms lookup 18 subtable" H
EndChar

StartChar: i
Encoding: 105 105 76
Width: 628
VWidth: 1177
Flags: W
LayerCount: 2
Fore
SplineSet
286.258436951 613.651367188 m 128,-1,1
 274.594831398 611 274.594831398 611 261.82915288 611 c 0,2,3
 243.102357469 611 243.102357469 611 226.700049289 617.155273438 c 128,-1,4
 210.29774111 623.310546875 210.29774111 623.310546875 196.98313736 635.34765625 c 128,-1,5
 183.518554688 647.556640625 183.518554688 647.556640625 177.258789062 663.915039062 c 128,-1,6
 171 680.2734375 171 680.2734375 171 700 c 0,7,8
 171 708.038085938 171 708.038085938 172.005859375 715.49609375 c 128,-1,9
 173.010742188 722.955078125 173.010742188 722.955078125 175.055664062 729.875 c 128,-1,10
 177.100585938 736.795898438 177.100585938 736.795898438 180.157226562 743.032226562 c 128,-1,11
 183.213867188 749.26953125 183.213867188 749.26953125 187.63451841 754.87890625 c 128,-1,12
 192.118815305 760.48828125 192.118815305 760.48828125 197.703073914 765.310546875 c 0,13,14
 211.253082138 777.009765625 211.253082138 777.009765625 227.453765858 783.004882812 c 128,-1,15
 243.654449577 789 243.654449577 789 261.82915288 789 c 0,16,17
 300.751118698 789 300.751118698 789 327.664289443 765.233398438 c 0,18,19
 354.791752153 741.279296875 354.791752153 741.279296875 354.791752153 700 c 0,20,21
 354.791752153 689.959960938 354.791752153 689.959960938 353.121752698 680.82421875 c 128,-1,22
 351.452808868 671.689453125 351.452808868 671.689453125 348.106476204 663.469726562 c 128,-1,23
 344.759087915 655.250976562 344.759087915 655.250976562 339.625581371 648.022460938 c 128,-1,24
 334.491019202 640.793945312 334.491019202 640.793945312 327.664289443 634.766601562 c 0,25,26
 318.767478184 626.91015625 318.767478184 626.91015625 308.344232531 621.606445312 c 128,-1,0
 297.922042503 616.303710938 297.922042503 616.303710938 286.258436951 613.651367188 c 128,-1,1
223.995536897 221 m 2,27,-1
 223.995536897 465 l 1,28,-1
 74 465 l 1,29,-1
 64 465 l 1,30,-1
 64 472.826171875 l 1,31,-1
 64 537 l 1,32,-1
 64 547 l 1,33,-1
 74 547 l 1,34,-1
 339.65830576 547 l 1,35,-1
 350.467910327 547 l 1,36,-1
 350.467910327 537 l 1,37,-1
 350.467910327 215.513671875 l 2,38,39
 350.467910327 178.313476562 350.467910327 178.313476562 356.288629036 153.435546875 c 128,-1,40
 362.109347745 128.557617188 362.109347745 128.557617188 372.405918345 117.215820312 c 0,41,42
 393.482535999 94 393.482535999 94 436.94474686 94 c 0,43,44
 470.541015625 94 470.541015625 94 497.641601562 82 c 0,45,46
 525.194335938 90.2177734375 525.194335938 90.2177734375 541.321289062 98.7548828125 c 2,47,-1
 553.532226562 105.219726562 l 1,48,-1
 555.857421875 91.599609375 l 1,49,-1
 569.857421875 25.3330078125 l 1,50,-1
 571.034179688 19.9365234375 l 1,51,-1
 564.9609375 17.220703125 l 2,52,53
 557.30078125 13.7939453125 557.30078125 13.7939453125 543.58984375 9.6669921875 c 0,54,55
 530.2109375 4.5205078125 530.2109375 4.5205078125 512.821289062 -0.59375 c 128,-1,56
 495.259765625 -5.7587890625 495.259765625 -5.7587890625 474.182617188 -9.357421875 c 0,57,58
 452.84765625 -13 452.84765625 -13 427.21610275 -13 c 0,59,60
 407.899212715 -13 407.899212715 -13 390.804414243 -11.404296875 c 128,-1,61
 373.709615771 -9.80859375 373.709615771 -9.80859375 358.466384331 -6.5205078125 c 128,-1,62
 343.224208517 -3.2314453125 343.224208517 -3.2314453125 330.137619863 1.7529296875 c 0,63,64
 290.529497505 16.8408203125 290.529497505 16.8408203125 266.565744256 47.6611328125 c 0,65,66
 254.758573643 62.8466796875 254.758573643 62.8466796875 246.480358896 81.330078125 c 128,-1,67
 238.203199774 99.8134765625 238.203199774 99.8134765625 233.403270871 121.493164062 c 0,68,69
 228.679347 142.830078125 228.679347 142.830078125 226.337969761 167.68359375 c 128,-1,70
 223.995536897 192.538085938 223.995536897 192.538085938 223.995536897 221 c 2,27,-1
EndSplineSet
Substitution2: "'case' Case-Sensitive Forms lookup 18 subtable" I
Substitution2: "'locl' Localized Forms in Latin lookup 2 subtable" i.locl
Substitution2: "'locl' Localized Forms in Latin lookup 1 subtable" i.locl
Substitution2: "'locl' Localized Forms in Latin lookup 0 subtable" i.locl
EndChar

